<?xml version="1.0" encoding="utf-8"?>
<!-- Generator: Adobe Illustrator 21.1.0, SVG Export Plug-In . SVG Version: 6.00 Build 0)  -->
<svg version="1.1" id="Layer_1" xmlns="http://www.w3.org/2000/svg" xmlns:xlink="http://www.w3.org/1999/xlink" x="0px" y="0px"
	 viewBox="0 0 595.4 602" style="enable-background:new 0 0 595.4 602;" xml:space="preserve">
<style type="text/css">
	.st0{fill:#FFFFFF;stroke:#EF3D27;stroke-width:4.5537;stroke-miterlimit:10;}
	.st1{fill:#EF3D27;}
	.st2{fill:none;stroke:#EF3D27;stroke-width:3.0856;stroke-miterlimit:10;}
	.st3{fill:none;stroke:#EF3D27;stroke-width:2.7771;stroke-miterlimit:10;}
	.st4{fill:#EF3D27;stroke:#FFFFFF;stroke-width:0.3425;stroke-miterlimit:10;}
</style>
<g id="ISLAND_MANAGEMENT">
	<path class="st0" d="M541.7,585.9H65.4c-27.3,0-49.5-22.3-49.5-49.5V60.5C15.9,33.2,38.1,11,65.4,11h475.8
		c27.3,0,49.5,22.3,49.5,49.5v475.4C591.2,563.1,569,585.9,541.7,585.9z"/>
	<g>
		<path class="st1" d="M408.1,359.1C407.2,301.4,360.4,255,302.6,255s-104.5,46.4-105.4,104.1H408.1z"/>
		<g>
			<line class="st2" x1="303.1" y1="312.3" x2="303.1" y2="194.1"/>
			<g>
				<path class="st2" d="M303.1,195.5c0-40,60-40,60,0"/>
			</g>
			<g>
				<path class="st2" d="M242.7,195.5c0-40,60-40,60,0"/>
			</g>
			<g>
				<line class="st3" x1="303.1" y1="190.9" x2="303.1" y2="98.7"/>
				<path class="st3" d="M369.4,125c0,0-65.9,11.4-65.9,62.7"/>
				<path class="st3" d="M236.7,125c0,0,65.9,11.4,65.9,62.7"/>
			</g>
		</g>
		<g>
			<path class="st4" d="M445.3,196.4c-2.7,4.5-5.5,9.1-7.7,13.6c-15.9,30-20,59.1-24.1,87.7c-1.4,7.7-4.1,19.1-6.8,30.4
				c-4.1,17.3-8.6,34.5-8.2,44.1c0.5,8.6,3.6,13.6,10,14.5c9.1,1.4,18.2-6.8,28.6-27.7c7.3-13.6,14.5-31.8,22.7-50.9
				c1.4-3.2,2.7-6.4,3.6-9.1c-6.4,28.2-14.1,51.4-23.2,68.2c-10.5,19.5-21.4,30-31.8,29.1c-7.3-0.5-13.2-6.8-17.3-17.7l-0.5-1.8
				l-1.4,1.4c-0.5,0.5-59.1,66.4-69.5,79.1c-2.3,2.7-4.5,5.9-5.9,9.1c-5.9,11.4-6.4,23.2-0.9,28.2c2.7,2.3,9.1,4.5,21.4-5L439,403.6
				c3.2-3.2,6.8-5.9,10.5-9.1c11.4-9.5,23.6-19.5,29.5-31.4c2.7-5,4.5-10,5.9-15c2.7-9.5,7.7-34.5,12.7-60.9
				c5-25.9,10.5-52.3,13.2-62.7c2.3-8.2,5.5-15.9,9.5-24.1c3.6-6.4,7.3-12.7,11.4-18.6L494,128.2l-2.3,2.7
				C474.9,153.2,459.4,174.6,445.3,196.4L445.3,196.4z"/>
		</g>
		<g>
			<path class="st4" d="M162.2,196.4c-14.1-22.3-29.5-43.6-47.3-65.4l-2.3-2.7L75,181.8c4.1,5.9,8.2,12.3,11.4,18.6
				c4.1,8.2,7.3,15.9,9.5,24.1c2.7,10.5,8.2,36.8,13.2,62.7c5,26.4,10,51.4,12.7,60.9c1.4,5.5,3.2,10.5,5.9,15
				c6.4,11.8,18.2,21.8,29.5,31.4c3.6,3.2,7.3,5.9,10.5,9.1l104.5,85.9c12.3,9.5,18.6,7.3,21.4,5c5.5-4.5,5.5-16.4-0.9-28.2
				c-1.8-3.2-3.6-6.4-5.9-9.1c-10.9-12.7-69.1-78.6-69.5-79.1l-1.4-1.4l-0.5,1.8c-3.6,10.9-10,17.3-17.3,17.7
				c-10,0.9-21.4-9.5-31.8-29.1c-9.1-16.8-16.8-40-23.2-68.2c1.4,3.2,2.7,6.4,3.6,9.1c7.7,19.1,15.5,36.8,22.7,50.9
				c10.9,20.9,20,29.1,28.6,27.7c6.4-0.9,9.5-5.9,10-14.5c0.5-9.5-4.1-27.3-8.2-44.1c-2.7-11.8-5.9-22.7-6.8-30.4
				c-4.1-28.2-8.2-57.3-24.1-87.7C167.7,205.5,164.9,200.9,162.2,196.4L162.2,196.4z"/>
		</g>
		<g>
			<path class="st1" d="M259.5,399.1c-7.7,0-10.9-10-10.9-10c0,7.7-11.8,10.5-11.8,10.5c9.1,0,12.3-5.5,12.3-5.5
				C250.8,400.9,259.5,399.1,259.5,399.1z"/>
			<path class="st1" d="M262.2,402.7c0,7.7-11.8,10.5-11.8,10.5c9.1,0,12.3-5.5,12.3-5.5c1.8,6.4,10.5,4.5,10.5,4.5
				C265.8,412.7,262.2,402.7,262.2,402.7z"/>
			<path class="st1" d="M287.2,399.5c-7.7,0-10.9-10-10.9-10c0,7.7-11.8,10.5-11.8,10.5c9.1,0,12.3-5.5,12.3-5.5
				C278.6,400.9,287.2,399.5,287.2,399.5z"/>
			<path class="st1" d="M293.6,367.3c1.8,6.4,10.5,4.5,10.5,4.5c-7.7,0-10.9-10-10.9-10c0,7.7-11.8,10.5-11.8,10.5
				C290.4,372.3,293.6,367.3,293.6,367.3z"/>
			<path class="st1" d="M307.2,380.4c1.8,6.4,10.5,4.5,10.5,4.5c-7.7,0-10.9-10-10.9-10c0,7.7-11.8,10.5-11.8,10.5
				C304,385.9,307.2,380.4,307.2,380.4z"/>
			<path class="st1" d="M321.3,367.3c1.8,6.4,10.5,4.5,10.5,4.5c-7.7,0-10.9-10-10.9-10c0,7.7-11.8,10.5-11.8,10.5
				C318.1,372.7,321.3,367.3,321.3,367.3z"/>
			<path class="st1" d="M305.8,425.4c-7.7,0-10.9-10-10.9-10c0,7.7-11.8,10.5-11.8,10.5c9.1,0,12.3-5.5,12.3-5.5
				C297.2,427.2,305.8,425.4,305.8,425.4z"/>
			<path class="st1" d="M308.1,428.6c0,7.7-11.8,10.5-11.8,10.5c9.1,0,12.3-5.5,12.3-5.5c1.8,6.4,10.5,4.5,10.5,4.5
				C311.7,438.6,308.1,428.6,308.1,428.6z"/>
			<path class="st1" d="M322.2,415.4c0,7.7-11.8,10.5-11.8,10.5c9.1,0,12.3-5.5,12.3-5.5c1.8,6.4,10.5,4.5,10.5,4.5
				C325.8,425.4,322.2,415.4,322.2,415.4z"/>
			<path class="st1" d="M344.9,399.1c-7.7,0-10.9-10-10.9-10c0,7.7-11.8,10.5-11.8,10.5c9.1,0,12.3-5.5,12.3-5.5
				C336.3,400.9,344.9,399.1,344.9,399.1z"/>
			<path class="st1" d="M347.6,402.7c0,7.7-11.8,10.5-11.8,10.5c9.1,0,12.3-5.5,12.3-5.5c1.8,6.4,10.5,4.5,10.5,4.5
				C351.3,412.7,347.6,402.7,347.6,402.7z"/>
			<path class="st1" d="M361.7,389.5c0,7.7-11.8,10.5-11.8,10.5c9.1,0,12.3-5.5,12.3-5.5c1.8,6.4,10.5,4.5,10.5,4.5
				C365.4,399.5,361.7,389.5,361.7,389.5z"/>
		</g>
	</g>
</g>
</svg>
