<?xml version="1.0" encoding="utf-8"?>
<!-- Generator: Adobe Illustrator 21.1.0, SVG Export Plug-In . SVG Version: 6.00 Build 0)  -->
<svg version="1.1" id="Layer_1" xmlns="http://www.w3.org/2000/svg" xmlns:xlink="http://www.w3.org/1999/xlink" x="0px" y="0px"
	 viewBox="0 0 595.4 609" style="enable-background:new 0 0 595.4 609;" xml:space="preserve">
<style type="text/css">
	.st0{fill:#FFFFFF;stroke:#EF3D27;stroke-width:4.5537;stroke-miterlimit:10;}
	.st1{fill:#EF3D27;}
	.st2{fill:none;stroke:#EF3D27;stroke-width:8.5219;stroke-miterlimit:10;}
	.st3{fill:none;stroke:#EF3D27;stroke-width:3.0435;stroke-miterlimit:10;}
</style>
<g id="MANGROVE_REHABILITATION">
	<path class="st0" d="M540.4,590.4H63c-27.3,0-49.7-22.3-49.7-49.7V63.9c0-27.3,22.3-49.7,49.7-49.7h476.9
		c27.3,0,49.7,22.3,49.7,49.7v476.9C590,568.1,567.7,590.4,540.4,590.4z"/>
	<g>
		<g>
			<g>
				<path class="st1" d="M413.3,75.7c-18.7,0-33.7,25.1-33.7,56.5c0,31,15,56.5,33.7,56.5V75.7z"/>
				<path class="st1" d="M417.4,75.7c18.7,0,33.7,25.1,33.7,56.5c0,31-15,56.5-33.7,56.5V75.7z"/>
			</g>
			<g>
				<path class="st1" d="M524,142.7c-11.8-11.8-37.8-5.5-57.4,14.6c-20,20-26.4,45.6-14.6,57.4L524,142.7z"/>
				<path class="st1" d="M526.7,145.4c11.8,11.8,5.5,37.8-14.6,57.4c-20,20-45.6,26.4-57.4,14.6L526.7,145.4z"/>
			</g>
			<g>
				<path class="st1" d="M311.7,155.4c-10.5,10.5-4.6,32.8,12.8,50.1s39.6,22.8,50.1,12.8L311.7,155.4z"/>
				<path class="st1" d="M314,153.1c10.5-10.5,32.8-4.6,50.1,12.8c17.3,17.3,22.8,39.6,12.8,50.1L314,153.1z"/>
			</g>
		</g>
		<g>
			<g>
				<path class="st1" d="M177.3,130.4c-16.4,0-29.2,21.9-29.2,49.2s13.2,49.2,29.2,49.2V130.4z"/>
				<path class="st1" d="M181,130.4c16.4,0,29.2,21.9,29.2,49.2s-13.2,49.2-29.2,49.2V130.4z"/>
			</g>
			<g>
				<path class="st1" d="M273.9,188.7c-10.5-10.5-32.8-4.6-50.1,12.8S201,241.1,211,251.5L273.9,188.7z"/>
				<path class="st1" d="M276.2,191c10.5,10.5,4.6,32.8-12.8,50.1s-39.6,22.8-50.1,12.8L276.2,191z"/>
			</g>
			<g>
				<path class="st1" d="M89,200.1c-9.1,9.1-4.1,28.7,10.9,43.7c15,15,34.6,20,43.7,10.9L89,200.1z"/>
				<path class="st1" d="M91.2,197.8c9.1-9.1,28.7-4.1,43.7,10.9c15,15,20,34.6,10.9,43.7L91.2,197.8z"/>
			</g>
		</g>
		<g>
			<g>
				<path class="st1" d="M77.6,121.3c-5.9,5.9-2.7,18.7,7.3,28.2c9.6,9.6,22.3,12.8,28.2,7.3L77.6,121.3z"/>
				<path class="st1" d="M78.5,119.9c5.9-5.9,18.7-2.7,28.2,7.3s12.8,22.3,7.3,28.2L78.5,119.9z"/>
			</g>
			<g>
				<path class="st1" d="M133.1,107.6c-7.3,0-13.7,10-13.7,22.8s5.9,22.8,13.7,22.8V107.6z"/>
				<path class="st1" d="M135,107.6c7.3,0,13.7,10,13.7,22.8s-5.9,22.8-13.7,22.8V107.6z"/>
			</g>
			<g>
				<path class="st1" d="M70.7,178.2c0,6.4,8.7,11.8,19.6,11.8s19.6-5.5,19.6-11.8H70.7z"/>
				<path class="st1" d="M70.7,176.8c0-6.4,8.7-11.8,19.6-11.8s19.6,5.5,19.6,11.8H70.7z"/>
			</g>
		</g>
		<g>
			<g>
				<path class="st1" d="M258.9,132.2c-4.1-4.1-12.8-1.8-19.1,5c-6.8,6.8-8.7,15.5-5,19.1L258.9,132.2z"/>
				<path class="st1" d="M259.8,132.6c4.1,4.1,1.8,12.8-5,19.1c-6.8,6.8-15.5,8.7-19.1,5L259.8,132.6z"/>
			</g>
			<g>
				<path class="st1" d="M268.4,170c0-5-6.8-9.1-15.5-9.1c-8.7,0-15.5,4.1-15.5,9.1H268.4z"/>
				<path class="st1" d="M268.4,170.9c0,5-6.8,9.1-15.5,9.1c-8.7,0-15.5-4.1-15.5-9.1H268.4z"/>
			</g>
			<g>
				<path class="st1" d="M220.1,127.2c-4.6,0-8.2,5.9-8.2,13.2c0,7.3,3.6,13.2,8.2,13.2V127.2z"/>
				<path class="st1" d="M221.1,127.2c4.6,0,8.2,5.9,8.2,13.2c0,7.3-3.6,13.2-8.2,13.2V127.2z"/>
			</g>
		</g>
		<g>
			<g>
				<path class="st1" d="M352.2,277c4.6,2.7,11.4-0.9,15.9-8.2c4.6-7.3,4.6-15.5,0-17.8L352.2,277z"/>
				<path class="st1" d="M351.3,276.6c-4.6-2.7-4.1-10.5,0-17.8c4.1-7.3,11.4-10.9,15.9-8.2L351.3,276.6z"/>
			</g>
			<g>
				<path class="st1" d="M335.8,245.6c0.9,4.6,8.2,6.8,15.5,5c7.3-1.8,12.8-6.8,11.4-11.4L335.8,245.6z"/>
				<path class="st1" d="M335.8,244.7c-0.9-4.6,4.1-9.6,11.4-11.4c7.3-1.8,14.6,0.5,15.5,5L335.8,244.7z"/>
			</g>
			<g>
				<path class="st1" d="M387.3,272.9c4.1-0.9,5.9-6.8,4.1-13.2c-1.4-6.4-5.9-10.9-10-10L387.3,272.9z"/>
				<path class="st1" d="M386.4,272.9c-4.1,0.9-8.2-3.6-10-10c-1.4-6.4,0.5-12.3,4.1-13.2L386.4,272.9z"/>
			</g>
		</g>
		<g>
			<g>
				<path class="st1" d="M508,64.3c-5-3.6-14.6,0-21,8.7s-7.3,18.7-2.3,22.8L508,64.3z"/>
				<path class="st1" d="M508.9,65.2c5,3.6,4.1,14.1-2.3,22.8c-6.4,8.7-15.9,12.8-21,8.7L508.9,65.2z"/>
			</g>
			<g>
				<path class="st1" d="M518.5,114c-0.9-5.9-9.6-9.1-19.1-7.7c-9.6,1.4-16.9,7.3-15.9,13.2L518.5,114z"/>
				<path class="st1" d="M518.5,114.9c0.9,5.9-6.4,11.4-15.9,13.2c-9.6,1.4-18.2-2.3-19.1-7.7L518.5,114.9z"/>
			</g>
			<g>
				<path class="st1" d="M456.6,73.4c-5,0.9-8.2,8.2-6.8,16.4c1.4,8.2,6.4,14.6,11.4,13.7L456.6,73.4z"/>
				<path class="st1" d="M457.9,73.4c5-0.9,10,5.5,11.4,13.7s-1.8,15.9-6.8,16.4L457.9,73.4z"/>
			</g>
		</g>
		<g>
			<g>
				<path class="st1" d="M318.5,81.6c-3.6,5,0,14.1,8.7,20.5c8.7,6.4,18.2,7.3,21.9,2.3L318.5,81.6z"/>
				<path class="st1" d="M319.4,80.3c3.6-5,13.7-4.1,21.9,2.3C350,88.9,353.6,98,350,103L319.4,80.3z"/>
			</g>
			<g>
				<path class="st1" d="M366.4,71.2c-5.5,0.9-9.1,9.1-7.7,18.2c1.4,9.6,7.3,16.4,12.8,15.5L366.4,71.2z"/>
				<path class="st1" d="M367.7,71.2c5.5-0.9,11.4,5.9,12.8,15.5s-1.8,17.8-7.7,18.2L367.7,71.2z"/>
			</g>
			<g>
				<path class="st1" d="M327.6,131.3c0.9,5,7.7,7.7,15.9,6.4c8.2-1.4,14.1-6.4,13.2-10.9L327.6,131.3z"/>
				<path class="st1" d="M327.2,129.9c-0.9-5,5.5-10,13.2-10.9c8.2-1.4,15.5,1.8,15.9,6.4L327.2,129.9z"/>
			</g>
		</g>
		<g>
			<g>
				<path class="st1" d="M449.3,261.1c2.7,1.8,7.3,0,10.9-4.6c3.2-4.6,3.6-9.6,0.9-11.8L449.3,261.1z"/>
				<path class="st1" d="M448.8,261.1c-2.7-1.8-2.3-7.3,0.9-11.8c3.2-4.6,8.2-6.4,10.9-4.6L448.8,261.1z"/>
			</g>
			<g>
				<path class="st1" d="M443.8,236.1c0.5,2.7,5,4.6,9.6,4.1c4.6-0.5,8.7-3.6,8.2-6.8L443.8,236.1z"/>
				<path class="st1" d="M443.8,235.1c-0.5-2.7,3.2-5.9,8.2-6.8c5-0.9,9.1,0.9,9.6,4.1L443.8,235.1z"/>
			</g>
			<g>
				<path class="st1" d="M475.7,256.5c2.7-0.5,4.1-4.1,3.6-8.7c-0.5-4.1-3.2-7.3-5.9-7.3L475.7,256.5z"/>
				<path class="st1" d="M475.2,256.5c-2.7,0.5-5-2.7-5.9-7.3c-0.9-4.6,0.9-8.2,3.6-8.7L475.2,256.5z"/>
			</g>
		</g>
		<g>
			<g>
				<path class="st1" d="M406,535.8c-9.1,0-18.7,0-27.8,0c0-108-161.7-108-161.7,0c-9.1,0-18.7,0-27.8,0
					C188.3,390.9,406,390.9,406,535.8z"/>
			</g>
			<g>
				<path class="st1" d="M344.5,541.7c-3.2,0-6.4,0-10,0c0-65.6,98.4-65.6,98.4,0c-3.2,0-6.4,0-10,0
					C422.9,489.3,344.5,489.3,344.5,541.7z"/>
			</g>
			<g>
				<path class="st1" d="M164.6,536.7c-4.1,0-8.2,0-12.3,0c0-68.3,102.9-68.3,102.9,0c-4.1,0-8.2,0-12.3,0
					C243.4,484.3,164.6,484.3,164.6,536.7z"/>
			</g>
			<g>
				<path class="st1" d="M232.9,537.6c-3.6,0-7.7,0-11.4,0c0-38.7,58.3-38.7,58.3,0c-3.6,0-7.7,0-11.4,0
					C268,514.4,232.9,514.4,232.9,537.6z"/>
			</g>
			<g>
				<path class="st1" d="M415.1,541.7c-2.7,0-5.5,0-8.2,0c0-35.5,53.3-35.5,53.3,0c-2.7,0-5.5,0-8.2,0
					C451.5,517.1,415.1,517.1,415.1,541.7z"/>
			</g>
			<g>
				<path class="st1" d="M321.3,541.7c-3.2,0-5.9,0-9.1,0c0-40.5,60.6-40.5,60.6,0c-3.2,0-5.9,0-9.1,0
					C364.1,513,321.3,513,321.3,541.7z"/>
			</g>
			<g>
				<rect x="275.7" y="391.8" class="st1" width="41" height="59.7"/>
				<path class="st2" d="M416.9,198.7v88.8c0,0,5.5,50.6-50.6,50.6c-55.6,0-69.2,21.9-69.2,57.4"/>
				<path class="st2" d="M177.3,237v88.8c0,0-5.5,50.6,50.6,50.6s69.2,21.9,69.2,57.4"/>
			</g>
		</g>
		<path class="st3" d="M416.9,287.5c0,0,76.1,15,76.1-53.3"/>
	</g>
</g>
</svg>
