<?xml version="1.0" encoding="utf-8"?>
<!-- Generator: Adobe Illustrator 21.1.0, SVG Export Plug-In . SVG Version: 6.00 Build 0)  -->
<svg version="1.1" id="Layer_1" xmlns="http://www.w3.org/2000/svg" xmlns:xlink="http://www.w3.org/1999/xlink" x="0px" y="0px"
	 viewBox="0 0 595.4 615" style="enable-background:new 0 0 595.4 615;" xml:space="preserve">
<style type="text/css">
	.st0{fill:#FFFFFF;stroke:#EF3D27;stroke-width:4.5537;stroke-miterlimit:10;}
	.st1{fill:#EF3D27;}
</style>
<g id="_REFORESTATION_PROJECTS">
	<path class="st0" d="M530.7,595.5H56.9c-27.2,0-49.3-22.2-49.3-49.3V72.4C7.6,45.2,29.8,23,56.9,23h473.8
		c27.2,0,49.3,22.2,49.3,49.3v473.8C580.1,573.3,557.9,595.5,530.7,595.5z"/>
	<g>
		<g>
			<g>
				<path class="st1" d="M147.9,171.5c-7.2,7.2,14.9,41.2,49.3,75.6s68.3,56.6,75.6,49.3L147.9,171.5z"/>
				<path class="st1" d="M149.3,170.1c7.2-7.2,41.2,14.9,75.6,49.3s56.6,68.3,49.3,75.6L149.3,170.1z"/>
			</g>
			<g>
				<path class="st1" d="M438,170.1c-7.2-7.2-41.2,14.9-75.6,49.3s-56.6,68.3-49.3,75.6L438,170.1z"/>
				<path class="st1" d="M439.8,171.5c7.2,7.2-14.9,41.2-49.3,75.6s-68.3,56.6-75.6,49.3L439.8,171.5z"/>
			</g>
			<g>
				<path class="st1" d="M291.3,90.5c-10,0-18.6,39.4-18.6,88.2s8.1,88.2,18.6,88.2V90.5z"/>
				<path class="st1" d="M293.6,90.5c10,0,18.6,39.4,18.6,88.2s-8.1,88.2-18.6,88.2V90.5z"/>
			</g>
		</g>
		<path class="st1" d="M293.6,519L293.6,519c-3.2,0-5.9-2.7-5.9-5.9V282.8c0-3.2,2.7-5.9,5.9-5.9l0,0c3.2,0,5.9,2.7,5.9,5.9v230.3
			C299.5,516.3,296.8,519,293.6,519z"/>
		<path class="st1" d="M371,527.6H216.2c-3.6,0-6.8-3.2-6.8-6.8V366c0-3.6,3.2-6.8,6.8-6.8H371c3.6,0,6.8,3.2,6.8,6.8v154.8
			C377.8,524.9,374.6,527.6,371,527.6z"/>
	</g>
</g>
</svg>
