<?xml version="1.0" encoding="utf-8"?>
<!-- Generator: Adobe Illustrator 21.1.0, SVG Export Plug-In . SVG Version: 6.00 Build 0)  -->
<svg version="1.1" id="Layer_1" xmlns="http://www.w3.org/2000/svg" xmlns:xlink="http://www.w3.org/1999/xlink" x="0px" y="0px"
	 viewBox="0 0 595.4 603" style="enable-background:new 0 0 595.4 603;" xml:space="preserve">
<style type="text/css">
	.st0{fill:#FFFFFF;stroke:#EF3D27;stroke-width:4.5537;stroke-miterlimit:10;}
	.st1{fill:#EF3D27;}
</style>
<g id="RENEWABLE_ENERGY">
	<path class="st0" d="M535.6,584.7H59.7c-27.3,0-49.5-22.3-49.5-49.5V59.4c0-27.3,22.3-49.5,49.5-49.5h475.8
		c27.3,0,49.5,22.3,49.5,49.5v475.8C585.5,562.5,562.8,584.7,535.6,584.7z"/>
	<g>
		<polygon class="st1" points="265.2,189.8 215.6,338.4 281.1,338.4 240.2,451.1 336,337.9 336,337.9 377.4,286.6 298.8,286.6 
			331.1,189.8 		"/>
		<path class="st1" d="M112.9,273.4c11.4-63.6,56.4-115.9,115.9-137.7l-2.7,5c-4.1,6.8,21.8,18.6,24.5,14.1l19.5-33.6
			c1.8-3.2,2.3-7.3,1.4-10.9c-0.9-3.6-3.2-6.8-6.4-8.6l-33.6-19.5c-6.8-4.1-20.9,20.5-14.1,24.5l3.6,1.8
			C151.5,133,98.8,193.9,85.6,268c-6.4,35.9-3.2,72.7,9.5,106.8c2.3,5.9,29.1-2.3,26.4-9.5C110.2,336.6,107.5,304.8,112.9,273.4z"/>
		<path class="st1" d="M426.5,420.2c-40.9,49.1-105.4,72.3-168.6,61.4c-30.4-5.5-59.1-18.6-82.7-38.2h4.5c7.7,0,7.7-28.2,0-28.2H142
			c-3.6-0.5-7.3,0.9-10.5,3.2c-2.7,2.3-4.5,5.9-5,9.5l0,0l0,0c0,0.5,0,0.9,0,1.4l0,0v39.1c0,7.7,28.2,7.7,28.2,0v-5
			c27.7,23.6,61.8,39.5,98.2,45.9c11.8,2.3,24.1,3.2,35.9,3.2c60.9,0,119.5-26.8,159.1-74.1C453.3,432,431.5,413.8,426.5,420.2z"/>
		<path class="st1" d="M497.8,341.1l-4.5,2.7c0-0.9,0.5-1.8,0.5-3.2c9.5-54.5-2.7-109.5-34.5-155s-79.5-75.9-134.1-85.4
			c-7.7-1.4-12.7,26.4-5,27.7c47.3,8.2,88.2,34.5,115.9,73.6c27.3,39.1,38.2,86.8,29.5,133.6l-2.3-3.6c-4.1-6.8-28.2,7.3-24.5,14.1
			l19.5,33.6c1.8,3.2,5,5.5,8.6,6.4c1.4,0.5,2.3,0.5,3.6,0.5c2.3,0,5-0.5,7.3-1.8l33.6-19.5C518.7,361.6,504.7,337,497.8,341.1z"/>
	</g>
</g>
</svg>
