<?xml version="1.0" encoding="utf-8"?>
<!-- Generator: Adobe Illustrator 21.1.0, SVG Export Plug-In . SVG Version: 6.00 Build 0)  -->
<svg version="1.1" id="Layer_1" xmlns="http://www.w3.org/2000/svg" xmlns:xlink="http://www.w3.org/1999/xlink" x="0px" y="0px"
	 viewBox="0 0 595.4 589" style="enable-background:new 0 0 595.4 589;" xml:space="preserve">
<style type="text/css">
	.st0{fill:#FFFFFF;stroke:#EF3D27;stroke-width:4.5537;stroke-miterlimit:10;}
	.st1{fill:#EF3D27;}
</style>
<g id="SUSTAINABLE_AGRICULTURE">
	<path class="st0" d="M536.3,584H60c-27.3,0-49.5-22.3-49.5-49.5V58.7C10.5,31.4,32.8,9.1,60,9.1h475.8c27.3,0,49.5,22.3,49.5,49.5
		v475.8C585.8,561.8,563.6,584,536.3,584z"/>
	<g>
		<path class="st1" d="M501.3,278.2c-1.8,2.3-2.3,5.5-2.3,8.2c0,5,2.3,9.5,6.4,12.3c4.1,2.7,9.1,3.6,14.1,1.8
			c4.5-1.8,8.2-5.5,9.5-10s0.5-10-2.7-13.6c-3.2-3.6-7.7-5.9-12.7-5.9C508.6,271.3,504,274.1,501.3,278.2z"/>
		<path class="st1" d="M405.9,226.4c3.6,1.8,7.7,3.2,11.8,3.2c9.5,0,18.6-5.9,22.7-15c4.1-9.1,2.3-20-4.5-27.3
			c-6.8-7.3-17.3-10-26.8-6.4c-9.1,3.2-15.9,11.8-16.4,21.4C391.8,212.3,397.2,221.8,405.9,226.4z"/>
		<path class="st1" d="M466.3,211.8c9.5,0,19.1-5.5,23.2-14.5c4.5-8.6,3.6-19.5-2.7-27.7c-5.9-7.7-15.9-11.8-25.9-9.5
			c-9.5,1.8-17.3,9.1-20,18.2c-2.7,9.5,0.5,20,7.7,26.4C453.6,209.5,460,211.8,466.3,211.8z"/>
		<path class="st1" d="M528.1,398.6h-0.9l1.4-20.5h8.2c0.9,0,1.8-0.5,2.3-0.9c0.5-0.9,0.9-1.4,0.5-2.3l-10-40.9v-4.5
			c2.7,4.1,4.1,9.1,4.5,14.1c0.5,2.3,2.3,4.1,4.5,4.1c2.3,0,4.1-2.3,4.1-4.5c0-1.4,0-2.7,0-4.1c0-3.2-0.9-6.4-1.8-9.5
			c-0.9-2.7-1.8-5-3.2-7.3c-3.2-5.9-7.7-10.9-13.2-14.5c-1.4-0.9-2.7-1.8-4.1-2.3c-4.1-1.8-9.1-1.8-13.2,0c-0.9,0.5-2.3,0.9-3.2,1.8
			c-1.4,0.9-2.3,1.8-3.6,2.7c-2.7,2.3-5,4.5-7.3,7.3c-3.6,4.5-6.4,10-7.3,15.9c-0.9,3.6-0.9,6.8-0.9,10.5c0,2.3,1.8,4.5,4.5,4.5
			c2.3,0,4.5-1.8,4.5-4.1c0.5-5,1.8-10,4.5-14.1v5l-10,40.4c-0.5,1.8-0.9,3.6,2.7,3.6h8.2l0.9,20.5h-13.6l0.9-18.6
			c-3.6-0.5-2.7-3.6-2.7-3.6l3.6-15l0.5-9.1c-4.5-0.9-7.3-5-7.3-9.5c0-4.1,0.5-8.2,1.4-12.3c0.9-4.1,2.3-8.2,4.5-11.8
			c1.4-2.3,2.7-4.1,4.1-6.4c0-1.8,0-3.6,0-5v-43.6c2.3,4.5,3.6,9.5,5,15c2.7-6.8,8.6-10,16.4-11.4c-1.4-5-3.6-11.4-5.5-16.4
			c-2.7-6.4-6.4-12.3-10.5-17.3c-2.7-3.6-5.9-6.8-9.5-9.5c-1.8-1.4-3.2-2.7-5-4.1c-1.4-0.9-3.2-1.8-5-2.7c-17.3-8.2-30.4,5-30.9,5.5
			c-3.6,3.2-7.3,6.4-10.9,9.5c9.5,6.8,17.7,15.9,23.2,26.4c3.6,6.8,5.9,14.1,7.3,21.4c0.9,5,0.9,10,0.9,15c0,6.8-5.9,12.7-12.7,12.7
			c-0.9,0-2.3,0-3.2-0.5c0,0,9.5,35,10,37.3c0.9,3.2,0.9,9.1-5.9,9.1h-11.8l-0.9,15.9l1.4,29.1h-6.8l2.7-47.3h14.1
			c1.4,0,2.7-0.5,3.6-1.8c0.9-0.9,1.4-2.3,0.9-3.6l-17.3-62.7v-10c2.3,3.6,4.1,8.2,5.5,12.7c0.9,3.6,1.4,6.8,1.8,10.5
			c0.5,3.6,4.1,6.8,7.7,6.8c3.6,0,6.8-3.6,6.8-7.3c0-2.3,0-4.5,0-7.3c0-3.2-0.5-6.4-1.4-9.5c-1.4-6.8-3.6-13.2-7.3-19.1
			c-3.2-5.9-7.7-11.4-12.7-15.9c-2.3-2.3-5-4.5-7.7-6.4c-1.8-1.4-4.1-2.7-6.4-4.1c0,0-0.5,0-0.5-0.5c-6.8-3.2-15-3.2-21.8,0
			c-2.3,0.9-4.5,2.3-6.8,3.6c-2.7,1.8-5,3.6-7.3,5.9c-5,4.5-9.5,10-12.7,15.9c-1.8,2.7-3.2,5.9-4.5,9.1c-1.4,3.2-2.3,6.4-3.2,9.5
			c-0.5,1.4-0.5,2.7-0.5,4.5c-5-2.3-6.8,4.1-7.7,9.5l-1.8-2.7l-25,19.1l7.7,10.5l-22.3-3.2c-0.9-2.7-2.7-4.5-5.5-5.5
			c-0.5,0-0.5-0.5-0.9-0.5h-0.5l0,0l0,0c-2.3,0.5-4.1,3.6-4.5,7.3c0,1.8,0,4.1,0.5,5.5c0.5,1.8,1.8,2.7,3.2,2.7c0.5,0,0.9,0,1.4,0
			c3.2-0.5,5.5-2.3,6.8-5l26.8,3.6l10,12.7l23.2-18.2l-7.3,26.8c-0.5,1.4,0,2.7,0.9,3.6c0.9,0.9,2.3,1.8,3.6,1.8h14.5l2.3,47.3
			H277.7v-17.7c3.2-0.9,7.3-2.3,9.1-4.5c3.2-3.2,4.5-9.1,5-12.3c0-0.5,0-0.9-0.5-1.4c-0.5-0.5-0.9-0.5-1.4-0.5
			c-3.2,0.5-9.1,2.3-12.3,5c-3.2,2.7-5,9.1-5,12.3c0,1.4,0,10.5,0,18.6h-3.6c0-14.1,0-35.4,0-36.4c0-3.2-2.3-9.1-5-12.3
			c-3.2-3.2-9.1-4.5-12.3-5c-0.5,0-0.9,0-1.4,0.5c-0.5,0.5-0.5,0.9-0.5,1.4c0.5,3.2,2.3,9.1,5,12.3c2.3,2.3,5.9,3.6,9.1,4.5v35.4
			h-4.5c0-5.5,0-11.4,0-11.8c0-3.2-2.3-9.1-5-12.3c-3.2-3.2-9.1-4.5-12.3-5c-0.5,0-0.9,0-1.4,0.5c-0.5,0.5-0.5,0.9-0.5,1.4
			c0.5,3.2,2.3,9.1,5,12.3c2.3,2.3,5.9,3.6,9.1,4.5v10.9H230v-65.4c5.5-1.8,12.7-5.5,16.4-10.5c5.5-7.3,7.7-21.8,9.1-29.5
			c0-0.9,0-2.3-0.5-2.7c-0.5-0.9-1.4-0.9-2.3-0.9c-5.5,1.4-16.4,5-21.8,12.3c-5.5,7.3-9.1,21.4-9.1,29.5c0,4.5,0,51.4,0,67.3H215
			c0-22.3,0-106.8,0-110.4c0-7.7-3.6-22.3-9.1-29.5c-5.5-7.3-16.4-10.9-21.8-12.3c-0.9,0-1.4,0-2.3,0.9c-0.5,0.9-0.9,1.8-0.5,2.7
			c0.9,7.7,3.6,22.3,9.1,29.5c3.6,5,10.9,8.6,16.4,10.5v108.2h-8.2c0-13.6,0-49.1,0-50.9c0-7.7-3.6-22.3-9.1-29.5
			c-5.5-7.3-16.4-10.9-21.8-12.3c-0.9,0-1.4,0-2.3,0.9c-0.5,0.9-0.9,1.8-0.5,2.7c0.9,7.7,3.6,22.3,9.1,29.5
			c3.6,5,10.9,8.6,16.4,10.5v48.6h-40.9v-25c5-1.4,11.4-3.6,14.5-6.8c4.5-4.5,7.3-14.5,8.2-19.5c0-0.9,0-1.4-0.5-1.8
			c-0.5-0.5-1.4-0.9-1.8-0.5c-5,0.9-14.5,3.6-19.5,8.2c-4.5,4.5-8.2,14.1-8.2,19.5c0,1.8,0,14.5,0,26.4h-5.9c0-21.8,0-53.2,0-54.5
			c0-5-3.6-14.5-8.2-19.5c-4.5-4.5-14.5-7.3-19.5-8.2c-0.9,0-1.4,0-1.8,0.5c-0.5,0.5-0.9,1.4-0.5,1.8c0.9,5,3.6,14.5,8.2,19.5
			c3.6,3.6,9.5,5.5,14.5,6.8v53.2h-7.3c0-7.7,0-15,0-15.5c0-5-3.6-14.5-8.2-19.5c-4.5-4.5-14.5-7.3-19.5-8.2c-0.9,0-1.4,0-1.8,0.5
			c-0.5,0.5-0.9,1.4-0.5,1.8c0.9,5,3.6,14.5,8.2,19.5c3.6,3.6,9.5,5.5,14.5,6.8v14.1H68.7c-9.1,0-16.4,7.3-16.4,16.4v1.8
			c0,9.1,7.3,16.4,16.4,16.4h459.9c9.1,0,16.4-7.3,16.4-16.4v-1.8C544,405.9,536.8,398.6,528.1,398.6z M314.1,323.6
			c-0.5,0-0.9-0.5-0.9-1.4c-0.5-1.4-0.5-2.7-0.5-4.5c0.5-2.7,1.4-4.5,2.3-5.5l0,0L314.1,323.6z M365,294.5c0-1.4,0.5-2.7,0.5-4.1
			c0.5-1.8,0.9-3.6,1.8-5.5c0.9-1.4,1.8-1.4,3.2-0.5c0,0.9-0.5,2.3-0.5,3.2c-0.5,2.7,0,5.5,0,7.7l0,0c0,3.6,2.7,6.8,6.4,7.3
			c-0.5,1.4-0.5,2.7-0.9,4.5L365,294.5z M391.8,282.3l-9.5,34.5l-5.9-7.7c0.5-2.3,1.4-4.1,1.4-6.4c3.2-0.5,5.9-3.2,6.4-6.4
			c0.5-3.6,0.9-6.8,1.8-10.5c1.4-4.5,3.2-9.1,5.5-12.7L391.8,282.3L391.8,282.3z M513.6,377.7L513.6,377.7l1.4,20.5h-2.7
			L513.6,377.7z M466.3,343.6l2.3,55h-5L466.3,343.6z M416.3,351.3h0.9l2.3,47.3h-5.5L416.3,351.3z"/>
		<path class="st1" d="M360,287.7c0,0-14.1,0.5-19.5,7.7c-5.5,7.3-8.6,6.8-8.6,6.8l3.6,4.5L360,287.7z"/>
		<path class="st1" d="M305.9,342.2c0.9,0,1.4-0.5,1.4-1.4c0-0.9-1.4-2.3-1.4-2.3s-1.4,1.8-1.4,2.3
			C304.5,341.8,305.4,342.2,305.9,342.2z"/>
		<path class="st1" d="M316.8,346.3c1.4,0,2.7-1.4,2.7-2.7c0-1.4-2.7-4.5-2.7-4.5s-2.7,2.7-2.7,4.5S315.4,346.3,316.8,346.3z"/>
		<path class="st1" d="M310,332.7c0,1.4,0.9,2.3,2.3,2.3c1.4,0,2.3-0.9,2.3-2.3s-2.3-4.1-2.3-4.1S310,331.3,310,332.7z"/>
	</g>
</g>
</svg>
