<?xml version="1.0" encoding="utf-8"?>
<!-- Generator: Adobe Illustrator 21.1.0, SVG Export Plug-In . SVG Version: 6.00 Build 0)  -->
<svg version="1.1" id="Layer_1" xmlns="http://www.w3.org/2000/svg" xmlns:xlink="http://www.w3.org/1999/xlink" x="0px" y="0px"
	 viewBox="0 0 595.4 595" style="enable-background:new 0 0 595.4 595;" xml:space="preserve">
<style type="text/css">
	.st0{fill:#FFFFFF;stroke:#EF3D27;stroke-width:4.5537;stroke-miterlimit:10;}
	.st1{fill:#EF3D27;}
</style>
<g id="URBAN_ENVIRONMENT">
	<path class="st0" d="M535.6,585.1H59.7c-27.3,0-49.5-22.3-49.5-49.5V59.8c0-27.3,22.3-49.5,49.5-49.5h475.8
		c27.3,0,49.5,22.3,49.5,49.5v475.8C585.5,562.9,562.8,585.1,535.6,585.1z"/>
	<path class="st1" d="M532.8,267.9l-224-172.2c-6.4-5-15.5-5-21.8,0l-224,172.2c-7.7,5.9-9.1,17.3-3.2,25c5.9,7.7,17.3,9.1,25,3.2
		l19.5-15v204.1c0,10,8.2,17.7,17.7,17.7h348.6c10,0,17.7-8.2,17.7-17.7V279.3l21.8,16.8c3.2,2.7,7.3,3.6,10.9,3.6
		c5.5,0,10.9-2.3,14.1-6.8C541.9,285.2,540.6,273.8,532.8,267.9z M308.8,421.5c5,3.6,7.3,5.9,8.6,7.3c0.9,0,2.3,0.5,2.7,0.5
		c1.4,0,2.7,0.5,3.6,0.9c3.2,1.8,6.4,3.6,8.2,6.8c1.4,0.9,3.6,1.8,5,2.3c0.9,0,1.8-0.5,2.7-0.5c7.3,0,15,6.4,18.6,11.4
		c0.9,0,1.8-0.5,2.3-0.9c1.4-0.9,3.2-1.8,5.5-1.8c3.2,0,6.8,0,25.9,19.5c2.7,2.7,3.2,6.4,1.8,9.5c-1.4,3.2-4.5,5.5-8.2,5.5H209.7
		c-3.6,0-6.8-2.3-8.2-5.5s-0.5-7.3,1.8-9.5c19.1-19.5,22.7-19.5,25.9-19.5c1.8,0,3.6,0.5,5.5,1.8c0.5,0,1.4,0.5,2.3,0.9
		c4.1-5,11.4-11.4,18.6-11.4c0.9,0,1.8,0,2.7,0.5c1.4-0.5,3.6-1.4,5-2.3c1.8-2.7,5-5,8.2-6.8c0.9-0.5,2.3-0.9,3.6-0.9
		c0.9,0,2.3-0.5,2.7-0.5c1.4-1.4,3.6-3.6,8.6-7.3c0.5-0.5,1.4-0.9,1.8-1.4v-55.9c0-8.2-5.9-16.4-17.3-23.6
		c-4.1,3.2-11.4,7.3-21.4,7.3c-12.3,0-24.1-5.9-36.4-18.2c-32.7-32.7-27.7-71.8-27.7-73.6c0.5-4.1,3.6-7.3,7.7-7.7
		c0.5,0,2.7-0.5,6.8-0.5c11.8,0,41.4,2.7,66.8,27.7c12.7,12.7,18.6,25.5,18.2,37.7c0,5-1.4,9.1-3.2,12.7c5.9,4.1,10.9,8.6,15,13.6
		c3.6-4.5,8.2-8.6,13.6-12.7c-1.8-3.6-3.2-8.2-3.6-13.6c-0.5-12.7,5.5-25.5,18.2-37.7c25-25,55-27.7,66.8-27.7
		c4.1,0,6.8,0.5,6.8,0.5c4.1,0.5,7.3,3.6,7.7,7.7c0,1.8,5,41.4-27.7,73.6c-11.8,11.8-24.1,18.2-36.4,18.2c-9.5,0-16.4-3.6-20.5-6.8
		c-10.5,7.3-16.4,15-16.4,22.7v55.9C307.9,421.1,308.3,421.1,308.8,421.5z"/>
</g>
</svg>
