<?xml version="1.0" encoding="utf-8"?>
<!-- Generator: Adobe Illustrator 21.1.0, SVG Export Plug-In . SVG Version: 6.00 Build 0)  -->
<svg version="1.1" id="Layer_1" xmlns="http://www.w3.org/2000/svg" xmlns:xlink="http://www.w3.org/1999/xlink" x="0px" y="0px"
	 viewBox="0 0 595.4 598" style="enable-background:new 0 0 595.4 598;" xml:space="preserve">
<style type="text/css">
	.st0{fill:#FFFFFF;stroke:#EF3D27;stroke-width:4.5537;stroke-miterlimit:10;}
	.st1{fill:#EF3D27;}
	.st2{fill:#FFFFFF;}
	.st3{clip-path:url(#SVGID_2_);fill:#EF3D27;}
	.st4{clip-path:url(#SVGID_4_);fill:#EF3D27;}
</style>
<g id="URBAN_AGRICULTURE">
	<path class="st0" d="M535.3,584.9H59.4c-27.3,0-49.5-22.3-49.5-49.5V59.6C9.9,32.3,32.2,10,59.4,10h475.8
		c27.3,0,49.5,22.3,49.5,49.5v475.8C584.8,562.7,562.5,584.9,535.3,584.9z"/>
	<g>
		<path class="st1" d="M530.3,479.5h-9.1V235.9c0-2.3-1.4-4.1-3.6-4.5l-213.1-58.2c-2.3-0.5-3.6-2.7-3.6-4.5v-46.4
			c0-21.8-50.9-40-113.6-40S73.5,100,73.5,122.3v357.7h-9.1c-2.7,0-5,2.3-5,5v16.4c0,2.7,2.3,5,5,5h465.8c2.7,0,5-2.3,5-5v-16.4
			C535.3,481.8,533,479.5,530.3,479.5L530.3,479.5z"/>
		<g>
			<path class="st2" d="M106.2,396.3c-7.3,2.3-14.1,5-20,7.7c-1.8,0.9-2.7,2.7-2.7,4.5v21.4c0,3.6,3.6,5.9,6.8,4.5
				c5.5-2.3,11.8-4.5,18.6-6.4c2.3-0.5,3.6-2.7,3.6-4.5v-22.3C112.2,397.7,109,395.4,106.2,396.3z"/>
			<path class="st2" d="M106.2,344.1c-7.3,2.3-14.1,5-20,7.7c-1.8,0.9-2.7,2.7-2.7,4.5v21.4c0,3.6,3.6,5.9,6.8,4.5
				c5.5-2.3,11.8-4.5,18.6-6.4c2.3-0.5,3.6-2.7,3.6-4.5v-22.3C112.2,345.4,109,343.1,106.2,344.1z"/>
			<path class="st2" d="M106.2,291.8c-7.3,2.3-14.1,5-20,7.7c-1.8,0.9-2.7,2.7-2.7,4.5v21.4c0,3.6,3.6,5.9,6.8,4.5
				c5.5-2.3,11.8-4.5,18.6-6.4c2.3-0.5,3.6-2.7,3.6-4.5v-22.3C112.2,293.2,109,290.9,106.2,291.8z"/>
			<path class="st2" d="M106.2,239.5c-7.3,2.3-14.1,5-20,7.7c-1.8,0.9-2.7,2.7-2.7,4.5v21.4c0,3.6,3.6,5.9,6.8,4.5
				c5.5-2.3,11.8-4.5,18.6-6.4c2.3-0.5,3.6-2.7,3.6-4.5v-22.3C112.2,240.9,109,238.2,106.2,239.5z"/>
			<path class="st2" d="M106.2,186.8c-7.3,2.3-14.1,5-20,7.7c-1.8,0.9-2.7,2.7-2.7,4.5v21.4c0,3.6,3.6,5.9,6.8,4.5
				c5.5-2.3,11.8-4.5,18.6-6.4c2.3-0.5,3.6-2.7,3.6-4.5v-22.3C112.2,188.6,109,185.9,106.2,186.8z"/>
			<path class="st2" d="M106.2,134.5c-7.3,2.3-14.1,5-20,7.7c-1.8,0.9-2.7,2.7-2.7,4.5v21.4c0,3.6,3.6,5.9,6.8,4.5
				c5.5-2.3,11.8-4.5,18.6-6.4c2.3-0.5,3.6-2.7,3.6-4.5v-22.3C112.2,135.9,109,133.6,106.2,134.5z"/>
			<path class="st2" d="M175.8,385.9c-16.8,0.5-32.7,2.3-47.3,5c-2.3,0.5-4.1,2.3-4.1,5v22.3c0,3.2,2.7,5.5,5.9,5
				c14.1-2.3,29.1-4.1,45.4-4.5c2.7,0,4.5-2.3,4.5-5v-22.7C180.8,388.1,178.5,385.9,175.8,385.9z"/>
			<path class="st2" d="M175.8,333.6c-16.8,0.5-32.7,2.3-47.3,5c-2.3,0.5-4.1,2.3-4.1,5v22.3c0,3.2,2.7,5.5,5.9,5
				c14.1-2.3,29.1-4.1,45.4-4.5c2.7,0,4.5-2.3,4.5-5v-22.7C180.8,335.9,178.5,333.6,175.8,333.6z"/>
			<path class="st2" d="M175.8,281.3c-16.8,0.5-32.7,2.3-47.3,5c-2.3,0.5-4.1,2.3-4.1,5v22.3c0,3.2,2.7,5.5,5.9,5
				c14.1-2.3,29.1-4.1,45.4-4.5c2.7,0,4.5-2.3,4.5-5v-22.7C180.8,283.6,178.5,281.3,175.8,281.3z"/>
			<path class="st2" d="M175.8,229.1c-16.8,0.5-32.7,2.3-47.3,5c-2.3,0.5-4.1,2.3-4.1,5v22.3c0,3.2,2.7,5.5,5.9,5
				c14.1-2.3,29.1-4.1,45.4-4.5c2.7,0,4.5-2.3,4.5-5v-22.7C180.8,230.9,178.5,229.1,175.8,229.1z"/>
			<path class="st2" d="M175.8,176.8c-16.8,0.5-32.7,2.3-47.3,5c-2.3,0.5-4.1,2.3-4.1,5v22.3c0,3.2,2.7,5.5,5.9,5
				c14.1-2.3,29.1-4.1,45.4-4.5c2.7,0,4.5-2.3,4.5-5v-22.7C180.8,178.6,178.5,176.8,175.8,176.8z"/>
			<path class="st2" d="M175.8,124.5c-16.8,0.5-32.7,2.3-47.3,5c-2.3,0.5-4.1,2.3-4.1,5v22.3c0,3.2,2.7,5.5,5.9,5
				c14.1-2.3,29.1-4.1,45.4-4.5c2.7,0,4.5-2.3,4.5-5v-22.7C180.8,126.4,178.5,124.1,175.8,124.5z"/>
			<path class="st2" d="M288,142.3c-5.9-2.7-12.3-5.5-20-7.7c-3.2-0.9-6.4,1.4-6.4,4.5v22.3c0,2.3,1.4,4.1,3.6,4.5
				c6.8,1.8,13.2,4.1,18.6,6.4c3.2,1.4,6.8-0.9,6.8-4.5v-21.4C290.8,145,289.4,143.2,288,142.3z"/>
			<path class="st2" d="M245.3,390.9c-14.1-2.7-30-4.5-47.3-5c-2.7,0-5,2.3-5,5v22.7c0,2.7,2.3,5,4.5,5c16.4,0.5,31.8,2.3,45.4,4.5
				c3.2,0.5,5.9-1.8,5.9-5v-22.3C249.4,393.1,247.6,391.3,245.3,390.9z"/>
			<path class="st2" d="M245.3,338.6c-14.1-2.7-30-4.5-47.3-5c-2.7,0-5,2.3-5,5v22.7c0,2.7,2.3,5,4.5,5c16.4,0.5,31.8,2.3,45.4,4.5
				c3.2,0.5,5.9-1.8,5.9-5v-22.3C249.4,340.9,247.6,339.1,245.3,338.6z"/>
			<path class="st2" d="M245.3,286.3c-14.1-2.7-30-4.5-47.3-5c-2.7,0-5,2.3-5,5v22.7c0,2.7,2.3,5,4.5,5c16.4,0.5,31.8,2.3,45.4,4.5
				c3.2,0.5,5.9-1.8,5.9-5v-22.3C249.4,288.6,247.6,286.8,245.3,286.3z"/>
			<path class="st2" d="M245.3,234.1c-14.1-2.7-30-4.5-47.3-5c-2.7,0-5,2.3-5,5v22.7c0,2.7,2.3,5,4.5,5c16.4,0.5,31.8,2.3,45.4,4.5
				c3.2,0.5,5.9-1.8,5.9-5v-22.3C249.4,236.3,247.6,234.5,245.3,234.1z"/>
			<path class="st2" d="M245.3,181.4c-14.1-2.7-30-4.5-47.3-5c-2.7,0-5,2.3-5,5v22.7c0,2.7,2.3,5,4.5,5c16.4,0.5,31.8,2.3,45.4,4.5
				c3.2,0.5,5.9-1.8,5.9-5v-22.3C249.4,184.1,247.6,181.8,245.3,181.4z"/>
			<path class="st2" d="M245.3,129.1c-14.1-2.7-30-4.5-47.3-5c-2.7,0-5,2.3-5,5v22.7c0,2.7,2.3,5,4.5,5c16.4,0.5,31.8,2.3,45.4,4.5
				c3.2,0.5,5.9-1.8,5.9-5v-22.3C249.4,131.8,247.6,129.5,245.3,129.1z"/>
			<path class="st2" d="M288,194.5c-5.9-2.7-12.3-5.5-20-7.7c-3.2-0.9-6.4,1.4-6.4,4.5v22.3c0,2.3,1.4,4.1,3.6,4.5
				c6.8,1.8,13.2,4.1,18.6,6.4c3.2,1.4,6.8-0.9,6.8-4.5v-21.4C290.8,197.3,289.4,195.4,288,194.5z"/>
		</g>
		<g>
			<g>
				<circle class="st2" cx="374.4" cy="363.6" r="70.4"/>
				<path class="st2" d="M416.2,350.9c-1.4-1.4-3.6-1.4-5,0l-30.4,30.4V340c0-3.6-3.2-6.8-6.8-6.8c-3.6,0-6.8,3.2-6.8,6.8V394
					L338,365c-1.4-1.4-3.6-1.4-5,0c-1.4,1.4-1.4,3.6,0,5l34.1,34.1v101.3c0,3.6,3.2,6.8,6.8,6.8c3.6,0,6.8-3.2,6.8-6.8V390.9
					l35.4-35.4C417.6,354.5,417.6,352.2,416.2,350.9z"/>
				<g>
					<g>
						<g>
							<defs>
								<circle id="SVGID_1_" cx="374.4" cy="363.6" r="70.4"/>
							</defs>
							<clipPath id="SVGID_2_">
								<use xlink:href="#SVGID_1_"  style="overflow:visible;"/>
							</clipPath>
							<path class="st3" d="M416.2,350.9c-1.4-1.4-3.6-1.4-5,0l-30.4,30.4V340c0-3.6-3.2-6.8-6.8-6.8c-3.6,0-6.8,3.2-6.8,6.8V394
								L338,365c-1.4-1.4-3.6-1.4-5,0c-1.4,1.4-1.4,3.6,0,5l34.1,34.1v101.3c0,3.6,3.2,6.8,6.8,6.8c3.6,0,6.8-3.2,6.8-6.8V390.9
								l35.4-35.4C417.6,354.5,417.6,352.2,416.2,350.9z"/>
						</g>
					</g>
				</g>
			</g>
		</g>
		<g>
			<g>
				<circle class="st2" cx="459.4" cy="407.7" r="50"/>
				<path class="st2" d="M488.5,398.6c-0.9-0.9-2.3-0.9-3.6,0l-21.4,21.4v-29.1c0-2.7-2.3-5-5-5c-2.7,0-5,2.3-5,5V429L433,408.6
					c-0.9-0.9-2.3-0.9-3.6,0c-1.4,0.9-0.9,2.3,0,3.6l24.1,24.1v71.4c0,2.7,2.3,5,5,5c2.7,0,5-2.3,5-5v-80.4l25-25
					C489.4,400.9,489.4,399.5,488.5,398.6z"/>
				<g>
					<g>
						<g>
							<defs>
								<circle id="SVGID_3_" cx="459.4" cy="407.7" r="50"/>
							</defs>
							<clipPath id="SVGID_4_">
								<use xlink:href="#SVGID_3_"  style="overflow:visible;"/>
							</clipPath>
							<path class="st4" d="M488.5,398.6c-0.9-0.9-2.3-0.9-3.6,0l-21.4,21.4v-29.1c0-2.7-2.3-5-5-5c-2.7,0-5,2.3-5,5V429L433,408.6
								c-0.9-0.9-2.3-0.9-3.6,0c-1.4,0.9-0.9,2.3,0,3.6l24.1,24.1v71.4c0,2.7,2.3,5,5,5c2.7,0,5-2.3,5-5v-80.4l25-25
								C489.4,400.9,489.4,399.5,488.5,398.6z"/>
						</g>
					</g>
				</g>
			</g>
		</g>
	</g>
</g>
</svg>
