<?xml version="1.0" encoding="utf-8"?>
<!-- Generator: Adobe Illustrator 21.1.0, SVG Export Plug-In . SVG Version: 6.00 Build 0)  -->
<svg version="1.1" id="Layer_1" xmlns="http://www.w3.org/2000/svg" xmlns:xlink="http://www.w3.org/1999/xlink" x="0px" y="0px"
	 viewBox="0 0 1080 1868.3" style="enable-background:new 0 0 1080 1868.3;" xml:space="preserve">
<style type="text/css">
	.st0{fill:#FF331A;}
</style>
<g id="PH_MAP">
	<path id="PH-SUR" class="st0" d="M994.9,1306.5l3.4,2.4l1.1,0.5l-1.4,1.3l-2.6-0.7l-2.8,1.7l-0.1,1.8l2.5,2.6l1.5-0.7l1.8,3.4
		l3.1-1.4l-0.5-1.8l1.8-1.1l-0.1,2.6l-1.9,1.3l1.8,3.3l3.7,7.7l-1.4,0.1l4.6,3.7l7.7-2.5l5.4-5.7l4.3,0.1l-1.8,2.1l0.7,1.9l-2.6,7.5
		l0.6,4.6l-2.2,6.3l3.4,3.2l0.8-1.7l4.4,7.6l4.3,4.4l1.4,0.5l2,2.2l0.4,2.4l-2.1,0.9l3.8,0.8l-2,4.1l3.1,4.4l-2.1,0.4l1.3,1.3
		l-3,2.1l0.4,2.4l-5.3,1.2l-1.8,1.2l-0.1,2.5l-2.7,0.9v2.2l3.6,1.8l-6.3-0.2l-9,5.2l-2.4,4.3l4.6,3.2l-1.3,1.9l3.2,3.9l2.1-0.1
		l-0.4-1.2l6.5,2l0.7-1.1l-4.3-1.9l2.4-0.9l5.8,0.8l3,2.4l2.7-1.1l2.6,0.9l1.8-2l1.1,1.3l-1.2,2l4.3,0.2l0.6,2.6l-1.4,1.1l1.5,1.7
		l-3.8-0.5l-1.7,4.7l2.8-0.2l0.7,2.4l-2.6,4.5l-4.1,1.4l2,2.5l-1.2,0.5l0.4,1.8l5,0.5l1.5,2l-8.2,7l3.2,4.9l5.1-2.1l5.4-4.7l1.8,0.2
		l-3.1,14.4l2.6,1.5l-4,4.7l0.8,4.5l-1.8,0.5l1.1,2.7l3.7-0.4l-4.7,3.8h-2.4l-3,4.9l0,0l-1.1-9.9l0,0l-0.6-5.6l-5-1.5l6.5-6.4
		l-7.2,0.7l-6.6-6.4l-2.8-0.4l1.5-5.7l5.6-6.3h2.1v-2.6l-2.6-3.2l1.3-7l-2.2,3.2l-8.8,0.6l-8.9-1.1l-4.3-4.1l5.3-5.9l-7.2,0.7
		l-1.9-11.5l-2.7-0.2l-0.2-1.5l-0.6-7l2.6-1.8l-0.4-1.3l-4.7-7.1l-2.5-8.6l-5.3-6.2l-2.2-21.4l-4.7-8.3l-8.6-10.1l0,0l-0.8-9.8l0,0
		l18.6-18.8l0,0L994.9,1306.5L994.9,1306.5z"/>
	<path id="PH-TAR" class="st0" d="M414.6,598l4.5,19.1l4.7,5l6.3,1.7l-3.6,6.3l4.7,14.8l-2.5,4l-0.4,5l4.6,3.6l-1.1,4.4l0,0
		l-3.1,0.5l-0.4-1.9l-4.6,2.6l-4.5-1.5l-2.1,1.4h-7.1L390,673.4l-2-0.4l0,0l-3.7-7.2l-5.7-6.4l-13.4-8l2.5-16.6l3.9-7.7l4.5-2.6
		l-1.1-2.1l0,0l7.7-3.6l-0.8-2l3.8-3.3l0.7-3.7l3.7-4l9.7,4l7.3-4.6l4.4-13.4L414.6,598z"/>
	<path id="PH-TAW" class="st0" d="M284.2,1822.4l-2.1,10.7l-0.8-3.8l1.5-2.8l-2.1-1.8l3.7-4.7L284.2,1822.4z M328.6,1816l4.5,3.1
		l-5.7-0.2l-0.8-2.1L328.6,1816L328.6,1816z M288.1,1806.1l4.3,8.5l1.3,8.2l-2.7,10.1l-2.5,2.8l0.7-16.2l-2.2-12.2L288.1,1806.1
		L288.1,1806.1z M326,1804.9l5.4,2.8v3.8l-5.4,0.8l-1.5-6.4L326,1804.9z M349.6,1795.7l-1.3,5.2l-2.1,0.5l0.4-5.3L349.6,1795.7
		L349.6,1795.7z M323.2,1793.3l-0.6,2l-3.9-0.4l0.5-2.1L323.2,1793.3L323.2,1793.3z M360.9,1793.5l1.7,1.1l-0.4,1.8l-3.9-3.1
		L360.9,1793.5L360.9,1793.5z M372,1794l-1.1,1.1l-3.2-0.8l2.6-2.4l2.1,1.2L372,1794L372,1794z M326.8,1783.7l0.8,6.5l-1.8,0.8
		l-1.2-1.4l-0.6,2.5l-4.7,0.7l3-6.9L326.8,1783.7L326.8,1783.7z M381.5,1783.2l0.9,2.2l-1.8,1.3l-3.9-0.2L381.5,1783.2L381.5,1783.2
		z M385.4,1780.6l-0.8,3l-1.7-0.6l0.2-3.3l1.8-0.7L385.4,1780.6L385.4,1780.6z M381.5,1775.4l-3.9,2.2l-0.7-1.5l-2.4,0.5l2.5-7.9
		l4.3,3.7L381.5,1775.4L381.5,1775.4z M387.1,1768.6l-2.4,8l-0.9-4.4L387.1,1768.6z M370.6,1758.6l0.5,5.2l4.3,2.8l-2.6,4.6l0.9,5.6
		l-2.2,3.8l0.5,2.5l-6.3-2.2l3-4.3l-2.6-1.1l-1.3,3.3l-3.9-2.5l-2.7,3.9l-1.2-1.1l-1.3-0.8l-1.7,0.6l-0.2-1.9l-1.9-0.1l-4.9,2.8
		l0.5,2.6l-0.9,0.9l-3.3,5l-3.3-1.2l-4.5,2.6l-0.9,0.5l-2.2,1.3l-4.4-0.9l0.5-6l-1.5-1.5l2.1-2.6l3,0.4l9.2-4.6l4.1-5.3l5.4,0.6
		l4.4-4.1l0.8-1.1l10.3-6.9L370.6,1758.6L370.6,1758.6z M382.2,1754.6l1.9,0.5l-2.5,1.9l-2.6-0.7L382.2,1754.6z M412.6,1752.9
		l-2.6-1.3l1.1-2.7l3,2.5L412.6,1752.9z M184.2,1572.8l2.2,2.2l-1.9,3.9l2.8,3.1l-11.5-2.7l-0.1-2l-2.4-1.4l5-1.8l2.6,0.8
		L184.2,1572.8z"/>
	<path id="PH-ZMB" class="st0" d="M335.3,600.9l2.7,1.4l4-1.8l1.1,2h3.4l4.1-6l6.2,3.9l7-1.4l4,11l7.5,12.2l0,0l1.1,2.1l-4.5,2.6
		l-3.9,7.7l-2.5,16.6l13.4,8l5.7,6.4l3.7,7.2l0,0l-1.4,3.6l0.8,3.4l4.3,3.1l1.9,3.9l-0.2,5.9l3.4,3.1l1.1,3.8l0,0l-2.7,5.3l-6.5-1.1
		l-1.9,4.7l-6,4.7l-0.8,0.6l0.2-1.8l-2.8-0.5l-0.5-2.8l-2.6-0.1l-2.1-3.4l-2.5,1.4l1.4,5.6l-3.9,8.5l-6.9-2.4l2.1-0.5l-1.7-1.9
		l-4-0.5l3-3.9l-3.3,0.9l0.5-4.5h-1.4l0.1-2.8l-2.1-2l1.5-13.5l-1.3-9.6l-4.6-14.9l0.5-3.7l-3-3.7l-2.6-3l0.1-2.4l-4.1-4.4l0.9-0.6
		l-3.6-1.1l0.2-1.9l-1.9-1.5l3-2l-1.8-2.6l0.5-2.5l1.5,1.9l2.6-0.1l0.4-2.1l2.4-1.2l-3.4-5.3l1.3-1.9l-2.2,0.1l0.1,1.8l-1.3-0.5
		l0.9-4l-2.2-3l2.4-2.5l0.9-5.6l-1.9-1.5l-1.8,0.6l-3.4-3.8l4.5-2.2L335.3,600.9L335.3,600.9z"/>
	<path id="PH-ZAN" class="st0" d="M718.5,1388.9l4.7,1.2l1.7,3.6l5.4-2l0.7,2l-2.5,2.7l0.4,1.5l2.6,2.2l2.4-1.2l0.1,1.3l2-0.2l0,0
		l-0.6,44.6l0,0l-18.3,0.1l-3.7-1.9l-16.1-0.8l-0.8,14.7l-2.8,6v6l-9.7-0.2l-12.7,9.2l-5.1-0.5l0,0l-17.8-2.7l-9.9,1.5l-12.2,5.7
		l-10.9,9.1l-10.3,5l-9,13.3l-5.1,10.8l-1.2,7.6l0,0l-5.4,10.5l-0.4,9.9l-2.2,6l-8,7.7l-18.7,0.4l0,0l7.9-11.2l3.7-1.4l0.6-1.9
		l5.6-1.7l0.2-2l-3.1-1.4l-0.8-3.6l3-4.6l-0.2-5.1l3.9-5.4l-1.8-3l3.1-0.1l4.5-5.4l-0.8-1.7l-1.4,0.8l-1.9-1.7l3.2-4.7l0.1-3.1l-2-6
		l-3.4-1.5l2-2.8l0.9,1.5l1.4-0.9l-0.5-2.2l0.2-2.6l2.2-0.6l2-5.8l7.2-5.4v-5.7l13-8.5l12.8-3.7l5.3,0.8l8-2l5-3.3l3.6-5.4l2.7,4.5
		l3.7,0.9l10.2-0.9l5.1-2.8h5.8l9.1-7.5l-0.1-3.9l-3.1-1.2l-3.3-5.1l5.1-2.2l-0.4-9.5l3.1-1.5l2.5-6.9l3.6-2.7l13-1.9l9.5,2.4
		l3.3-0.8l3.4-4.7l2.1-7.9l2.2-0.9l2.4,2l2.4-0.9l0.6-3.2l-2.5-1.4l-0.5-0.9l-1.7-2.2v-2.4L718.5,1388.9L718.5,1388.9z"/>
	<path id="PH-ZSI" class="st0" d="M595.9,1578.4l0.9,1.1l-0.7,3.4l-4.7-0.8l0.7,1.5l-4.1,3.4l1.7-4.1l-0.8-1.1l1.8-2.2l2,0.9
		L595.9,1578.4L595.9,1578.4z M668.8,1534.3l1.1-0.8l-1.8-2l-3.4-1.5l-1.3,1.5l0.5,5.3l-1.4,1.1l-4.5-7.2l-3.8,1.3l-1.7,8.4l2.4,0.9
		l-0.5,4.5l2.8,2.1l1.8-3.4l5.8-1.3l2.1-3.2l3.4,1.1l-2.7-3.6l5.6,0.9L668.8,1534.3L668.8,1534.3z M685,1489.5l-18.6-2.4v-9.5
		l-17.8-2.7l-9.9,1.5l-12.2,5.7l-10.9,9.1l-10.3,5l-9,13.3l-5.1,10.8l-1.2,7.6l-5.4,10.5l-0.4,9.9l-2.2,6l-8,7.7l-18.7,0.4l-0.5,7.6
		l4.4,12.3l18.6,8.4l4.6-2.1l0.7-1.8l3.1-3.2l3-9.2l0.1-1.3l-0.8-2.2l5.7-4.6l-0.1-2l-1.7-0.2l2.1-3.1l-1.4-3.3l2-0.6l-0.2-1.1
		l0.5-2.6l1.4-0.5l1.2-9.8l3.1-1.7l1.2,0.8l-0.4,2.5l1.7-0.7l5.8-8.4l-5.3-0.7l1.4-7.2l-0.1-0.2l5.2-2.7l2-1.5l2.8-3.3l2-0.5l2,0.1
		l0.2-2.6l2-1.9l-5.9,1.3l-1.9-0.5l-0.2-1.8l6.4-4.9l-0.8-2.2l3-4.1l1.8-0.2l1.9-4.6l8.4-2.6l0.5-1.9l1.8,0.6l1.9-2l1.5,2.5l2.2-2.5
		l2.8,0.5l2.8,3.8l2.5-1.4l4.9,1.9l0.8,3.4l-2.1-1.4l-0.4,2.4l-1.7,3.2l1.5,4l-1.1,2.6l0.2,2.5l2.5,1.3l1.2,4.4l-1.2,1.9l-1.4-2.6
		l-1.1,0.7l-0.9,5.7l0.2,1.8l2.1-2l2,1.2l-0.4,4.9l2-1.3l1.1,1.2l3.6-3.2v-2.4l-2-0.9l3.1-1.5l0.5-3.4l1.5-0.5l1.9,0.8l3.2,6.3
		l2.5-0.8l2.1,3.2l1.3-2.4l-0.8-2.2l4.3-8.6l-0.9-5.2h3.4l-0.5-3l0.7-0.8l0.1-2.1l2.5,0.4l1.4-3.1L685,1489.5L685,1489.5z"/>
	<path id="PH-ABR" class="st0" d="M449,354.2l6.5,4.4l2.5,11l6.2-0.5l3.7,2.7l2.5,16l0,0l-3.4,2l3.1,8.9l-1.1,3.2l-12.3,7.9
		l-0.4,9.5l-8.8,18.3l0,0v3.9l-1.9,2.6l-4.3,0.2l0,0h-6.5l-4.6,3.4l-6.7-0.4l-3-3.8l1.5-0.6l0.1-6.5l-7.5-6.3l-6.2,0.4l-2.1-5.7
		l4.4-8.3l0.7-5.2l-6.6-2.7l-4.6,2.1l-1.7-2.4l2.2-5l1.7-10.8l3.6-7.3l0,0l5.1-10.9l11.8-4l4.1-6.6l6-2.1l5.4-5.6l8.4,1.1L449,354.2
		z"/>
	<path id="PH-AGN" class="st0" d="M944,1310.4l4-1.8l7.9-0.2l13.6,2.5l5.9,5l0.8,7.3l0,0l0.8,9.8l0,0l1.3,7.8l-2.2,9.9l-5.6,9.7
		l-2.8,8.4l0.1,4.7l-3.4,6.2l3.8,12.2l-19.4-0.2l-6.5,4.5l-21.3,0.1l0,0l-1.2-21.5l2.6-2.1l-4-5.4l1.9-3.7l-3.3-14.9l0,0l1.5,0.6
		l1.9,6.2l4.6,4.3l5.7,0.1l0.1,2.4l0.9-2.2l9.5,1.5l10.1-4.4l-0.9-1.3l2.6-4.9l-1.8-7.7l1.2-5.8l-2.8-5.6v-5.6l-4.7-9.8L944,1310.4z
		"/>
	<path id="PH-AGS" class="st0" d="M977,1332.9l8.6,10.1l4.7,8.3l2.1,21.4l5.3,6.2l2.5,8.6l4.7,7.1l0.4,1.3l-2.6,1.8l0.6,7l0.2,1.7
		l2.7,0.2l1.9,11.5l7.2-0.7l-5.3,5.9l4.3,4.1l8.9,1.1l8.8-0.6l2.2-3.2l-1.3,7l2.6,3.2v2.6h-2.1l-5.6,6.3l-1.5,5.7l2.8,0.4l6.6,6.4
		l7.2-0.7l-6.5,6.4l5,1.5l0.6,5.6l0,0l-20.6,0.1l0,0l-10.3,4.5l-2.5,2.6l-5.2-3.1l-1.9-3.9h-33.4l0,0l-32.1,1.4l0,0l-0.7-4.4
		l1.4-5.7l-2.1-2.5l0.5-5.8l-2.1-4.6l1.2-4.6l-2.1-1.5l-1.4-5.4l-5.8-4l-1.8-3.7l-1.9-23.2l0,0l-0.2-8.5l0,0l21.3-0.1l6.5-4.5
		l19.4,0.2l-3.8-12.2l3.4-6.2l-0.1-4.7l2.8-8.4l5.6-9.7l2.2-9.9L977,1332.9z"/>
	<path id="PH-AKL" class="st0" d="M561.7,1034.2l13.4,11l9.1,1.3l3.8,2l2.7-0.7l1.8,3l2.1-0.9l5.6,6.6l3.4-0.2l2.5-0.1l-0.9,3
		l3.1-1.7l3.8,6.5l8.4,6.9l-1.4,1.2l-7.3-7.3l-3,1.2l3.6,3l0.2,3.4l2.4,0.5l0.7-2.2l1.3,3.2l-1.9,0.1l0.9,2.6l3.2,0.1l1.5-4.5
		l4.6,1.8l3,1.4l-3.1,1.1l4.1,0.7l0,0v1.9l-7.1,6l-12.7,0.1l-2.7,4.9l-2.1-0.5l-2.1,6.2l-3.1,3.4l-3,2.4l-8.2,2.1l0,0l-1.9-3.3
		l0.9-4.7l-2.4-1.4l-0.4-4.7l-3.3-3.7l2.1-6.6l-1.5-2.7l1.1-4.1l-0.9-5.4l4.1-8.3l-1.8-4.3l-19.2-7.7l-5.8,0.7l-4.9,4.6l-5,1.9l0,0
		l4-5.9l0.5-9.3l6.6-1.9L561.7,1034.2L561.7,1034.2z M557.8,1027.3l0.7,3.8l2,1.2l-0.8,1.7l-3.9-5.4L557.8,1027.3L557.8,1027.3z"/>
	<path id="PH-ALB" class="st0" d="M799.1,889.5l8.2,2.7l1.4,4l-12.2-1.3l-5.1-2.2L799.1,889.5L799.1,889.5z M782.4,884.6l0.9,2.2
		l2-3.1l2.8,3.2l1.7-2.2l5.9,2.4l-3.7,0.7l0.6,1.5l-5.3,2.4l-3.2-1.1l-0.1-1.3l-4.5,0.5l-3.9-3.4l0.7-1.7l-1.4-0.9l6.7,0.7
		L782.4,884.6L782.4,884.6z M769.1,876.4l8.3,3l-5,5.2l2.7,4.6l-2.8,1.7L771,891l-0.2-3.4l-1.1-0.1l-2.2-2l2.5-4.7l-2.4-2.2
		L769.1,876.4L769.1,876.4z M759.5,870.4l4.5,1.4l2.1,2.8h2.7l-1.8,2.8l-3.8-2.2L759.5,870.4L759.5,870.4z M741.9,858.3l2.1,2.6
		l5.8,1.5l7.6,17.4l7.3,3.7l2,2.4l3.8,3l-0.6,1.9l-6.5-1.5l-3,1.1l-2.2,6.6l0.2,2.6l3.2,3.4l-1.1,2.7h-2.7l1.5,1.7l-1.4,1.1l5.6,2
		l3.7-3.9l0.4-3.1l1.9,0.1l0.7-3l1.8-0.8l6.6,2.8l0,0l-3.9,8.6h-5.1l-9.7,6.2l-3.8-4.3l-7-0.2l-4.5,1.8l-6-2.2l-10.2,4.7l0,0l-3.2-4
		l-5-2.4l-9.3,4.5l-2.6-5.4l-1.8-0.1l1.5-3.2l-0.8-7.1l2.4-2.1L709,895l2.5-1.1l-5.7-7.2l0,0l12.2-8.8l1.8,1.1l-0.1-1.7l3.3-1.9
		l2.8-0.8l3.1,1.1l10.3-4.1l0.5-4.9l-4.6-7.1l1.2-1.7l5.1-0.5l0,0L741.9,858.3L741.9,858.3z"/>
	<path id="PH-ANT" class="st0" d="M549.2,1053.6l5-1.9l4.9-4.6l5.8-0.7l19.2,7.7l1.8,4.3l-4.1,8.3l0.9,5.4l-1.1,4.1l1.5,2.7
		l-2.1,6.6l3.3,3.7l0.4,4.7l2.4,1.4l-0.9,4.7l1.9,3.3l0,0l0.2,10.9l0.9-0.6l0.6,5.2l2.6,3.6l0,0l8.9,12.3l-0.8,7.8l1.2,2.6l-3.1,0.7
		l-1.8,3.9l-2-0.4l-6.6,6.7l-2.8,8.6l-11.1,7.3l-4.4,7.3l-1.3,5.4l-1.2,8.9l0.4,2.1l1.8,0.8l0,0l-7.6,6.7l-5.4-4.5l0.2-6.4l4.9-5.1
		l2.2-12.8l-1.4-5.3l-4.6-5.3l3-5.1l3.7-13.4l7.7-11.2l-2.2-17.5l2.1-3.8l-0.1-4.1l-2.7-4.3l3.4-4.7l-0.7-13.8l2.5-1.2l1.2-2.6
		l-0.8-4.5l2.6-11.6l-0.2-6.5l-3.9-4.1l-2.1,1.2l-13.8-3.9l-3.7,1.3L549.2,1053.6L549.2,1053.6z M504.4,1042l8.5,0.6l2,1.9l-1.8,2.1
		l-8.5-1.8l-2.4,0.9L504.4,1042L504.4,1042z M517.6,1031.7l2.5,2.7l0.6,3.3l-3.3,1.7l-1.4-1.3l-0.2-5.2L517.6,1031.7L517.6,1031.7z
		 M495.7,1014.3l3.6,0.5l2.6,7.9l1.9,1.2l-4.3,5.2l-3.7-7.8l2.8-1.8l-4.1-2L495.7,1014.3z"/>
	<path id="PH-APA" class="st0" d="M452.7,300.5l4.6-2.2l3.9-4.5l0.5-2.6l4.5-1.3l0.5,6.3l17.4,6.4l4,4.6l3.7,0.1l16.2,9.2l2.5,9.3
		l-3.1,20.1l-5,2.2l-9.9,23.4l-1.9,1.1l7.6,2.6l6,6.6l1.3,5.2l0,0l-4.9,2.8l-1.1,2.6l-14.8-3.4l-2.8,5.3l-11.5-6.9l0,0l-2.5-16
		l-3.7-2.7l-6.2,0.5l-2.5-11l-6.5-4.4l0,0l1.4-2.1l-0.5-11.7l4.3-7.7l-1.9-3.6l-1.9-19.4L452.7,300.5z"/>
	<path id="PH-AUR" class="st0" d="M594.7,520.5l-1.8,1.1l-1.7,5.6l-3.2,2.6l2.6,5.2l1.8-4.5l0.5,1.1l-2,7.2l-3.7,2.4l-1.3,3.6
		l1.8,1.5l4.6-2.5l-3.4,5l-0.1,3.1L574,565.5l0.2,3.3l-4.5,4.6l-4.6,2.4l4.1-8.5l7.2-7.2l0.2-4.1l3.7-2.4l0.2-4l-4.1-0.2l-2.5,2.5
		l-0.8,2.8l1.5,3.1l-6.5,1.2l-9,6.2l-7.2,0.5l-9.9,6.7l-2.1-1.7l-2,0.9l-8.4,7.2l-1.5,3.9l-2.6,0.5v1.7l-7.8,5.9l-0.2,12.5l2,4
		l3.1-1.2l4.1,1.5l0.2,5.1l-3.2-0.4l0.1,2.6l0.2,1.4l0.4,2.6l-3.6,1.8l-5.8,9.8l-4,2.4l-2,12.1l-2.2,0.7l-2.5,5.2l-3-2.4l-2.1,2.2
		l-1.2,5.9l5,11l0,0l-2,1.7l0.4,2.4l-2.5,0.8l2,1.9l-0.2,3.3l-6.2,9.2l1.1,2.8l-1.1,2.5l0,0l-3.3-22.7l0,0l7.1-32.1l-10.3-32.4l0,0
		l20.4-16.5l0,0l40.2-35.3l25.1-29.5l7.3-4.7l0,0l15.4,0.7l0,0L594.7,520.5L594.7,520.5z"/>
	<path id="PH-BAN" class="st0" d="M397.9,699.8l4,2l0.6,4.9l2.4,3.1l3,1.8l2.8-0.7l0,0l0.5,1.8h-2.7l0.2,3l-1.3-0.1v7.2l3.9,8.4
		l-0.4,4l2.4,8.4l1.3,0.6l-0.5,6.2l-5,6.3l-8-1.3l1.2,3.2l-3.3-0.9l-2.6-3.4l-2.4,0.6l-0.2-1.4l-3.7-0.7l-1.7-7.3l1.8-1.4l-0.9-1.3
		l1.3-4.4l-2.8-4.4l-2,0.8l-1.8-1.9l-2.1,1.2v-1.5l-1.2,0.6l-5.8-6.5l0.6-4.9l2.7-0.1l-4.1-2.8l4.3-2.1l-2.6-0.9l1.1-1.4l3.1,0.1
		l0,0l7-5.4l1.9-4.7l6.5,1.1L397.9,699.8L397.9,699.8z"/>
	<path id="PH-BTN" class="st0" d="M549.4,80.5l4.9,5.3l-3,5.8l-2.4-3.1L549.4,80.5z M566.7,65.1l3.4,2.8l-7.9,6l1.9,2.4l-0.8,2.8
		l-2.6,2.2l-3.8,0.1l1.3-7.2l4.4-4.1l-1.1-2.7L566.7,65.1z M551.4,25l2.1,2.8l-1.7,3.2l0.9,2.8l-2.1,0.9l-1.3,4.4l-5,3l-2-3.8
		l3.6-4.6l2.4-7.5L551.4,25L551.4,25z"/>
	<path id="PH-BTG" class="st0" d="M466.2,851.9l1.5,4.4l-2,0.9l-4.3-5.1l2,0.9L466.2,851.9z M438.3,839l3.1,2.7l7.6,0.8l2.1,2.1
		l-4.5,1.7l-3.6-1.1l-3.6-1.8L438.3,839L438.3,839z M412.7,778.3l2.8,0.9l0,0l6.6,2.1l-1.1,2.7l3.7,4l6.4,0.4l7.9,5.6l0.7,3.1
		l4.4-2.7l1.8,0.8l6.3-1.8l10.3-5.8l-0.8-1.1l0,0l7.1-0.2l9.5,2.7l2.4,11.7l2.8,4.4l2-0.4l0.1,3l0,0l0.5,2.8l-2.4-0.1l-0.7,1.8
		l3.8,5.3l10.5,0.8l1.7,2.2l7.9,3.3l0,0l-2.6,6.5l1.9,4.6l-0.7,2.7l1.8-0.5l1.1,1.8l-5.1,3.3l-4.3-1.5l-10.8,7.9h-2.7l-3-3.4h-3.3
		l-2.1-1.9l-11.5,2.8l-4.6-1.7l1.9-3.7l0.8-6l-1.1-1.9L461,830l-3.9-1.9l-4,1.1l-7.8,10.1l-2.1-4.1l5.9-4.7l-2.8-6.7l1.4-0.9
		l-0.4-4.7l-3.4-2.7l-9.9-3l-5.2-0.9l-3.8,1.8l-1.1,3.2l2.7,3.9l-0.5,1.9L419,820l-0.2,3.4l2.7,4.6l-2,2.4l-3.9-4.9l1.1-1.3
		l-1.4-1.3l0.1-13.3l-1.8-2.4l3.1-0.2l-1.8-6.4l1.1-2.5l-0.5-6.9l-5.8-2.4l2.1-0.8l2.5-0.1l-4-2.8l4.4-0.8l-3.3-1.8L412.7,778.3
		L412.7,778.3z"/>
	<path id="PH-BEN" class="st0" d="M432.4,473.1l7.6,7l1.2,3.9l2.6,1.3l0,0l2.1,5.4l0.7,20.9l0,0l-2.4,10.2l0.8,8.2l-5,12.8l-4.4-0.2
		l-5.1,9.1l1.1,4.7l0,0l-12.4,1.5l-15.6-5.6l0,0l-4.7-29.5l3-5l6.7-6.3l-1.9-1.2l4.3-5.9l0,0l4.4-8l2.5-18.7l3.1-1.7l7.8-0.4
		L432.4,473.1z"/>
	<path id="PH-BIL" class="st0" d="M831.7,1059.7l4.4,0.1l7.7,3.3l5.1,11.8l3.8,2.8l-1.3,6.2l-3.1,1.8l-7.2,0.4l-0.8-1.2l-2.6,1.9
		l-4.1-2.7l-2.2-5.9l-1.8,0.5l-1.7-2.6l0.5-3.9l-4.3-5.4l0.5-1.5l-1.7-1.4l3.2-2.6L831.7,1059.7L831.7,1059.7z M820.3,1047.9l3,1.2
		l-0.2,3.3l-2.5,1.5l-3.6-3.2L820.3,1047.9L820.3,1047.9z"/>
	<path id="PH-BOH" class="st0" d="M767.2,1287.8l3.8,2l-0.2,2.4l-7.8,5.8l-5.1,0.6l-0.7-3.2l-3.1-1.3L767.2,1287.8L767.2,1287.8z
		 M760.4,1260.7l1.9,0.5l-3,2.7l-0.7-3.2L760.4,1260.7L760.4,1260.7z M765.8,1258.5l4.3,0.5l-3,2.4l-3-2.4L765.8,1258.5
		L765.8,1258.5z M852.5,1231.8l-3.1,4.6l1.4-0.4l0.1,2.8l-4.9-0.5l-0.8,4h-1.9l-0.8-3l1.3-2.2l-1.5,0.5v-2.2l3,0.5l0.4-2.1l2.1,2.4
		l0.6-3.1l1.3-0.8L852.5,1231.8L852.5,1231.8z M816.9,1229.5l5.3,3.8l0.1,2.7l3.1-4.4l2.5,2.6l0.2,2.7l2.4,0.5l7,5.1l2.7-2.1
		l4.6,3.9l1.5,5l-1.8,0.6l0.9,6.6l-1.9,0.7l4.3,1.2l-1.9,4.4l-5,2.5l9.1,4.9l-0.7,5.7l-2.1,2.4l-5.6,1.2l-2.5-4.4l-1.4,0.1l-4.1,4.4
		l-4.3,1.3l-0.9,6.3l-15.5,6l-7.8-1.3l-14.1,2.4l-22.4-5.2l-1.1-3.4l2.8-5.4l-0.8-0.7l-2.6-1.9l-5.7,0.2l-0.2-5.9l2.4-4.4l-2-1.5
		l0.1-1.8l3,0.9l-0.6,1.5l2.8-2.2l0.5-2.5l3.6-1.3l-0.6-1.8l1.5-1.9l1.2,1.9l7.6-5l7.2-1.2l1.9-2.4l2-8.8l4,0.2l5.9-9.6l13.7-0.1
		L816.9,1229.5L816.9,1229.5z M805.3,1229l0.8,0.7l-1.5,1.9l-2-1.1L805.3,1229L805.3,1229z M813.5,1225.8l-2.7,3.2h-3.2l-0.9-1.1
		L813.5,1225.8z M803.8,1225.2l1.7,1.7l-3.8,0.7L803.8,1225.2z"/>
	<path id="PH-BUK" class="st0" d="M846.8,1442.8l1.9-3.2l-0.5-3.6l1.4,0.7l1.5-1.7l-0.6-4.1l1.8-2.7l0.4-6.3l21.8,0.4l-0.2-5.8
		l5.9-13.1l17.6,1.7l23.6-0.2l0,0l1.9,23.2l1.8,3.7l5.8,4l1.4,5.4l2.1,1.5l-1.2,4.6l2.1,4.6l-0.5,5.8l2.1,2.5l-1.4,5.7l0.7,4.4l0,0
		l4.3,8l-0.4,10.4l2.7,5.8l-1.3,12l-3.8,3.8l-3.2-1.9l-5,1.2l-2.2-2.4l-5.3,0.6l-0.2,7.1l0,0l-3.4-1.4l-0.2,2.4l-2.6-0.1l-3,5.3
		l-1.2,6.3l-9.6,1.5l-2,5.1l-8.3,0.6l-4.9-3.4l-5.3,1.8l-0.2-1.9l-4.1-2l-0.1-3.1l-2.5-1.8l-3.2,1.7l1.3-4l2.7-2.6l-2-6.9l0,0
		l-0.5-2.1l-5.3-3.3l-0.1-3l-2.6-2.4l-0.1-4.6l-2.1-1.1l-5.2-9l-3.2-1.2l-1.5-2.7l0.7-2.2l-2.8-1.5l-4.5-8.6l-2.7-11.8l-4-5l0,0
		l7.1-2.2l1.5-3l-1.5-2.6L846.8,1442.8z"/>
	<path id="PH-BUL" class="st0" d="M452,667.3l7.2-3.9l13.4-2.2l10.7,7.7l7.7,0.6l0,0l3.3,22.7l0,0l0.4,11.8l0,0l-9.5,5.7l-8.3,1.7
		l-0.5,2.6l-7,5l0,0l-4.4-0.5l-1.5-1.9l-1.7,0.5l-0.5,2.4l-3.7,0.9l0,0l-0.4,0.4l0,0l-1.5,3.6l-2.1,0.4l-0.5-2.1l-2-0.8l-1.3,0.6
		l2.5,4.9l-1.4,0.7l-1.9-2.4l-1.2,1.2l0,0l-2-2.4l-1.4,0.4l-5-3.6l0.1-2.8l-1.7-0.6l-0.8-0.7l-1.9,2.6l-4.9-0.1l-2-0.8l-6-0.8
		l-0.6-1.3l3.4-2l-0.5-2.1l4.9-7.7l-0.1-3.6l9.6-0.8l7-5.7l-0.2-3l2.2-0.5l0.4,1.4l1.9-4.6l3.1,0.1l0.4-5l1.8-2.5l-4.7-5.9l1.4-2.4
		L452,667.3L452,667.3z"/>
	<path id="PH-CAG" class="st0" d="M581,285.1l2.6,0.2l-0.4,6.6l-4.3,2.5l1.2-5.2l-1.7-0.2l0.1-1.7L581,285.1L581,285.1z
		 M470.6,279.8l8,2.2l11.6,9.3l9.7,4.7l2,0.8l0.8,2.2l4,0.6l16.7,9.5l31.1,11.6l0.9,1.1l12-3.1l8.6-7.8l1.1-3.1l3.2,0.1l-0.6-4.9
		l2.5-9.6l2.1-1.7l7.6,0.6l1.5,7.7l7,6.5l2.7,9.6l-4,10.3l-4.3,5.6l-5.1,1.9l-5.4,7.9l0.2,2l1.8,0.5l-1.2,3.1l1.8,1.9l-1.3,7.6
		l0.7,0.8l0.5,4.7l-2.8,2.8l0.7,3.7l-2.1,1.2l0.8,2.1l-2.1,2.7l0.7,6.2l2.6,4.6l-1.3,1.9l1.2,1.5l-0.5,6.6l3.1,7.2l0,0l-37,1.5
		l-3.3,1.9l-18.1,1.1l0,0L509.4,389l-4.3,0.7l0.4-2.7l0,0l-1.3-5.2l-6-6.6l-7.6-2.6l1.9-1.1l9.9-23.4l5-2.2l3.1-20.1l-2.5-9.3
		l-16.2-9.2l-3.7-0.1l-4-4.6l-17.4-6.4l-0.5-6.3l-4.5,1.3l-0.5,2.6l-3.9,4.5l-4.6,2.2l0,0l1.3-15.5l0,0l6.7-4.4l2.7,1.5l3.6-0.8
		l0.6-1.3L470.6,279.8L470.6,279.8z M502.5,247.8l7,2.6v1.1l-3.2,2.2l-11.6,1.5l-5.9-0.2l-1.9-1.7l0.7-3l3.1,0.7L502.5,247.8
		L502.5,247.8z M557.2,236.6l3.1,0.1l5.1,5l-0.4,2.1l-3.2,0.8l-0.7,3.7l-6.5,3.7l-1.8,5.2l-2.5,1.5l-1.9-0.9l-1.1-6.3l4.5-1.4
		l-2-3.9l2.2-3l-0.5-3L557.2,236.6L557.2,236.6z M480.8,217.4l3.3,7.7l0.1,10.5l-5.8-6.3l-0.1-4.6L480.8,217.4L480.8,217.4z
		 M501.7,191.9l8.6,3l3.9-2.5L514,200l2.2,5.6l-3.4,1.7l0.1,1.8l-12-4.5l-1.4-5.3l-4.9-3.1l3.7-0.8l1.2-3L501.7,191.9L501.7,191.9z
		 M563,171l2.5,2.4l0.2,4.9l-3.9,4.3l-6.3-4.5l-1.2-3.1C554.5,174.8,563,171,563,171z"/>
	<path id="PH-CAN" class="st0" d="M623.5,765.5l9.6,3.4l-1.4,1.3l2.6,1.5l1.2,0.5l1.9,0.8l-1.2-1.5l1.3-2.7l1.8,1.5l3.1,1.9
		l-2.7-6.2l2.1-0.7l3.1,0.6l0.9,3.1l3.1-1.9l4.4,1.9l-0.6,2.8l2.2,0.2l2.1-0.2l4.1,1.7l5.4,5.7l-0.2,0.6l0.2,2.4l2.6,0.4l5.6,7.5
		l2.8,1.3l1.1-0.2l2.1,1.7l0.6,3.4l-1.8,0.5l-0.2,3.4l3,4.6l3,1.3l1.3,9.9l-1.4,2.4l-1.7-0.2l-0.9,4.1l0,0l-12.8-10.4l-16.3-9.5l0,0
		l-38.1-15l-8.4,9.3l-7.1-0.4l-0.1-1.7l0,0l1.1-2.5l3.3-1.4l0.8-0.7l-0.1-1.9l-1.2-1.5l-0.5-4.9l1.4-1.3l0.4-1.8l3.7,1.2l-2.6-3.7
		l2.2-1.1l0.6-3.3l2.7,0.2l0.7-3.3l1.5,1.5l4.3-4.4l1.5,1.3l1.5-1.1l1.4-0.7L623.5,765.5L623.5,765.5z M669.7,755.2l3.8,3.4
		l-2.7-0.2l-3.3-2.8L669.7,755.2z M670.5,748.8l1.1,0.1l-1.5,1.5l1.1,1.1l-2,0.5l0.5,1.7l-4.7,0.5L670.5,748.8L670.5,748.8z"/>
	<path id="PH-CAS" class="st0" d="M765.5,806.9l2.1,0.6l-0.9,8.9l-2.7-6L765.5,806.9L765.5,806.9z M746.2,806.6l1.9,2l0.9-0.6
		l0.8,2.6l-5.8,4l-2.7-0.7l0.4-5.2l1.7,2.4l1.8-2.8l2.5,2.1L746.2,806.6L746.2,806.6z M713.1,792.4l1.9,3.2l-0.5,2.5l2.1,1.5
		l-2.4,0.2l-1.1,2.8l2.2,0.5l2.6-2.8l-0.6,3l1.7-0.4l0.8,1.4l-1.3,1.2l2.5,0.2l-0.8,4.5l2.4,2l1.5,0.9l1.3-1.7l-1.2-0.8l0.4-3.4
		l5.9,3.3l-1.3,3.2l3-2l0.5,1.8l2.4,0.6l0.2-2.7l3.2,1.8l0.9,0.2l2.1,2.4l4.5,1.2l2.2-1.2l1.8,1.8l3.8-0.6l-1.3-0.9l1.7-3.4
		l-1.1-2.4l2.5,2.6l1.3,3.1l1.9,3.2l2.4,0.5l-0.6,1.1l3,0.4l4.9,4l2.2-1.7l3.6,3.3l4.6,0.1l0.7,4.6l2.4-0.1v5.2l-0.6-2l-3-1.1
		l-0.5,1.8l-6.5-2l-4,4.5l-3.7,1.1l-5.7-2.6l-8.3-1.2l-1.8,1.5l-10.7-3.3l1.1,2.1l1.5-0.7l-3.7,5.3l-1.8,6.2l1.2,1.9l0.7,0.2
		l-2.2,3.9l1.8,1.5l2.1-1.2l1.8,0.9l1.9,3.4l0,0l-5.1,0.5l-1.2,1.7l4.6,7.1l-0.5,4.9l-10.3,4.1l-3.1-1.1l-2.8,0.8l-3.3,1.9l0.1,1.7
		l-1.8-1.1l-12.2,8.8l0,0l-4-3.1l-3.1-6.3l-0.4-5.6l-2-4.3l-15.4-8.3l-1.3,0.8l-3.7-2.4l-3,0.1l-3-3.2l-6.7-3l-6-7l-3.7-1.2l2.8,0.1
		l4.1-4.5l-2.8-5l-7-4.7l-2.5-1.5l-2.5-3.3l-2.8,0.6l-2.2-1.4v2.2l-2.8-1.4l-1.8-2.1l1.5-1.4l-1.2-3.6l-6.9-2.6l0.8-2.2l-3.3,0.5
		l1.5-1.3l-2.2-1.8l0,0l26.7-7.2l0,0l16.3,9.5l12.8,10.4l0,0l-1.4,6.7l8.4,5.6l12.1-0.5l4.7-2.2l5-5.7l0.4-2.8l-4.6-7.7l5.3-4.9
		l0.9-3.7l-1.8,2l-1.4,2.6l-1.9,0.4l-3.8-2.4l0.5-1.5l-3.6-0.6L701,804l4-1.5l-3.6-1.7l6-0.6l-3.4-4.6h2.4l4.5,4.3l-1.1-3.7l4.1-0.1
		l-2-2.5L713.1,792.4L713.1,792.4z M708.5,789.8l3.1,2l-1.1,2.4l-3.1-3.7L708.5,789.8L708.5,789.8z"/>
	<path id="PH-CAM" class="st0" d="M862.7,1330.4l7.6,5.9l2.1,6.3l-0.7,1.7l1.7,1.2l-3.4,4.5l-3.6-2.5l-7.2-1.8l-4.5-5.6l0.8-7
		L862.7,1330.4z"/>
	<path id="PH-CAP" class="st0" d="M644.6,1070.3l8.4,0.5l0.1,1.4l3.7-1.7l0.4,1.5l3,3.2l0.8,1.3l-1.1,2.4l1.2-0.6l1.2-0.6l5.8,3.2
		l-1.7,1.4l-0.7,0.5l-3,1.2l0.8,2.2l-3.2,1.4l3.8,3.4l0.9-1.3l1.2-1.9l0.4-3.4l1.9,0.8l0.8-0.4l5.1-0.4l11.7-6.7l0,0l-5.2,10.4v5.9
		l-3.7,1.8l-4.1-0.2l-4.5,2.6l1.3,5.9l-6.4,3.1v4.4l-1.7-0.4l-2.5,5.4l-7.7,1.1l0.2-4.1l-2.2-0.9l-12.3,1.8l-2.7-2.6l2.5-3.2
		l-1.7-0.4l-4.5,5l-1.8-1.1l0.2-1.9l-2,1.3l-1.3,3.9l-5.9,2.7l-4.6-1.7l-6.9,0.2l-7.6-3.9l-9.1,9.6l0,0l-2.6-3.6l-0.6-5.2l-0.9,0.6
		l-0.2-10.9l0,0l8.2-2.1l3-2.4l3.1-3.4l2.1-6.2l2.1,0.5l2.7-4.9l12.7-0.1l7.1-6v-1.9l1.5,2v1.7l4,0.1l3.1-2.1l-2.4-1.1l1.7-3.1
		l1.1,3.6l1.2-0.1l1.4-0.4l-0.5-2l4.9-1.7l-0.9-2l-0.9-1.2L644.6,1070.3L644.6,1070.3z"/>
	<path id="PH-CAT" class="st0" d="M821.6,807.4l2.2,2.7l-3.2,0.5l-1.9-4.3l1.9,0.7l-0.2,1.4l0.5-2.8L821.6,807.4L821.6,807.4z
		 M807.7,793.1l7,9.2l1.5,8.2l3.2,1.1l-0.6,4.5l1.5-0.6l0.6-3.7l2.7-0.8l0.4,3.8l3,1.4l0.4,2.4l0.8-3.1l0.2,2.6l0.6-1.2l1.3,2.2
		l-1.7,0.7l2.4,1.4l-2.4,1.3l1.8,0.1l-0.6,2.4l1.8,2l-0.8,1.5l-2.7,0.4l1.9,3.1l-1.8,0.2l-1.1,3.8l3.4,5.8l-4.1,2.2v-2l-1.3,0.4
		l-2.6,2.1l0.9,5l-2.7,4.3l2,0.9l-3.1-0.4l-0.2-3.7l-3-0.8l0.8-1.3l-8.8,4.5l-0.7,5.4l-4-1.7l-6.9-6.7l-6.6-1.1l1.8-1.7l-4.5-5.2
		l7.8-4.7l4.5-10.2l-0.8-9.9l2.2-4.7l-2.2-5.7l-0.2-2.8l1.5-1.4l-1.4-5.1l4.9,1.1L807.7,793.1L807.7,793.1z"/>
	<path id="PH-CAV" class="st0" d="M447.3,748l-0.9,1.8l-0.5,0.8l-1.1,3l1.8-0.8l0.9,1.1l0.5-1.4l5.7-1.5l0,0l-0.1,3.2l4.9,7.3v3.6
		l0,0l-0.5,4.4l6.7-1.9l-3.9,9.1l1.9,0.6l-2.1,4.1l1.4,0.4l-0.5,5.3l0,0l0.8,1.1l-10.3,5.8l-6.3,1.8l-1.8-0.8l-4.4,2.7l-0.7-3.1
		l-7.9-5.6l-6.4-0.4l-3.7-4l1.1-2.7l-6.6-2.1l0,0l0.1-5.1l3.6-2.2l4.1,0.6l2.2-1.7l1.9-2.1l4.1-2l11-11l2.6-6.9L447.3,748L447.3,748
		z"/>
	<path id="PH-CEB" class="st0" d="M793,1216.8l-1.9,5.4l-1.4-0.5l-0.9-1.3L793,1216.8z M783.7,1211.7l2.1,2.4l4.3-2.2l-6.9,8.3
		l-1.7-0.1l-2.6,1.8l-1.1-1.5l2.6-2l-0.5-0.9l-0.9-0.1l-1.5,0.8l0.7-3.3L783.7,1211.7L783.7,1211.7z M833,1169.3l7.7,4.1l0.6,2.7
		l-7.8,3.1l-4.5-0.1l-1.9-1.8l-0.4,2.2l-7.6,4.1l-4-0.5l3.2-6l1.3-7.1l6.4,2.1l1.1,4.5l3.1-6.3L833,1169.3L833,1169.3z
		 M846.8,1158.7l-2,6.2l-5,3.3l-0.4-3.3l3.7-4.5L846.8,1158.7z M791.8,1107.2l-0.6,2l1.5,0.6l-3.6,5.4l-0.2,6.4l-5.8,8.3l1.5,0.2
		l0.1,2.1l4.9-0.4l0.2,8.6l-1.5,5.2l2.7,5.2l-2.5,4.7l-0.4,6.3l-2.6,2.8l3.2,19.3l-1.7-0.5l0.7,3.7l0.9-0.9l0.4,1.2l-0.5,6l-3.8,9.2
		l2.5,3.3l-5.1,4.3l-0.9,1.9l-8.9,4.3l-2.4,4.5l-10.7,2.5l-0.9,3.2l-7.7,7.6l-0.5,4.6l-4.4,0.2l-2.8,9.7l1.1,5.1l-1.9,4.3l0.1,3.9
		l-3.8,1.9l-1.5,4.6l-2.6,1.4l0.1,5l-3.1,3l0.1,3.9l-4.7,13.7l-12.5,16.3l-5.6,0.8l-0.5-9.2l5.1-31.5l3-3.6v-5.7l2.2,0.2l1.2-4
		l-0.9-3.4l-3-1.3l0.4-4.6l1.4-1.1l0.7,3.3l1.4-0.9l1.3-8.3l3.6-1.4l0.2-2l7.5-7.8l1.1-4.6l6-7.7l-0.1-7.2l9.5-9.3l0.9-4.6l4.1-4.6
		l-1.1-5.1l4.4-6.9l-0.2-3l6.5-9.7l3.4-1.5l3.8-10.7l1.5-5.1l5.7-12.9l-0.1-1.9l-1.2,0.9l-2.2-3.6l3.6-3.6l0.1-4.6l3.4,2.6
		l-2.5-11.4l5.1-4.7l0.9-4.7L791.8,1107.2L791.8,1107.2z M755.5,1104.8l2.2,1.8l1.9,8.3l4.4,4.9l-0.1,1.7l-9.5,1.5l1.2-3l-1.7-0.1
		l-3.2-7L755.5,1104.8L755.5,1104.8z"/>
	<path id="PH-COM" class="st0" d="M1021.6,1468.6l-1.7,3.2l10.9,35.7l4.7,21.8l0.6,19.2l-37.5,19.2l-1.1,2.2l0,0l-6.4-5.6l0.9-4.4
		l-6-9.6l1.9-10.4l-0.6-1.5h-2l0,0l1.2-4.9l-1.8-2.8l0.8-3.2l5.7-2.8l-3.7-4.5l7.3-1.5l2-11.5l-3.8-4.9l4.5-7.6l-2.7-7.3l-5.8,6.5
		l-7.2,12.3l-2.5-0.2l0.5-3.8l-1.5-3.9l-3.2-1.5l-1.2-3.7l-2.7-0.9l-3.1-23.7l0,0h33.4l1.9,3.9l5.2,3l2.5-2.6L1021.6,1468.6
		L1021.6,1468.6z"/>
	<path id="PH-DAV" class="st0" d="M969.3,1582.5l2.2,0.2l1.7,2.4l-0.7,4.4l-2.8-1.1l-2-4.4L969.3,1582.5L969.3,1582.5z
		 M971.8,1556.6l2.8,3.1l3.2,0.6l3.9,5l-2.4,9.3l1.9,10.2l-3.1,5.1l-4.6-7.9l-1.2-11.5l-1.8-0.8l-1.8,1.4l-1.7-3.3L971.8,1556.6
		L971.8,1556.6z M968.3,1468.9l3.1,23.7l2.7,0.9l1.2,3.7l3.2,1.5l1.5,3.9l-0.5,3.8l2.5,0.2l7.2-12.3l5.8-6.5l2.7,7.3l-4.5,7.6
		l3.8,4.9l-2,11.5l-7.3,1.5l3.7,4.5l-5.7,2.8l-0.8,3.2l1.8,2.8l-1.2,4.9l0,0l-2.2-0.4l-10.7,7.1l0,0h-4.9l-6,6.2l-11.5,0.6
		l-0.5-34.9l-27.6-0.7l0,0l-0.4-1.5l0,0l0.2-7.1l5.3-0.6l2.2,2.4l5-1.2l3.2,1.9l3.8-3.8l1.3-12l-2.7-5.8l0.4-10.4l-4.3-8l0,0
		L968.3,1468.9L968.3,1468.9z"/>
	<path id="PH-DAS" class="st0" d="M922.1,1516.3l27.6,0.7l0.5,34.9l11.5-0.6l6-6.2h4.9l0,0l-3.8,3.3v2l-3.4,1.5l1.8,12.3l-1.7,3.3
		l-4.9,5.3l-2.7,0.7l-0.4,1.8l-2-2.4l-3.8,2.1l-4,5.1l0.4,6.5l-3.6,2.6l-0.5,2.8l-3.6,2.5l-3,5l0.1,1.1l-0.1,4.3l-2,3.1l1.3,9.9
		l-2.8,3.7l3.1,0.1l6.2,2.4l0.5-1.9l-3-3l0.9-1.3l3.7,4.3l2.2-0.5l-0.2,3l4.1,1.8l-0.1,3.9l3.6-1.7l3.4,2.1l-2,0.9l0.8,1.1l2.4-0.5
		l-1.4,7.9l2.8,0.9l1.2,0.9l5.9,16.6l3.4,5l1.1,4.9l-1.1,5.3l1.3,2.1l-1.4,8.5l-4.4,11.4l-16.2,18.6l-1.7,5.2l-9.2,14.3l-8.9,1.9
		l-1.2-1.5l0,0l-1.5-2.1l9.5-7.1l8.2-17.2l0.1-3.1l1.9-1.3l-0.8-6.3l5.9-16.3l0.4-5.4l-3.1-3.4l-0.6-10.5l-5.1-7.7l3.7-4l-0.7-6
		l-6.7-9.9l-7.8-2.4l-3.4,5.3l-7.7,3.4l-8.5-4.5l0,0l3-4.5l-0.2-2.8l0,0l-1.7-9.3l-5.2-6.4l-0.1-4.6l2.1-0.9l-3.4-2.6l0,0l-2.2-6.9
		l2.6-1.7l2.1,1.3l1.8-2l0.5-4.6l9.8-8.3l2.4-7l4-0.5l-2.6-3.9l-0.6-6.9l-4.7-3.9l-1.7-3.7l2.1-6.6l-2.1-10.2l2.4-3.7l-0.6-9.3
		l2.5-4.4L922.1,1516.3L922.1,1516.3z"/>
	<path id="PH-DAO" class="st0" d="M1042.2,1468.5l1.1,9.9l0,0l-0.1,2.8l2.6,1.8l-1.2,1.7l1.1,2.5l4.5,0.1l-0.1,1.9l3.1,0.6l0.7,1.8
		l4.6,5.6l3.6-0.4l4,2.5l-2,2.4l1.1,2.6l-0.9,4l2.7,3.3h-1.7l-0.5,3.1l2.7,1.1l1.8,9.3l-0.5,3.8l-4,0.2l-0.7,1.3l0.2,3.6l2.8,0.7
		l-2.4,2.4l1.5,5.2l-2.1,1.5l1.7,2.7l4.3-0.1l-4.4,6l-0.5,3.4l-3-0.5l0.4,2.4l-1.5,1.8l0.9,2.5l-1.8,0.5l0.1,2l-3.1,0.7l-2.4,3.4
		l0.8,2.5l-2.4,0.9l-0.7,4.1l1.4,2.7l-4.9-1.1l-1.7,1.4l-3.6-0.2l-2.8-1.5l-2.6,3.1l-0.7,4.3l-3.1,1.2l0.9,2.6l6,5.1l0.5,6.2
		l-4.1-0.1l-2.7-2.1l-0.4-2.6l1.7-1.9l-2.6-2.4l-1.4-3l-2.4-2.6l-5-1.8l-2.1,5.7l1.9,1.7l-1.4,0.9l8.6,13.4l-4.5,13l1.3,9.1
		l-2.1,4.1l0.1,3.9l1.5,5.3l-1.7,0.5l-1.7,3.8l1.1,7.5l-1.7,5.7l-0.6-7.3l-2.2-3.7l-3.3-1.8l1.5-3.4l-4.3-5.1l-3-7.2l0.9-7.3
		l-2.6-6.3l2.6-3l-1.1-1.7l1.5-4.3l-2.4-2.7l0.5-9l-6.2-3.4l-5.1-5.9l1.4-9.2l-4.4-3.8l0.8-1.7l-1.8-1.3l0,0l1.1-2.2l37.5-19.2
		l-0.6-19.2l-4.7-21.8l-10.9-35.7l1.7-3.2l0,0L1042.2,1468.5L1042.2,1468.5z"/>
	<path id="PH-DIN" class="st0" d="M946,1197.5l3.3,1.9l-0.5,2.6l-2.2-0.5l-1.5-3.3L946,1197.5L946,1197.5z M964.7,1196.6l4.3,8.8
		l-3.8,9.6l0.6,6l-3.4-2l0.4,2.5l2.5,0.5l1.7,4.7l-1.4,1.3l0.6,2.2l2.4-0.2l-1.9,2.1l0.2,3.1l4,6.9l-2.8,7.2l0.7,3.4l-2.5,1.5
		l5.6,6.3l-0.7,2.8l-2.6-0.1l-1.2,1.7l-2.7-3.3l-0.1-6.2l-5.4-1.9l2.7-0.7l-2.7-1.8h-1.5l-2-1.5l2.2-0.9l-0.7-3.2l0.2-1.7l1.7-0.9
		l-0.1-2.8l-1.9-1.2l0.5,2.6l-3.1-2.1l-4.1,2.4l-4-7.9l1.5-0.9l1.2-4.5l3,0.1v-0.9l1.9-1.3l-3.3-4.4l0.9-3.8l-0.4-0.9l-0.5-4
		l4.9,0.1l-0.9-6.9l3.4,2.6l1.7-0.7l1.8-8.4L964.7,1196.6L964.7,1196.6z"/>
	<path id="PH-EAS" class="st0" d="M999,1162.9l1.1,3.3l-3.4-3L999,1162.9L999,1162.9z M970.4,1157.6l3.6,2.8l-1.9,3.8l0.8,1.9
		l10.3,1.8l0.9,1.5l-1.2,2.4l-6.3,0.7l-3.1-3.2l-2.8-0.6l0.4-1.3l-3.4-1.1l-1.3-4.5L970.4,1157.6z M965.1,1137.5l0.7,2.8l-1.4,0.7
		l-2.5-1.5l0.1-1.8L965.1,1137.5z M978.3,1134.4l7.8,10.3l-1.4,0.1l-6.6-8.3L978.3,1134.4z M911.1,995.4l1.5-6l3.1-3.3l10.7,12.1
		l3.2-1.9l0,0l-0.5,0.9l2.1,0.2l2-4l2.7,0.4l-2.7,2.6l1.1,0.9l1.8,0.6l1.5-1.8l0.7,1.3l0.7-1.8l2.8,1.3l2.8,3.3l-0.9,1.8l2.5-0.4
		l0.2,2.1l1.7,1.1l-0.1-1.7l2.2,2.8l-0.5,2.2l-1.3-1.3l-0.1,1.4l-4.6,0.6l2,1.4l-0.8,1.5l-2.5,0.1l0.1,3.7l4-0.2l0.9,1.2l-2.2,0.5
		l3.2,3.2l2,0.1l-6.6,7.5l-3.2,4.1l-0.7,6.9l2.6,2.7l-0.7,5.1l3,0.7l1.2,2.8l-1.3,2.2l-2.4-1.1l-3,2.6l2.1-0.1l-0.6,1.1l1.5,1.1
		l2.4-2.1l2.2,7.1l-1.3,1.1l2.4,1.3l-1.2,1.3l-3.2-0.7l-0.6,1.4l1.8,1.3l-2.7,3.3l1.1,2.6l2.7-0.2l-0.5,5.1l5.1,5.7l0.4,2.2
		l-2.7,2.8l3.1-0.7l2.4,1.8l0.8,3.6l1.2,1.3l2.2-0.6l2.1,3.7l3.3,1.1l-2,6.2l-7.3,4.7l-1.4,6.6l7,2.2l-0.9-1.1h3l0.5-1.3l-3.4-2.8
		l1.3-0.8l7.2,3.9l10.7,18.3l-1.2,2l-3.8-1.7l-1.8-4.1l-3.3-1.9l3.2-3.4l-3.9-0.2l-0.6-2.7l-8.5,3.2l-0.8-0.5l-1.8-1.1l1.3-2.4
		l-4.4-0.2l-2,7.6l-2.4-2.1l-1.5-0.7l-1.5-2.1l-1.4,0.9l0.6,2.1l-2.1-1.3l-0.2,2.1l-2.7,1.1l-0.4-2l-3.4,0.1l-1.4-2.2l-4.7,0.4
		l-2.1-3l-3.6,0.7l-1.3,2l0,0l-0.5-22.1l6.3-9l-2.4-3l-5.9-2l-2.7-17.2l1.5-3.9l6.6-4.9l-1.3-19.6l-6.7-15.6h-10.2l-0.2-19.1
		l3.7-2.4L911.1,995.4L911.1,995.4z"/>
	<path id="PH-GUI" class="st0" d="M643.5,1196.2l2.4,2.4l-4.9,1.1l0.4-2.7L643.5,1196.2z M638.5,1165.4l5.9,4.1l0.9,2.6l0.6,8.4
		l-4.7,9.3l-0.2,3.4l-2,3.2h-2l0.2,2.2l-2.1,1.8l-5.1,0.6l-4.3,2.4l-3.1,0.1l-0.7-5l-3.8-3.3l0.9-2.8l4.4-1.1v-2.6l-1.4-4.5l5.8-6.7
		l-0.1-2.5l2.1,0.6l3.2-1.9l0.6-4.7L638.5,1165.4L638.5,1165.4z"/>
	<path id="PH-IFU" class="st0" d="M443.7,485.3l4-0.1l3.6-3.4l3.8-8.6l-1.4-4.4l0.9-3l5.1,0.5l3.7-2l5.4-0.4l13,0.9l13.5-6.9
		l9.6-1.4l12.5,1.1l0,0l3.6,19.3l-4.6,5.3l-9.5,3l-2.5-1.2l-3.2,4l-4.3,0.5l-1.3,2.6l-2-0.2l1.1,1.5l-1.3,1.9l0,0l-2,5.6l-2.8,0.9
		l0.6,3.1l-2-0.8l-5.6,2.4l0,0l-0.6,0.2l0,0l-34.7,5.8l0,0l-0.7-20.9L443.7,485.3z"/>
	<path id="PH-ILN" class="st0" d="M440.2,277.2l7.1,10.1l4.6,0.6l2.1-2.7l0,0l-1.3,15.5l0,0l-2,9.1l1.9,19.4l1.9,3.6l-4.4,7.7
		l0.5,11.7l-1.4,2.1l0,0l-2,3.1l-8.4-1.1l-5.4,5.6l-6,2.1l-4.1,6.6l-11.8,4l-5.1,10.9l0,0l-2.2-2.4l-0.4-3.3l2.2-14.8l-9.6-2.1l0,0
		l-1.5-1.5l4-3.1l0.9-3.8l2.6-2.4l-2.7-3.7l0.4-5.9l-0.8-0.6l4.6-5.3l0.7-5.8l1.2-0.7l-0.7-1.1l5.9-8.9l2.7-7.7l-0.6-7.6l-3.6-9.2
		l6.9-6.2l9.8,2l6.3-1.7l1.8-3.2l-0.7-5.8L440.2,277.2L440.2,277.2z"/>
	<path id="PH-ILS" class="st0" d="M396.1,362.9l9.6,2.1l-2.2,14.8l0.4,3.3l2.2,2.4l0,0l-3.6,7.3l-1.7,10.8l-2.2,5l1.7,2.4l4.6-2.1
		l6.6,2.7l-0.7,5.2l-4.4,8.3l2.1,5.7l6.2-0.4l7.5,6.3l-0.1,6.5l-1.5,0.6l3,3.8l6.7,0.4l4.6-3.4h6.5l0,0l-8.5,8.9l0.7,15.7l-1.2,4.3
		l0,0l-3.6,2.4L421,476l-3.1,1.7l-2.5,18.7l-4.4,8l0,0l-5.3-6.4l1.9-6.2l-1.7-1.2l0.9-1.5l-2.2-0.2l1.4-2.1l-3.1-3.3l1.1-8.5l-3.3,2
		l-1.4-1.7l-2.2,0.9l-4.7-1.5l0,0l4-6.7l-1.1-11.2l-1.2-11l-2.5-3.9l3.4-8.6l-1.4-0.2l0.5-5.3l1.9-0.4l1.3-5.7l0.9-2.1l-1.8-4.3
		l-1.9-0.6l0.5-3.1l-1.4-2.1l0.1-1.3l-2.1-0.7l-1.9-0.6l0.2-1.5l-4.1-1.8l-0.8-3.1l3-10.8l0.6-1.4l6.5-5.7l-0.7-2.5l-2.5-0.4
		l2.1-1.9l-2.6-2.4l3-1.2l0.6-2.1l2.5-0.1l-2-4.6L396.1,362.9L396.1,362.9z"/>
	<path id="PH-ILI" class="st0" d="M691.7,1120.9l0.7,1.4l-4,4.7l-0.8-4.1L691.7,1120.9z M694,1113.7l2.5,0.1l-2,3l-1.7-2L694,1113.7
		z M693.7,1103.6l3.2,2.1l-4.9,5l0.4-6.2L693.7,1103.6z M704,1087.1l1.9,1.7l-2.8,2.6l-0.9-3.6l0.6-1.3L704,1087.1L704,1087.1z
		 M701.4,1086.6l-3.2,0.5l-1.7-1.9l0.8-2.8l2.1-0.7l0.9,1.5L701.4,1086.6L701.4,1086.6z M697.1,1078.2l-0.6,3.1l-3.9,2.2l1.1-3.7
		L697.1,1078.2L697.1,1078.2z M692,1071.8l1.5,4.1l-2.7,6l-1.8-2.2l-0.7,1.3l-1.9-0.5l1.9,2.7l3,0.5l-1.4,1.7l2.7-1.2l1.4,2l-4,6
		l2.6,2.5l-1.1,3.1l-1.7,0.5l0.7,2l-3.7,1.4l0.9,3.7l-1.8,7.7l3.4,3.3l-0.4,3.7l-1.9,1.1l-4.6-3.4l0.6,2h-4l-2.2,8.3l-3.7,3.8
		l-0.2-1.2l-2.4,0.5l1.3,1.8l-1.3,1.8l-1.8,0.1l0.8-2.7l-2.1-1.1l-2,5.1l-3.8-1.2l-2.2,1.5v3l-2.2-1.3l-5.3,1.8l-2.4,4.4l3.3,5.8
		l-1.3,0.4l0.6,3.9l-2.6,1.1l0.4,2.6l-3.9,4.5l-6.2-1.5l-0.8,2l-5.9,0.5l-2.2,3.1l1.3,2l-2.1,4.4l-13.6-0.1l-20,3.3l-3.2,2.5
		l-4.1-0.4l-7.1,6l-5.2,1.1l-1.9,5.4l-5.2,6.4l0,0l-1.8-0.8l-0.4-2.1l1.2-8.9l1.3-5.4l4.4-7.3l11.1-7.3l2.8-8.6l6.6-6.7l2,0.4
		l1.8-3.9l3.1-0.7l-1.2-2.6l0.8-7.8l-8.9-12.3l0,0l9.1-9.6l7.6,3.9l6.9-0.2l4.6,1.7l5.9-2.7l1.3-3.9l2-1.3l-0.2,1.9l1.8,1.1l4.5-5
		l1.7,0.4l-2.5,3.2l2.7,2.6l12.3-1.8l2.2,0.9l-0.2,4.1l7.7-1.1l2.5-5.4l1.7,0.4v-4.4l6.4-3.1l-1.3-5.9l4.5-2.6l4.1,0.2l3.7-1.8v-5.9
		l5.2-10.4l0,0L692,1071.8L692,1071.8z M714.8,1072.2l-2.4,2.4l-1.5-1.3l0.8-1.5L714.8,1072.2z M715,1067.4l-1.2,3.4l-0.7-3
		L715,1067.4z"/>
	<path id="PH-ISA" class="st0" d="M587.2,403.4l-0.1,4.7l6.5,10.8l-1.4,0.9l1.9,1.8l-0.8,2.6l2.1,1.2l2.1-0.9l0.2,2.5l2.6,0.9
		l1.3-1.2l3.4,0.8l1.8-2.1l2.5,1.5l1.7,0.8l3.9,7.9l-0.4,2.6l-1.1,3.2l-2,3.4l0.6,5.1l2,1.8l1.2,0.8l3.9-0.1l3-3l2.1,5l-2,6.9
		l-4.9,7l1.2,2.8l-2.2,5.4l1.1,1.8l-4.1,6.9l0.8,3.2l-1.9,1.3L599,516.5l-3,3.2l0,0l-15.4-0.7l0,0l-5.4-0.4L539.6,535l-21.7-27.2
		l-16.3-1.3l0,0l-0.9-5.2l-7.1-6.7l0,0l1.3-1.9l-1.1-1.5l2,0.2l1.3-2.6l4.3-0.5l3.2-4l2.5,1.2l9.5-3l4.6-5.3l-3.6-19.3l0,0
		l-0.5-23.7l0,0l6-13.4l7.7-5.4l-2-7.2l0,0l18.1-1.1l3.3-1.9L587.2,403.4L587.2,403.4L587.2,403.4L587.2,403.4z"/>
	<path id="PH-KAL" class="st0" d="M505.4,387.1l-0.4,2.7l4.3-0.7l19.3,18.7l0,0l2,7.2l-7.7,5.4l-6,13.4l0,0l-15.3-2.8l-7.6,2.6
		L484,444.4l-9.6,2l-8.3-2.8l-3.3-4.6l-15.5-1.5l0,0l8.8-18.3l0.4-9.5l12.3-7.9l1.1-3.2l-3.1-8.9l3.4-2l0,0l11.5,6.9l2.8-5.3
		l14.8,3.4l1.1-2.6L505.4,387.1z"/>
	<path id="PH-LUN" class="st0" d="M392.5,474.7l4.7,1.5l2.2-0.9l1.4,1.7l3.3-2l-1.1,8.5l3.1,3.3l-1.4,2.1l2.2,0.4l-0.9,1.4l1.7,1.2
		l-1.9,6.2l5.3,6.4l0,0l-4.3,5.9l1.9,1.2l-6.7,6.3l-3,5l4.7,29.5l0,0l-1.4,2.8l-9.2,0.4l0,0l-1.8-4.9l-3.8-2.4l-1.9-1.1l-0.4-7.3
		l-2.5-4.9l0.1-0.6l0.6-8.3l-2.8-3.7l0.7-2.1l1.2-6L378,509l3.4,0.7v-3.6l3.2-4.5l0.4-5.6l-1.9-7.7l1.2-3.9l7-5L392.5,474.7z"/>
	<path id="PH-LAG" class="st0" d="M508.3,739.6l9.7,18.7l1.7-1.1l2.5,2.4l3,0.4l0.8,14.9l-7.2,10.2l-1.8-0.1l-2.8,2.8l-3.3,8
		l-6.7,1.1l-11.1,8.8l-7.5,2.5l0,0l-0.1-3l-2,0.4l-2.8-4.4l-2.4-11.7l-9.5-2.7l-7.1,0.2l0,0l0.5-5.3l-1.4-0.4l2.1-4.1l-1.9-0.6
		l3.9-9.1l-6.7,1.9l0.5-4.4l0,0l4.7-3.2l0.7-13l4.7-4l0,0l3.3-0.4l3.1,2.2l5.7,11.5l0.4-7.1h1.7l2-4.9l3,0.5l0.4,3.1l2.4,0.1
		l2.5,2.6l1.4,5.7l-3.8,9.3l0.4,4.3l8.6-6.2l-2.2-2.5l0.8-3.6l-1.7-6.5l1.7-6.9l4.6-4.5L508.3,739.6L508.3,739.6z M485.1,765.3
		l-1.8-0.2l-1.9-8.4l-0.8,7.9l2.8,6.9l-0.2-4.3l1.9-0.5L485.1,765.3L485.1,765.3z M485.4,746.9L485.4,746.9l-0.2,0.4L485.4,746.9z
		 M485.7,747L485.7,747l-0.1,0.1L485.7,747z M485.1,746.3L485.1,746.3L485.1,746.3L485.1,746.3L485.1,746.3L485.1,746.3z"/>
	<path id="PH-LAN" class="st0" d="M811.9,1432.8l8.4-1.5l16.3,0.9l6.7,4.3l3.4,6.3l0,0l-0.5,2.8l1.5,2.6l-1.5,3l-7.1,2.2l0,0
		l-3.2-2.5l-13.1-3.9l-1.5-1.8l-3.7,0.5l-2.5,8.4l0.4,5.4l-7.1,7.3l-9.5,1.5l1.2,4l-3,6.6l-9.6,0.6l2.4,8.2l-4,7.9l0.6,3.3l-1.4,3.1
		l-17.9-5.4l0.2,1.9l-2.6,3l0,0l-4.5-0.4l-1.2-3.2h-3.1l0.2-3.6l-2-2.8l-3.2-0.7v-1.7l-7.7-1.8l0,0l5.3-13.7l0,0l2.7-3l5.8-2
		l4.1-6.4l5.2-3.1l1.5-2.8l2.2,0.9l3.3-1.2l3.6-4.3l9.3-4.9l15,1.4l7.2-2.8l4.6-7.5L811.9,1432.8z"/>
	<path id="PH-LAS" class="st0" d="M839.3,1453.5l4,5l2.7,11.8l4.5,8.6l2.8,1.5l-0.7,2.2l1.5,2.7l3.2,1.2l5.2,9l2.1,1.1l0.1,4.6
		l2.6,2.4l0.1,3l5.3,3.3l0.5,2.1l0,0l-11.6-4l-5.7,3l-4.4-1.1l-4.4-5.6l-3.3-0.9l-4.6,0.4l-6,3l0,0l0,0l0,0l-8.2,9.2l-12.7,6.4
		l-6,7.5l0.4,2.2l0,0l-2,0.7l-5.7-3.4l1.9-1.5l-3.2-5.7l-11.4-14.7l-3.1,0.5l-1.3-2.4l-6.4-3.1l-10.9-0.8l0,0l2.6-3l-0.2-1.9
		l17.9,5.4l1.4-3.1l-0.6-3.3l4-7.9l-2.4-8.2l9.6-0.6l3-6.6l-1.2-4l9.5-1.5l7.1-7.3l-0.4-5.4l2.5-8.4l3.7-0.5l1.5,1.8l13.1,3.9
		L839.3,1453.5L839.3,1453.5z"/>
	<path id="PH-LEY" class="st0" d="M819.5,1075.6l13.4,13.4l3.6,5.8l1.2-1.9l-1.9-4.3l1.8-1.1l6.4,3.3l1.7,9.5l3.7,3.8l2.5-0.8l4.5,2
		l6.6-1.5l9.9-7.6l1.5-6.3l5.2,0.7l1.8,1.8l2.6-1.4l1.2,1.5l3.1-2.1l1.5,3.8l2.6-0.6l-1.2,2.2l1.2,1.1l-1.8,1.9v8l1.7,3l3.4,0.2
		l-0.4,3.6l1.5,1.3l-1.3,5.9l3.6,9.9l-0.6,14.7l-3.6,9.9l2.6,11.7l1.7,2.1l8,2.4l-1.2,2.5l4.9,5.7l0,0l-10.5,10.9h-12.4l-5.1,13.3
		l0.7,15.4l-5.8,1.2l-7.9,7.6l-1.8-0.7l0,0l3.4-13.8l-2.7-4.4l-3.6-2.1l-1.3-12l5.1-5.8l0.5-9.3l3.6-4.3l-2.2-12.8l-8.3-11.5
		l-2.5-6.4l-3.3-1.4l-6.4-6.9l-2.7,0.5l-3.6,3.6l1.4,5.3l-3.8,6.9l-4.3,0.2l-3.1-3.6l-1.8,0.9l0.6-3.3l-2-3.3l-0.5,3.9l-4.4-1.2
		l3.7-6.5l-0.5-5.6l-3.9-3.4l3.6-5.1l-1.9-10.3l0.2-2.6l0.2-1.9l-1.3-3.4l-0.9-1.7l0.5-1.8l-3.4-1.2l-0.1-5.3l2.1-0.4l-3.2-1.3
		l-0.6-2l2.6-1.2l-3.6-0.9l-3-8.8l-0.1-5L819.5,1075.6L819.5,1075.6z"/>
	<path id="PH_MG" class="st0" d="M787.4,1545.8l-0.2-3.8l6.3-5l-3.8,4.9l0.4,2.1L787.4,1545.8z M883.2,1601.9l-6,1.7l-3.1-1.4
		l-0.7-24h-2v-1.2l0.4-5.2l3,0.1l0.2-2.8l-3.1-0.1l0.1-2.7l-9.3-8.9l0.5,1.2l-2.4,0.7l0.1,3.1l3.9,1.9l1.8,2.7l-2-0.1l0.7,2.8
		l-2.1-2.1l-1.3,3.3l-0.4-1.7l-1.5,0.2l-0.7,2.1l2.4,1.3l1.5,3.7l-0.9,1.2l1.4,0.8l-3.7,2.8l0.5,2l-1.3,0.7l-5.6-3.1l-4.3,0.5
		l-5.8-7.6l-3.4,1.1l-7.9-6.4l8.8-16l-4.3-1.2l-6,1.9l-4.5,6.6l-4.9-0.7l8.6-14.3l1.5,0.7l7.1-16.2l-5.8-8.4l0.7-14.4l-8.2,9.2
		l-12.7,6.4l-6,7.5l0.4,2.2l0.9,1.4l3.9-0.6l0.6,3.9l1.3,0.4l-0.5,2.8l-4.6,0.4l0.6,4.9l-1.2,4.6l1.2,1.4l-3.1-0.6l-0.2,3.2
		l-1.8-0.4l-1.2,2.4l5.8,0.8l2.7,2.4h-1.1l0,0l0,0l-1.9-2.2l-4.6-0.1l-5.9,4.9l-5.4,0.7l-7.1,11.2l-4.9,14.3l2,4.7l-1.9,1.3l0.5,3
		l-2,1.1l2,0.6l-0.2,2.7l1.7-0.6l-0.6,2.7l4.4-2.7l3.3,4.7l6.4,0.1l18.1-0.4l1.9,3.2l25,0.1l7.6-7.9l-2.6-7.2l11.1-2.4l-0.2,1.4
		l4.4,0.2l-3.2,9.2l8.8,0.2l3.6,12l2.2,2.6l9.5-0.7l12.9-7L883.2,1601.9L883.2,1601.9z"/>
	<path id="PH-MAD" class="st0" d="M552.1,852.1l0.5,2l1.7-0.6l0.7,2.5l2.2,1.2l1.4-2l4,1.4l3.4,1.1l1.3-3l2.6,2.2l-1.1,1.8l2.7,0.1
		l1.1,3l-1.5,0.2l3.4,0.9l1.3-1.4l4.5,3.8l-1.1,3.3l-1.7-1.1l-0.1,1.4l5.4,5.7l-11.4,10.5l0.7,4l-2.7,4.7l-5.1-0.9l-3.4-4.5l-9.3-4
		l-5-6.7l0.5-6.5l-1.5-5l5.7-9.3l-0.8-1.1l1.2-1.1l-0.9-1.5L552.1,852.1L552.1,852.1z"/>
	<path id="PH-MAS" class="st0" d="M690.3,1042.6l0.9,1.1l-2.2,1.9l-0.4-2.1L690.3,1042.6z M701.6,960.3l15.5,6.6l-4.3,0.2l2.4,6.2
		l-4,1.9l1.1,2.1l1.5,1.1l1.5-3.7l2.6,0.6l-2-3.1l0.7-1.7l3.3-1.7l4.4,0.7l10.1,7.6l2-1.4l1.7,5.6l4.3,3.2l-3.9,3.2l5.1-0.7l1.2,0.2
		l2,1.9l2-0.8l2.7,1.9l9.7,15.3l1.2-0.6l-1.4-2.8l2-2l2.5,0.8l3.6,4.6l2-3.1l2.4,1.4l2.6,6.3l14.6,20.5l-0.4,2.2l-3.9-6.7l-1.7-0.4
		l-0.6,2.6l2.2,4l1.3-0.1l5,10.9l-1.5,6.5l1.7,8.2l-2.2-0.6l-3.9-6.5l-10.3-8.8l-1.5,0.4l-4.9-4l-0.2-0.1l-14.9-3.6l0.7-1.7
		l-1.8-1.1l2.1-2.7l2.1-0.2l-11-7.1l-0.9-2l-4.4-0.9l1.5-2.4l-8.4-12.8l-4.1-1.5l-7.8,2.6l-6.6,10.3l-3.6,1.7l-1.3,2.5l-1.1-0.6
		l-2,5.9l-15,12.9l-1.9-2.8l5.9-9.7l-0.6-2.1l1.7-2.2l1.3-8.2l2.5-0.6l4.6-2.7l-1.4-3.9l1.7-1.9l-2.4-3.6l-3.7,3.2l-1.3-2.2l1.9-0.2
		l-1.3-3.2l4.7-7.3l-0.8-4.7l1.7-1.1l1.4-3.8l-1.3-0.7l1.4-1.4l-4.3-1.9L701.6,960.3L701.6,960.3z M744,950l3.3,4.9l5.9,2.8
		l-1.3,0.8l0.7,0.5h2.5l1.1,3.2l0.1,1.5l1.3,3.6l0.4,0.8l2,4.1l0.5,8.8l1.9,0.7l-0.7,4l1.7,0.2l-1.3,3.6l-6.7-7.1l-4.7-6.7l0.1-2.1
		l-5.7-6.7l-2.5-7.1l-1.3,0.7l-2.2-3.4l0.4-2.5l1.1,2.2l1.2-1.3l1.4,1.1l-2-4.4L744,950L744,950z M675.2,898.2l1.8,2.4l3.6,0.2
		l15.1,24.7l6,0.5l4,2.2l1.3,8l10.7,14l-2.7-0.4l-2.7-2.8l-7.9-12.3l-6.9-1.1l-3.1-4.9l-3.6-0.8l0.9-1.5l-4.4-2.1l-1.9-4.4l-1.4,0.7
		l-1.5-4.6l-8.5-0.9l-2.2-3.6l-2.1,1.4v-4.5l1.5-2l-3.4-3.2l4.4-1.8L675.2,898.2L675.2,898.2z"/>
	<path id="PH-MNL" class="st0" d="M447.9,726.5l1.2-1.2l1.9,2.4l1.4-0.7l-2.5-4.9l1.3-0.6l2,0.8l0.5,2.1l2.1-0.4l1.5-3.6l0,0
		l0.4-0.4l0,0l3.7-0.9l0.5-2.4l1.7-0.5l1.5,1.9l4.4,0.5l0,0l0.1,2.1l1.9,0.1l-3,7.1l3.1,2l-0.5,2.6l-2.8,0.9l0.8,4l-1.8,2.6l1.3,4.3
		l0,0l-4.7,4l-0.7,13l-4.7,3.2l0,0v-3.6l-4.9-7.3l0.1-3.2l0,0l2.1-3l-1.7-0.7l1.2-0.9v-4.9l-4.6-3.9l0.6-2.1l1.3,1.4l0.2-4.1
		l-1.2,0.2L447.9,726.5L447.9,726.5z"/>
	<path id="PH-MSC" class="st0" d="M742.6,1395.1l1.2,0.9l-0.7,1.2l2.6,0.9h5.3l6.2,6.7l4.4,4.9l-0.4,3.2l4,3.2l-0.1,2.4l2.4,3
		l0.9,8.8l1.9,2.6l-1.7,1.3l-0.1,3.2l2,13.7l-8.5,6.3l-3.1,5.6l-5.2-0.5l-8.2,4.5l0,0l-0.1-2l-3.7,0.7l-4.3-2.2l-1.5-18.7l0,0
		l0.6-44.6l0,0l1.2,0.6l1.4-1.8l0.9,0.5l1.9-2.6l-2.6-0.8L742.6,1395.1L742.6,1395.1z"/>
	<path id="PH-MSR" class="st0" d="M916.9,1348.6l3.3,14.9l-1.9,3.7l4,5.4l-2.6,2.1l1.2,21.5l0,0l0.2,8.5l0,0l-23.6,0.2l-17.6-1.7
		l-5.9,13.1l0.2,5.8l-21.8-0.4l-0.4,6.3l-1.8,2.7l0.6,4.1l-1.5,1.7l-1.4-0.7l0.4,3.6l-1.8,3.2l0,0l-3.4-6.3l-6.7-4.3l-16.3-0.9
		l-8.4,1.5l0,0l1.8-5.6l2.2-2l0.1-7.3l3.4-8.8l14.7-9l3.1,0.4l-0.8,3.3l4.5,1.9l3.6,3.6l2.8,0.2l0.9,2.1l8.3,1.1l-1.3,2.4l2.1-2
		l0.6,2.6l3.8,1.2l4.3-2.2l1.3-2.2l-1.2-5l3.2-4l-1.1-5.2l-2.1-1.1l-0.2-4.6l1.9-2.7h2.1l-1.4-5.4l2.7-6.3l-1.2-16.7l4.3-3.2
		l5.6-0.4l17,9.8l5.9,9.9l9.3-1.9l2.7-9l-1.8-9.1l1.4-2l0.2-5.6L916.9,1348.6L916.9,1348.6z"/>
	<path id="PH-MOU" class="st0" d="M517.1,433.9l0.5,23.7l0,0l-12.5-1.1l-9.6,1.4l-13.5,6.9l-13-0.9l-5.4,0.4l-3.7,2l-5.1-0.5l-0.9,3
		l1.4,4.4l-3.8,8.6l-3.6,3.4l-4,0.1l0,0l-2.6-1.3l-1.2-3.9l-7.6-7l0,0l1.2-4.3l-0.7-15.7l8.5-8.9l0,0l4.3-0.2l1.9-2.6v-3.9l0,0
		l15.5,1.5l3.3,4.6l8.3,2.8l9.6-2l10.1-10.8l7.6-2.6L517.1,433.9z"/>
	<path id="PH-NEC" class="st0" d="M697.1,1137.7l5.4,0.6l2.4,1.3l5.6,4l9.9-0.5l6.6,3.8l2.6-1.9l2.4,2l-2.1,1.2l2.8,0.7l1.3,7.2
		l3.6-0.8l-1.1,2.8l1.3,2.6l-3,4.9l-1.7-1.2l0.5,2.2l-2.4,3.8l-2.2,12l-1.8,5.8l-1.4,0.6l0.7,1.8l-4.6,5.2l-7.1,3.8l-2.4,6.5l0,0
		l-9.2-3.4l-13.4,0.4l7.8,15.7l-9.5,11.5l-10.2,16.9l-3.2,11.1l-27.8,35.4l-9.7,9.8l-3.8,8.8l0,0l-8.3-7.9l-2-5.7l-4.3-2.4l-1.7-6.6
		l-2.4,0.4l1.5-4.4l-3-1.3l-2.5,1.3l-1.1-1.4l2.6-3l-2.7,0.8l-1.8-1.8l2-4l-1.2-5l1.4-3l-2.7-2.4l6.2-6.9l2-8.5l6.2-1.2l17.3,0.9
		l12.5-9.8l5,0.4l4.7-3.6l-3-14.3l0.1-7.9l2.5-8l-7.6-16.7l3.4-3.3l3,0.5l2.8-1.8l0.2-1.8l3.9-3.1l2.7-7.9l0.2-4.7l1.9-0.7l0.6-6.9
		l-1.9-1.7l-0.8-5.2l1.5-1.7l-0.5-2.8l9.5-3.2l2.4,2l7.5-7.1l3-0.2L697.1,1137.7L697.1,1137.7z"/>
	<path id="PH-NER" class="st0" d="M633.4,1312.5l3.8-8.8l9.7-9.8l27.8-35.4l3.2-11.1l10.2-16.9l9.5-11.5l-7.8-15.7l13.4-0.4l9.2,3.4
		l0,0l-0.5,11.6l-5.1,10.3l-0.5,6l-5.8,13.7l-5,5.6l-0.6,3.4l-2.8,2.1v5.6l-2.1,1.7l3.2,14.6l-0.6,8.2l-3.4-2.4l-1.9,3l1.8,3.3
		l3.7,0.5l0.8,2.1l-1.5,1.7l0.2-1.9l-1.5-0.7l-1.9,4l3.8,0.1l3.3,7.6l4.9,1.7l3.6,9.2l4.3,3.1l1.4,3.7l-3.1,12.1l-9,12.7l-5.6,2.1
		l-2.6,3.2l-1.7-0.9l-4.1-1.4l-6.4,3.1l-8-4.1l-7-16.5l-1.5-11.5l-7.7-3.8l-13.1-1.9L633.4,1312.5L633.4,1312.5z"/>
	<path id="PH-NCO" class="st0" d="M833.2,1506.8l6-3l4.6-0.4l3.3,0.9l4.4,5.6l4.5,1.1l5.7-3l11.6,4l0,0l2,6.9l-2.7,2.6l-1.3,4
		l3.2-1.7l2.5,1.8l0.1,3.1l4.1,2l0.2,1.9l5.3-1.8l4.9,3.4l8.3-0.6l2-5.1l9.6-1.5l1.2-6.3l3-5.3l2.6,0.1l0.2-2.4l3.4,1.4l0,0l0.4,1.5
		l0,0l1.2,6.7l-2.5,4.4l0.6,9.3l-2.4,3.7l2.1,10.2l-2.1,6.6l1.7,3.7l4.7,3.9l0.6,6.9l2.6,3.9l-4,0.5l-2.4,7.1l-9.8,8.3l-0.5,4.6
		l-1.8,2l-2.1-1.3l-2.6,1.7l2.2,6.9l0,0l-12.8,3.9l0,0l-11.6-6.9l-6,1.7l-3.1-1.4l-0.7-24h-2v-1.2l0.4-5.2l3,0.1l0.2-2.8l-3.1-0.1
		l0.1-2.7l-9.3-8.9l0.5,1.2l-2.4,0.7l0.1,3.1l3.9,1.9l1.8,2.7l-2-0.1l0.7,2.8l-2.1-2.1l-1.3,3.2l-0.4-1.7l-1.5,0.2l-0.7,2.1l2.4,1.3
		l1.5,3.7l-0.9,1.2l1.4,0.8l-3.7,2.8l0.5,2l-1.3,0.7l-5.6-3.1l-4.3,0.4l-5.8-7.5l-3.4,1.1l-7.9-6.4l0,0l8.8-16l-4.3-1.2l-6,1.9
		l-4.5,6.5l-4.9-0.7l8.6-14.3l1.5,0.7l7.1-16.2l-5.8-8.4L833.2,1506.8z"/>
	<path id="PH-NSA" class="st0" d="M795.9,995l1.5,1.7l-1.7,2l-1.5-2.7L795.9,995z M815.3,987l-3.1-4.6l-0.4-6.2l3.8,5.1L815.3,987
		L815.3,987z M800.7,973.8l5.4,7.5l-1.2,3.6l-4.7-5.7L800.7,973.8z M831.8,962.7l0.5,1.9l2.6,0.9l-1.5,1.3l-3.2-1.4L831.8,962.7z
		 M838.8,962.6l3.2,4.4l-2.2,0.2l-3.2-4.4L838.8,962.6L838.8,962.6z M824.7,961.6l2.4,0.6l-0.4,1.9l-2.2,0.5l-0.9-2.7L824.7,961.6
		L824.7,961.6z M824.2,957.4l3.8,2.8l0.4,2.7l-3.7-1.7l0.7-1.9L824.2,957.4z M893.3,955.7l2.2,2l0.7,3.2l5.8,2.5l-1.5,2.1l-0.9,1.4
		l3,0.7l-0.1-4.7l2.6-0.5l1.7,2.1l3.7-2.4l13.4,10.3l-0.8,2.1l3.4,0.5l0.5,4.5l4.6,2.5l-4.3,0.9l1.9,1.2l-2,0.2l0.8,2.2l-2.1,0.9
		l0.5,2.8l3.3,0.4l-3.7,2.4l0.7,1.8l5-2.8l-1.1,1.9l1.3,1.7l-2,0.5l0,0l-3.2,1.9L916,986l-3.1,3.3l-1.5,6l0,0l-5.2,0.5l-14.3,5.9
		l-7.5-2.7l-5.4,12.8l-2.8-4.1l1.3-4.9l-14.1-8l-7.9,5.4l-17.3-10.3l-6,5.8l-7.8,0.1l0,0l-2.6-7.2l1.3-4.4l-0.8-0.6l-0.8,1.8l-2.1-7
		L819,978l-2.6-2.6l-0.4-5.7l-2.2-3.4l2.1-3.8l4.9,3.1l0.5,2.1l1.3-1.2l1.7,0.9l-0.1-2l4,2v-3.1l3.2,2.5v1.7l2.4-0.5l2.6-1.3l-1.3,2
		l0.8,1.8l1.4-0.1l-0.1-2.7l4,1.9h5.1l0.9-1.2l10.4,1.4l8,0.4l7-3.2l4.5,1.9l3.1-0.8l1.8-3.6l-2.7-2.1l3.2,0.7l0.5,0.6l4.4,0.5
		l2.7-1.9l0.8,2.2l-1.4,0.7l4.3,0.7l2.6-1.5L893.3,955.7L893.3,955.7z M901.5,951.3l2.5,9l-6.2-2.1l2.1-0.2l0.7-1.8l-3.3-1.4
		l0.2-2.2l0.8-1.4L901.5,951.3L901.5,951.3z M824.5,949.9l3.1,1.2l0.5,4.9l-3.1-1.8L824.5,949.9L824.5,949.9z"/>
	<path id="PH-NUE" class="st0" d="M443.8,567.2l16-2.2l16.3,4l2.5,20.7l9.1,15.5l0,0l10.3,32.4l-7.1,32.1l0,0l-7.7-0.6l-10.7-7.7
		l-13.4,2.2l-7.2,3.9l0,0l-5.9,1.2l-3.6,4.9l-2.2-4.5l-6.7,0.1l-1.7-7.1l0,0l1.1-4.4l-4.6-3.6l0.4-5l2.5-4l-4.7-14.8l3.6-6.3
		l-6.3-1.7l-4.7-5l-4.5-19.1l0,0l14.3-2.4l8.6,6.7l3.9-3.2l7-17.9L443.8,567.2z"/>
	<path id="PH-NUV" class="st0" d="M493.5,494.4l7.2,6.7l0.9,5.2l0,0l-3.2,21.5l7.9,2.6l-1.4,10.1l-15.7,6.6l3.1,27.3l15.9,13.8l0,0
		l-20.4,16.6l0,0l-9.1-15.5l-2.5-20.7l-16.3-4l-16,2.2l0,0l-4.3-7.5l-7.9-3.4l0,0l-1.1-4.7l5.1-9.1l4.4,0.2l5-12.8l-0.8-8.2
		l2.4-10.2l0,0l34.7-5.8l0,0l0.6-0.2l0,0l5.6-2.4l2,0.8l-0.6-3.1l2.8-0.9L493.5,494.4z"/>
	<path id="PH-MDC" class="st0" d="M458.4,1001l2.4,4.1l-3.2-0.5l-0.6-2L458.4,1001z M464.7,994.1l3.8,7.1l-0.8,4.7l1.9-0.9l2.4,3.8
		l-1.8,1.5l-3.7-2.4l-1.3-4.3l-4-1.4l0.6-7.1L464.7,994.1L464.7,994.1z M394,857.1l5.7,2.5l9-0.5l6.3,2.2l6-0.4l8.9,3.2l15.3-3.9
		l0,0l-0.9,9.7l-9.5,14.8l20.4,9.7l15.3,9.7l12.9,4.9l0.5,45.9l-1.7,28l1.2,21.2l0,0l-3.7-3.3l-5.6-0.6h-5.1l0.1-2.5l-2.1-2.5
		l1.7-1.2l2.2,1.4l-0.6-2.8l-1.7-4.9l-2.1-0.8l-1.8,1.8l-3.4-1.5l-12.7-16.2l-0.7-4l2.1-4.1l-1.1-3.7l-7-8.5l-0.9-3.1l-7.2-1.9
		l-0.7-9.9l-2.5-1.9l3.4-7.5l-1.9-2.8l-0.9-4l-0.1-1.2l-3.3-8.8l-9.1-14.7l-4.9-1.2l-4.1-3.2l-5.2,0.6l0.1-4.6h-2.1l-2.5-3.1
		l0.5-2.8l-2.2-6.3l0.8-2.6l-1.3-1.9l-2.8-1.3l-4.9,1.8l0.5,2.7l-1.4,1.3l-4-0.8l-3.9-4.3l-1.2-2.8l3.1-5l4-2.7L394,857.1L394,857.1
		z M381.1,839.7l8.3,3.2l3.2-0.2l1.2,3.1l-3.9-0.6L381.1,839.7z M379.5,822.6l5,3.2l-0.2,2l-2.5,1.5l-5.6-3.7l2.4-0.8L379.5,822.6
		L379.5,822.6z M357.7,819.2l5,1.1l7.1,5.1l2.2-1.2l7.1,9.7l-2.8-0.1l-1.3,1.8l2.2,1.8l1.9-0.7l0.8,2.7l-1.9-0.1l-1.2,1.8l-1.5-3.6
		l-3.6-0.8l-2-2.7l-3.1-0.2l-8-5.3l-0.7-5.7l-2-1.4L357.7,819.2L357.7,819.2z M351.4,815.5l2.5,2.4l-1.2,1.3l-3.3-2.1L351.4,815.5z"
		/>
	<path id="PH-MDR" class="st0" d="M454.3,863.6l9,7l3.6-1.2l1.5-0.2l3.6,0.8l5-0.8l1.9-2.2l7,9.1l0.2-1.2l4,2.2l8.3,11.8l3.8-0.2
		l3,1.5l0.2,9.3l2.8,1.1l4.4-1.8l5.3,3.6v3.4l-5.7,3.9l-2,4l1.3,8.9l-1.8,3.9l1.3,6.2l-2,8.3l7.9,11.6l-0.2,1.5l0.2,2.7l-2.2,4
		l-0.1,0.6l-2.2,4.7l-4.7,3.3l-2.7,0.1l0.8,4.5l-3.9,3.7l0.4,5.2l4.4,4.3l-7.6-0.2l1.5,8.4l-1.5-0.9l-1.7-0.5L497,991l-2.2,0.1
		l-1.3,3.4l-6.2,1.1l-3.7,8.4l0,0l-1.2-21.2l1.7-28l-0.5-45.9l-12.9-4.9l-15.3-9.7l-20.4-9.7l9.5-14.8l0.9-9.7l0,0l2.5-1.5l3.2,0.9
		l1.2,0.1L454.3,863.6L454.3,863.6z"/>
	<path id="PH-PLW" class="st0" d="M27.4,1460.4l0.6,6.2v1.5l-0.4,1.4l1.3,9.3l-2,0.9l1.2,1.9l-1.9,4.1l-3.7,3.3l-0.2,0.6l-1.5,0.4
		l-2-1.3l0.7-3.9l-1.9-0.4l-3-6.5l-2.2-0.1l-0.7-2.5l1.8,0.7l2.4-2.4l-1.8-5.2l1.9-6l0.2,4.1l3.9-3l-0.8-2.1L27.4,1460.4
		L27.4,1460.4z M22.6,1454.4l2.4,1.3l1.3,3.7l-5.1,1.4l-0.7-2.2l-2.1-0.7L22.6,1454.4L22.6,1454.4z M34.8,1448.9l5.2,0.1l1.9,2.7
		l-6.3,0.2l-1.9-2.4L34.8,1448.9z M29.3,1441.4l2.7,0.7l1.3,2.8l-4.6-0.1L29.3,1441.4z M54.7,1433.1l3.2,3.7l-0.6,8.9l-5.8,3.4
		l-3.3-3.3l0.6-10.4l1.2-2L54.7,1433.1L54.7,1433.1z M44.6,1434.4l3.1-0.4l-0.2,2.8l-4,2.8l-4.9,0.7l-1.4-3.3l3.3-0.5l4.1-5.3
		L44.6,1434.4L44.6,1434.4z M256,1183.8l-0.2,1.7l1.5-1.1l-2.4,1.4l-1.3,2l-2.5,0.1l1.8-2.4l-1.7-1.8L256,1183.8L256,1183.8z
		 M328.8,1176.8l3.7,3.3l0.7-1.4l3.9,4l8.5-0.2l2.2,3.9l-2,1.7l-0.8-2.1l-0.8,2.6l1.4,1.7l-3.9,1.3l-0.4-1.9l-1.5,3.4l-2.2-1.3
		l-0.7-3.2l-2.1-0.5l4.3,7.3l-1.2,1.1l-6.2-1.2l2,2.6l-7.6,2.2l-4.6-2.5l0.2-7l-1.8,1.1l0.1-3.8l1.5-1.4l3.2,2l1.2-4.3l3.3-3.2
		L328.8,1176.8L328.8,1176.8z M464.7,1148.3l0.9,1.5l-2,2l2.2,2.2l-2.5,1.8l0.7,3.4l-4.7,1.1l-2.6-3.4l0.6-3l4.5-1.8l0.6-3.4
		L464.7,1148.3L464.7,1148.3z M270.1,1135.6l1.4,0.8l-1.8,3.6l1.3,2.7l-0.8,1.2l-3.3-3.8l0.7-4l1.8,0.7L270.1,1135.6L270.1,1135.6z
		 M315.5,1131.7l1.8,3.1l-2.6,0.1L315.5,1131.7z M313.4,1130l1.1,0.9l-2.5,3.9l-0.5-2.8L313.4,1130z M302.1,1127l0.6,1.4l3.9,0.2
		l-0.7,2.7l2.7,3.9l-1.1,3.3l-0.5-3.1l-2.1,2l-1.3-3.2l-4-1.1L302.1,1127L302.1,1127z M313.3,1124.4l1.2,3.4l-2.2,1.9l0.7-2.1
		l-1.9-3L313.3,1124.4L313.3,1124.4z M454.8,1118.8l0.7,2.1l-2.4,2.4l-2.2-0.1l-0.7-2.1L454.8,1118.8z M304.3,1116.8l2.5,0.7
		l-0.4,2.7l-2.1,1.3l-1.1-1.2l-0.2,2.2l-3.4,0.4l-0.7-3.9l3.6-0.2l0.4-2L304.3,1116.8L304.3,1116.8z M314.1,1102.5l-1.9,6.5l-2.4-4
		L314.1,1102.5z M290.5,1091.1l3,1.1l0.6,9.2l3,1.2l1.8-2l1.7,5.4l-3.3,13l-4.1,4.6l4,7.1l2.6-1.7l-1.1,2.6l2,6l-0.8,1.2l-2.7-1.9
		l-3.8,0.6l-2.1,14.7l2.7,1.5l0.2,3.6l2.6,1.8l4.4-2.8l2.7,1.8l-0.1,1.5l-2.1-0.4l1.8,1.5l-2,1.7l2,1.4l-0.9,2.8l1.5,2.2l-3.3,6.7
		h4.5l2.6-3l2.4,1.9l-0.9,0.9l2,1.1l-5-0.4l1.9,2.7l-1.5,1.5l3.2,1.4l1.8,7l3.6,0.2l-1.2,1.7l1.7-0.5l0.9,2.6l-4.4,1.7l-4.7,5.6
		l-5.2,2.2l-1.8,5.6l-6.5,1.3l-5.9-1.5l-3.2,2.6l-6,0.7l-2.2,3.4l-3.2,0.4l-8.8,12.2l-2.7,13.6l-2.4,3.3l-24.5,7l-8,1.1l0.1-1.7
		l-5.3,2l-3.3,3.7h-5.3l-2.4,1.2l-1.1,9.7l3.6,4.9l-0.5,8.2l-4.3-0.9l0.7-2.6l-1.5-3.8l-1.1,2l-1.9-0.7l-0.7,1.4l0.4,5.7l3.8,0.5
		l0.1,0.8l0.6,2.1l2.8-0.7l-0.1,2.2l-2.7,1.8l-0.5,1.4l-5.7,7.7l-3,1.7l-1.5,5.1l-1.8,0.1l-6.2,9.2l-0.2,0.7l-2.8,2.8l0.2,3.3
		l-5.7,5.7l0.1,1.7l-2.5-0.9l-2.6,2.8l-1.3-0.4l-1.1,3.8l-2.7,0.2l-5.7,7.1l-5.4-0.5l-8,2.7l-1.3-1.3l-6.6,3.8l-2.6-1.2l-2.1,4.7
		l-0.2,5.6l-3.7,0.6l1.8,1.8l-0.5,1.8l-2.5,0.6l0.8,1.5h-1.2l-4.3,9.9h-1.7l0.2,2.7l-12.8,5.7l-5.2,6.4l-3.6,0.4l-3.1,5.7l-4.1,3.1
		l-5.4,0.2l-7.6,3.1l-6.3-1.8l-3.3,3.4l1.3,5.1l-5.1,10.5l-1.5,0.7l-3.3-3l-1.9,2.2l-0.8,0.7h-6.4l-0.5,2l-11.6,7.5l-2.8,4.3
		l-3.2,0.8l1.2,1.2l-1.2,1.8l-3,0.1l-0.4-4l4-6.7l0.4-10.1l2.5-2l-0.2-3.1l3-1.3l-1.2-3.2l1.9,0.8l2.5-6l4.1-1.9l1.1-2.7l-2.2,0.2
		l4-5.2l7.1-1.5l-0.6-3l4-2.8l1.3-4.9l1.9-0.6l5.1-8l1.4-0.1l0.6-2.6l3.9-0.5l4.1-4.1l0.8-5.3l3.8-3l2.5,0.2l0.5-1.9l1.1,2.8l5-0.5
		l1.4-6.2l2.2-2.1l-0.5-2.2l3.9-3.7l1.7,1.1l2.5-2.8l1.3,0.6l4.9-5.7l5.1,1.1l3.2-3.2l0.2,3.9l4,0.1l0.5-2.4l2.7-1.4l0.4-2.4
		l1.9,0.2l1.9-2v-1.9l4.3-0.9l-1.2-3.4l1.2-2.5l6.4-1.4l1.3-6.6l4.4-2.4l6.6-7.8l3.4-1.9l1.2-7.5l1.8-0.9l2,1.3l3.4-2l1.4-4.6l9.9-6
		l6.3-9.3l4-2.8l1.1-2.5l-1.1-2.5l4.4-2.1l-0.1-2.8l2.1-1.7l-2-3.2l1.7,0.6l4.9-4.4l2,0.2l0.4-3.8l2.1-1.4l1.8-5.4l1.3,7l0.2,1.2
		v3.9l2,0.1l1.5-0.8l0.1-4.4l3.2-4l-3.6-1.2l-0.1-8.4l3.6,0.6l2.8-2.6l3.3,1.5l4.9-1.3l1.4-4.9l-1.7-1.3l2.7-0.6l-3.2-2.1l1.2-1.2
		l2.5,1.7l0.6-2.8l2,0.9l1.7-1.2l-1.1-1.1l1.3-2.4l2.2,0.4l-1.2-3.9l-4.5,3.2l-1.1-2.7l3-2.2l-0.7-1.8l2.8,0.4l1.4-1.4l4.1,3.1
		l1.4-2.4l-1.3-1.4l3,0.5l1.5-1.8l-2-1.1l-1.4-0.8l0.4-1.4l0.6-1.9l0.9,1.1l0.6-1.5h1.9l0.8,1.4l-1.8,1.4l2.1,1.5l-1.2,3.8l2.8,3.2
		l0.4-2l3.7-1.3l4.4-7.7l4.4-0.2l1.4-3.3l-4.3-3.8l4,0.9l5.7-5.8l2.7-16l-4-4.3l-3.6,1.1l-1.3-7.3l-5.8-1.9l0.2-1.3l3.7,0.1
		l-0.5-1.3l0.4-1.5l1.7,0.1l-2-2.6l-3,0.4l2-3.2l-1.9-0.6l0.6-1.7l2.4,0.4l0.2,4.4l1.5-0.7l-0.8-1.8l1.7-1.7l2,1.3l-1.1,1.3l2,1.4
		l-1.8,2l2.4,0.2l-3.7,2.4l4.6-0.1l-2.7,2.6l3.2,2l0.6-1.9l1.7,4l1.3-1.9l1.3,0.7l-1.3,2.4l4.5,0.7l1.9,2.2l-0.7,1.9l2-1.2l1.7,5.2
		l3.4-0.6l-3.1-8.3l-0.2-3.4l2,0.2l0.2-1.7l-4.1-1.4l-0.2-1.7l-4.5,1.5l-0.8-1.7l-1.8,0.2v-2.6l-1.7,0.1l3-4.9l-1.3-1.2l-2.4,1.5
		l-2-1.1l0.4-1.1l-1.1-6l1.9-3l2.2,4.5l3.7-1.3l-5.1-3.7l1.8-2h-2.2l0.4-5.6l1.7,2.4l1.5-0.4l-0.7,1.7l2.7,3.3l4.7,0.7l-0.2-8
		l1.4-3.2l-1.9-0.7l-1.1,1.4l-0.5-3.9l2.2-4.6l-0.7-11.2l1.8-0.6l0.6-3.2l2.1,1.5l2.5-3.4L290.5,1091.1L290.5,1091.1z M327.3,1080.6
		l5.3,1.1l0.9,1.9l-0.2,4.4l-4.1,8.2l-1.3,0.2l-2-2.7l2.5-1.4l-0.2-1.5l-2,1.4l-2-1.1l-1.4,3.4l-1.8-3l-3.3-1.3l0.8-2.2l-2.5-1.2
		l1.8-1.7l-0.1,1.4l4.6,3.1l-0.4-2.2h2.1l-2.5-2l1.5-0.2l-0.1-1.7l2.7,4.5l1.4-0.4l-0.6-1.9l2.8,1.7l-1.2-2.8l2.6-0.4L327.3,1080.6
		L327.3,1080.6z M363.2,1053.5l3.7,0.1l0.4,1.9l-4.4-0.6L363.2,1053.5L363.2,1053.5z M366.9,1051.5l1.9,0.8l0.4,2.7l-3.3-3.6H366.9
		L366.9,1051.5z M337.3,1029.9l2.2,2.4l5.3,1.1l-3.3,0.6l1.2,3l-1.2,0.5l2,0.6l-0.1-2.5l1.8,1.1l1.8-1.8l3.3,0.4l0.5,1.8l-4.4,1.9
		l3.9,0.5l2,3.3l0.7-1.4l2.8,1.5l-5.8,2.1l3.3,0.4l-2.4,1.7v2.1l1.4-0.9l3.4,2.8l-4.3,3.4l2.6,0.1l-0.9,4.3l-7.6,5.7l-1.2,0.1
		l-1.3,0.7l-1.5-0.4l1.1-1.2l-1.4-0.6l-0.1-5.9l1.7-1.2l5.3-5l-1.9,0.2l-1.3-0.6l-1.1-1.1l-0.1,4l-3.7,0.5l-2.5-3.6l-1.4-4.1
		l2.2-1.5l-5-5.8l0.2-3.7l-2.7-2.1l0.8-0.8l4.1,3.4l0.4-2.2l-2.1-1.1l-0.2-1.9L337.3,1029.9L337.3,1029.9z M374.7,1029l2.6,1.7
		l0.5,3.8l-3.1,3.1l4.3,0.1l0.6,2.5l-0.2,1.5l-3.8,1.5l-1.1,0.9l-6.2-9.8L374.7,1029L374.7,1029z M336.3,990.7l3.2,1.1l-0.4,2.2
		l1.8,1.7l-1.1,1.3l9.2,1.8l3.7,3l1.7,4.1l4-1.2l-0.1,2.7l7,6.2l2.5,0.4l0.1-2.2l2.7,0.6l-0.8-3.2l1.4-4l-1.5-2.6l1.4-0.7l0.6,3.1
		l2.1-0.1l0.4,7.6l1.4,0.7l1.7-2.1l1.3,3.2l1.7-0.5l0.6,2.2l2.7,0.8l0.9,4l-1.8,2l1.8,2.7l-0.5,2.2l-1.9-0.9l-2.1,2.1l-5.1-2.7
		l-3.1,2.7l-5.2-2.8l-0.8-2.4l-1.4,0.9l-2.7-1.2l-0.9,1.4l1.5,1.8l-1.2,1.3l-0.8,1.3l-2.1,2l-2.1-2.8l0.8-1.3l-3.7-2.1l-0.7,2.6
		l-3,0.8l-0.7-2l-3.9-0.4l-0.7-1.7l-0.5-4.5l-1.8,0.8l-1.7-2l-0.5-1.5l-0.2-5.4l-3.4-3l-0.5-4.3l-1.8-0.1l-3.1,6.2l-0.4-3.2l2.8-5.2
		l-1.8-1.2v-2l0.8-1.9l1.3-2.2l-1.7-2.2L336.3,990.7L336.3,990.7z"/>
	<path id="PH-PAM" class="st0" d="M388.1,673l2,0.4l20.2-10.7l7.1,0.1l2.1-1.4l4.5,1.5l4.6-2.6l0.4,1.9l3.1-0.5l0,0l1.7,7.1l6.7-0.1
		l2.2,4.5l3.6-4.9l5.9-1.2l0,0l0.1,4.7l-1.4,2.4l4.7,5.9l-1.8,2.5l-0.4,5l-3.1-0.1l-1.9,4.6l-0.4-1.4l-2.2,0.5l0.2,3l-7,5.7
		l-9.6,0.8l0.1,3.6l-4.9,7.7l0.5,2.1l-5.3,3.3l0,0l-0.9,0.7l-3.7-3.3l-3.7-1.9l0.7-1.4l-1.8-0.5l0,0l-2.8,0.7l-3-1.8l-2.4-3.1
		l-0.6-4.9l-4-2l0,0l-1.1-3.8l-3.4-3.1l0.2-5.9l-1.9-3.9l-4.3-3.1l-0.8-3.4L388.1,673L388.1,673z"/>
	<path id="PH-PAN" class="st0" d="M346.4,539.6l1.1,3l2.5,0.9l-2.6,4.1l2.1,4l-2.7,2.1l-3.2-5.2l-1.8,0.1l0.4-1.7l-1.8-1.5l-1.4,1.2
		l-0.5-1.5l2.8-1.3l-0.6-1.4l1.3-1.2l-0.4,2.4l1.8,0.8l0.4-4.4L346.4,539.6L346.4,539.6z M338,602.3l-2.7-1.4l0,0l-0.6-1.1l3.4-2.6
		l-5.6-13l-1.7-1.8l-0.2,1.3l-3.4,0.4l-0.8,3.8l-2.1-1.1l-1.4,2l-2.5-5.7l1.1-5.3l1.7-1.3l-2-2.8l0.7-6.6l2.1-3.1l-1.2-3.4l-2-0.8
		l3.3-7.8l-1.2-1.1l0.7-6.7l3.9-5.7l4.4,0.1l3-4l4.5,2.8l-1.1,14.3l1.5-0.9l3,1.5l0.8,0.5l1.8,0.8l-0.5,2l3.2,1.4l1.8,2.8l1.1-2.6
		l1.5,0.8l0.5,0.6l2.7-0.1v1.8l1.7-0.8l2.6,2.8l-0.6,1.2v1.1l-1.9,2l2.7,3.2l-1.7-0.2l-0.2,1.3l5.2,3.3l8.6,0.5l11.1-3.8l0.4,1.1
		l10.4-11.7l-0.8-5.2l0,0l9.2-0.4l1.4-2.8l0,0l15.6,5.6l12.4-1.5l0,0l7.9,3.4l4.3,7.5l0,0l4.6,14.3l-7,17.9l-3.9,3.2l-8.6-6.7
		l-14.3,2.4l0,0l-2.7-6.4l-4.4,13.4l-7.3,4.6l-9.7-4l-3.7,4l-0.7,3.7l-3.8,3.3l0.8,2l-7.7,3.6l0,0l-7.5-12.2l-4-11l-7,1.4l-6.2-3.9
		l-4.1,6h-3.8l-1.1-2L338,602.3L338,602.3z M340.3,530.7l3.1,3.8v2.7l-5.6-1.8l0.2-4.1L340.3,530.7z"/>
	<path id="PH-QUE" class="st0" d="M539.7,810.5l3.7,0.5L543,814l1.8,1.5l-1.2,2.1h-1.2l-2.8-0.5l-1.5-1.1l-0.2-2.8L539.7,810.5z
		 M562.5,781.4l17.9,12.9l6.9,8.9l-3.6,0.7l-11.1-7l-2.1-3l-5.7-2.4l-7.9-9.2l1.9-4.7L562.5,781.4L562.5,781.4z M547.5,770l2.7,0.5
		l-3.6,5.7l-1.9-5L547.5,770z M611.2,722.2l3.1,3.1l-1.5,1.5l-12.8,1.3l3.1-3.9L611.2,722.2L611.2,722.2z M580.9,711.1l5.4-1.8
		l1.7,1.7l-0.8,2.6l4.7,2.5l2.6-0.5v7.2l-1.7,0.7l-1.4-3.4l-13.4-6l-1.4-4.1l2.7,1.2L580.9,711.1L580.9,711.1z M568.8,705.4l0.4,1.3
		l3.9,0.1l2.4,3l-2.5-1.4l-2,1.5l-2-0.6l-1.3-3.1L568.8,705.4L568.8,705.4z M560.9,685.4l2.7,0.8l-0.5,1.4l2.4-0.8l3,1.7l-1.1,2.5
		l4.4,0.2l0.7,4.9l-0.2,1.2l-2.6-4.5l-2.2,0.5l-2.1,3.4l3.1-1.2l0.2,5.4l-4.5,2.2l-1.3-0.7l1.5,7.5l3.1,0.9l1.5,2.6l1.5,10.8
		l-3.7,5.4l-7.1,4.5l-2.6-1.5l-1.3-4l0.2-5.4l1.4,2l2.1-0.6l-3.2-10.2l-3.3-3.7l-4.9-13.5l-1.2-0.1l0.8,3.2l-1.1-0.9l-1.2,1.4
		l-0.9-1.4l2-7.2l1.9-0.7l0.1-3.6l2.1-0.1l1.1,2l7.2-3.9l1.5,1.5L560.9,685.4L560.9,685.4z M494.3,692.1l1.1-2.5l-1.1-2.8l6.2-9.2
		l0.2-3.3l-2-1.9l2.5-0.8l-0.4-2.4l2-1.7l0,0l3.1,2.1l1.5-0.8l2.2,2.6l2.7,14.2l6.6,9.7l1.5,8.8l3.4,4.3l-1.3,3l14.4,14.8l-3.6-0.7
		l-1.7,0.1l-5.6,3.9l-1.8-2.1l-1.8,3.8l6.2,28.6l7.3,7.8l0.2,6l3.3,3.2l-0.5,4.5l-2.8,3l0.6,1.7l4.3,4.9l-1.1-1.2l19.9,16l16.8,7.3
		l9.9,0.8l4.6,2.2l1.3-5.3l-4.9-1.9l-1.9-3.9l12.8,4.1l0.7-1.7l-1.4-2.1l2.5-0.9l0.7-2.1l-3.7,0.2l-0.2-2.4l-10.4-6.2l-3-5.3
		l0.2-2.1l2.5,2.2l-0.6-2.7l3.7-3.1l1.9-0.5l1.3,1.9l0.5-7.3l2.5-0.4l0.5,1.2l-1.9,7l1.5,1.3l-0.6,4.3l2,0.5l2.7-1.9l-1.1,6.2l0,0
		l0.1,1.7l7.1,0.4l8.4-9.3l38.1,15l0,0l-26.7,7.2l0,0l-2.2-1.2l-0.4,4.3l-8.2-0.4l-3.4-3l7.5,11.7l4.3,3.6l-1.5,0.7l-0.1,4.4
		l1.7,4.3h-3.6l-1.3,2.2l2.5,5.3l-0.6,2l5.3,5.1v1.9l9.7,6.2l0.1,1.5l-1.9,0.2l-3.9-5.3h-2l9.5,12.9l2.8,7.5v11.7l1.5,0.7l1.3,5
		l-5,1.7l-6.4,5.2l-3.8-1.9l-6.5-7.1l2-4.3l-1.4-1.7l1.4-1.8l-0.7-4.3l-3.1-6.6l-8.3-8.5l-1.3-4.4l-7.7-4l0.7-1.8l-1.8-1.5l-3.4-0.1
		L597,852l-2.1-0.8l1.8-1.3l-1.3-1.4l-6.4,0.5l-0.6-4l-5.7-9.1l-1.3-0.1v-2.8l-4.3-4.5l-2.8-0.6l-2,1.8l-3.3-2.4l0.4-1.2l-5.1,0.1
		l-0.9-3.9l-8.9-2.5l-2.1-3.8l-1.8,1.2l-2.2-1.9l-1.1,1.2l-1.8-2.6l0.8-3l-1.2-0.9l-2.4,1.1l-3.8-3.2l-5.9,0.8l-0.7,1.3l1.9,3.1
		l-9,1.7l-0.9,2l-1.5-1.5l-11.8,5.7l-4.1,3.6l0,0l-7.9-3.3l-1.7-2.2l-10.5-0.8l-3.8-5.3l0.7-1.8l2.4,0.1l-0.5-2.8l0,0l7.5-2.5
		l11.1-8.8l6.7-1.1l3.3-8l2.8-2.8l1.8,0.1l7.2-10.2l-0.8-14.9l-3-0.4l-2.5-2.4l-1.7,1.1l-9.7-18.7l0,0l-13-23l-0.6-12.5l0,0
		L494.3,692.1L494.3,692.1z"/>
	<path id="PH-QUI" class="st0" d="M501.7,506.4l16.3,1.3l21.7,27.2l35.7-16.3l5.4,0.4l0,0l-7.3,4.7l-25.1,29.5l-40.2,35.3l0,0
		l-15.9-13.8l-3.1-27.3l15.7-6.6l1.4-10.1l-7.9-2.6L501.7,506.4z"/>
	<path id="PH-RIZ" class="st0" d="M483.4,767.2l0.2,4.3l-2.8-6.9l0.8-7.9l1.9,8.4l2.7,1.2L483.4,767.2L483.4,767.2z M485.7,747.2
		L485.7,747.2L485.7,747.2L485.7,747.2L485.7,747.2L485.7,747.2L485.7,747.2z M485.1,747.3L485.1,747.3L485.1,747.3l0.2-0.2l0,0
		L485.1,747.3L485.1,747.3z M485,746.2h0.1l0,0H485L485,746.2L485,746.2L485,746.2z M494.7,704l0.6,12.5l13,23l0,0l-5.7,2L498,746
		l-1.7,6.9l1.7,6.5l-0.8,3.6l2.2,2.5l-8.6,6.2l-0.4-4.3l3.8-9.3l-1.4-5.7l-2.5-2.6l-2.4-0.1l-0.4-3.1l-3-0.5l-2,4.9H481l-0.4,7.1
		l-5.7-11.5l-3.1-2.2l-3.3,0.4l0,0l-1.3-4.3l1.8-2.6l-0.8-4l2.8-0.9l0.5-2.6l-3.1-2l3-7.1l-1.9-0.1l-0.1-2.1l0,0l7-5l0.5-2.6
		l8.3-1.7L494.7,704L494.7,704z"/>
	<path id="PH-ROM" class="st0" d="M559.4,1016.4l2.7,3.6l-0.8,3.8l-4.9-3.4l0.5-2.4L559.4,1016.4z M626.1,971l11.8,2.5l4.7,9.1
		l-1.8,8l-5.3,5.1l0.1,1.8l-2.7-3.2l-5.2-1.8l-2.4-5.4l-10.1-4l-2.7-4l0.5-2.5l3.7-3.4L626.1,971z M597.5,957.6l1.4,0.8l1.1,6.5
		l2.2,2l0.1,3.9l-2.8,3.1l-3.3-1.3l-2.5-4.5l1.4-1.4l-1.9-3.3l2.6-0.5L597.5,957.6L597.5,957.6z M579,952.2l4.1,1.7l0.9,3.1
		l-3.6-0.4l-0.8,1.9l1.9,4.1v4.9l-3,4.4l-2.6,20.6l-5.1,9.5l0.2,4l1.3-0.6l1.5,1.9l-0.9,1.1l-1.5-1.1l-2.4,2.6l-1.1,6.4l-3.4-4.7
		l0.7-2l-2.7,0.5l-0.8-3.7l1.1-5.6l0.8,4.5l1.5,0.9l3.2-4.9l-4.1-3.3l-1.4,0.7v-2.1l-1.9-0.1l-0.6-2.2l-1.9,1.2l-0.7-3.6l1.9-1.8
		l-1.2-1.2l1.5-5.3l5-1.8l2-3.9l1.1-5.6l-2.6-8.5l1.1-3.1l4.3-2.6l3.9-0.2l4.6-3.8L579,952.2L579,952.2z M575.7,934l-2.7,6l-3.2-0.2
		V938L575.7,934z M534,921.6l3.6,2.2l-2.2,3.8l-3.9-3.8L534,921.6z M575.2,920.2l1.9,0.5l-1.1,4.4l-3.4,1.4l-0.6-3.6l-2.1-1.5
		L575.2,920.2z"/>
	<path id="PH-WSA" class="st0" d="M876.1,1061.3l3.1,0.2l1.1,1.9l2.2-0.6l0.5,1.7l-2.5,1.8l1.1,2.8l-5-0.8l0.4-4.1l-2-1.7l0.2-2.7
		L876.1,1061.3L876.1,1061.3z M865.1,1057.6l0.8,2.7l1.9,0.7l-0.2,2l3-1.5l-1.5,2.5l4.4,2.6l-2.1,2.8l0.8,2.1l1.2-0.9l4.9,0.9
		l-2,2.5l0.8,3.6l-1.8,1.9l-3.6-2.1l1.5-2l-4.4-0.9l-0.5-3.8l2.2,1.4l0.7-1.3l-4.4-4.7l-1.4,1.1l-0.6-3.8l-1.2,0.8l0.5-3.1l-0.8-1.2
		l1.4-0.9l-1.5-1.3H865.1L865.1,1057.6z M867.3,1056.2l3,1.5l-1.5,3.1l-2-1.4L867.3,1056.2L867.3,1056.2z M855.2,1036.1l0.2,1.3
		l2.1-0.1l-0.7,2.2l-2.6-2.1L855.2,1036.1L855.2,1036.1z M834,1035.2l1.9,4.4l-1.8,0.9l-3.7-1.3l0.6-3.3L834,1035.2z M821.4,1031.7
		l0.7,2.4l-3.1,4l-3.6,0.5l0.1-3.4L821.4,1031.7L821.4,1031.7z M831.3,1028.4l1.4,1.4l-1.1,2.4l-2.5-1.2v-2.1L831.3,1028.4
		L831.3,1028.4z M809.6,1018.1h1.4v2.6l-2.5-0.9l-4.3,4l-3.3-1.7l2.5-3.4L809.6,1018.1L809.6,1018.1z M824.1,995.8l7.8-0.1l6-5.8
		l17.3,10.3l7.9-5.4l14.1,8l-1.3,4.9l2.8,4.1l5.4-12.8l7.5,2.7l14.3-5.9l5.2-0.5l0,0l-0.8,11.1l-3.7,2.4l0.2,19.1h10.2l6.7,15.6
		l1.3,19.6l-6.6,4.9l-1.5,3.9l2.7,17.2l5.9,2l2.4,3l-6.3,9l0.5,22.1l0,0l-1.9,3.6l-3-1.4l-1.5-9.3l-4.9-10.3l-8.6-1.2l-7,2l-3.1-1.8
		l-0.6-4.3l2.6-3.4l-1.3-7.6l-2.2-1.2l-0.5-2.5l-2,0.5l-4.1-2.4l0.4-2.1v-0.8l-2-1.2l0.1,5.1l-1.2-1.2l-4.1,0.8l-2.1-2.8l1.2-0.8
		v-1.4l2.8-5l1.5,2.4l2.4-0.6l0.6-1.5l-2.4-0.6l0.5-2.1l7.2,0.6l2-1.4l-0.9-1.4l3.1-2.2l-1.2-6l6-4.7l1.2-2.4l-0.4-2.6l-4.5-2.1
		l-9.6,4.4l-2.5-1.5l-0.6-2.7l-2.5-1.4l0.1-2.4l-9.1-5.6l0.4-1.7l2.5-1.1l-1.1-1.9l-3.1-0.5l0.6,1.2l-3.3,0.2l1.3-2l-0.8-1.4
		l2.8-1.1l-6-1.2l-1.3-3l0.9-0.5l-2.1-2.5l-0.4-0.8l-5.4-4.9l-4.5-1.4l-7.5,0.2l-8.4-8.2l-0.2-2.1l-6.5-4.5L824.1,995.8L824.1,995.8
		z"/>
	<path id="PH-SAR" class="st0" d="M938,1749.1l3.4,1.8l-0.8,5.9l-1.5-1.2l-6.3,1.1l-0.2-2.1l-2.1-0.4l4.5-4.3L938,1749.1z
		 M946.7,1742.6l2.2,3l-0.8,5.1l-2.4,3.6l-2.1-5.1l2.4-2.2l-1.9-1.2l3-0.1l-1.5-1.4L946.7,1742.6L946.7,1742.6z M828.4,1664.3
		l16.2,7.1l4.1,4.5l8.6,2.8l14.3,7.7l24.4,0.8l3.9-6v10.7l5.4,0.5l0,0l-0.4,4.5l-2.4,2.2l1.3,2.2l-1.5,1.5H886l-11-3.3l-20-10.4
		l-4.1-0.2l-2.8-3.2l-6.5-0.8l-10.1-7l-8-3.4l0,0L828.4,1664.3z M913.2,1636.2l8.5,4.5l7.7-3.4l3.4-5.3l7.8,2.4l6.7,9.9l0.7,6
		l-3.7,4l5.1,7.7l0.6,10.5l3.1,3.4l-0.4,5.4l-5.9,16.3l0.8,6.3l-1.9,1.3l-0.1,3.1l-8.2,17.2l-9.5,7.1l1.5,2.1l0,0l-3.1-1.4l1.7-5.2
		l-2.4-6.7l-5.3-2.8l-2.2-5.3l-3.8-0.7l0.7-1.4l-1.8-1.7l0.7-4l3,1.4l1.5-3.9l-0.7-2.7l6.3-3.3l-0.7-1.9l2.8-4.6l-2-11.6l-3.6-1.5
		l0,0l-0.6-8.2l4.1-7.3l-0.2-3.6l-21.4-7.7l4.3-8.8h3l1.7-4.5L913.2,1636.2L913.2,1636.2z"/>
	<path id="PH-SIG" class="st0" d="M741.7,1325.7l3.2,0.6l3.1,6.4l2.7,1.5l-3.2,3.7l5,4.9l-2.2,2.6l-4.4-0.5l-1.9,2.6l-3.8,0.8
		l-3.2-0.7l-11.7-10.2l1.9-3.4l3.3,1.2l6.5-1.4l3.6-2.7L741.7,1325.7z"/>
	<path id="PH-SOR" class="st0" d="M779.5,904l2.6-0.4l5.4,6.4l4.7,2.1l2.1,3.4l2.5-6.5l2.7-1.8l6,0.9l0.9,1.4l-0.1,2.1l-0.7,0.6
		l1.1,1.3l-2.8,1.7l-0.7-2.6l-0.9,0.9l-1.7,9.5l-2.8,2.6l1.1,2l2.2-0.5l0.9,9.7l-2.7,8.6l0.5,6.9l-4.5,3.8l1.8,4.6l-2.7,1.3l1.5,1.9
		l-2,3.3l-10.1-0.9l-5.8-6.2l-0.2-3.1l-1.9,1.1l-0.8-2.5l-3.8-1.8l-5-19.2l0.6-0.9l3.1-2.6l-0.6-1.7l8.3,3.4l1.4-3.4l4.1-0.5
		l1.1,1.9l2.4-1.5l2.7-5.8l-2.1-4.9l-6,2l-3-0.4l-2.1-2.4l-3.9,0.2l-0.2,3.2v1.3l-2.5,1.8l-0.5,2.6l-2-0.7l-0.8,3.2l-1.3-1.7
		l-2.2,3.1l-3.7-2.7l-0.1,2.6l-3.1,2.1l-0.6-3l1.8-1.2l-1.2-1.7L753,929l-0.2,0.6l-1.5,1.4l-2.1-4.9l1.1,0.6l0.5-1.4l-0.5-0.7
		l-3.8,3l1.5,0.8l-1.1,2.1l-6.9-3.8l-3.4-4.5l-2.1-0.5l-0.9,1.3l-5.3-5.8l0,0l10.2-4.7l6,2.2l4.5-1.8l7,0.2l3.8,4.3l9.7-6.2h5.1
		l3.9-8.6l0,0L779.5,904L779.5,904z"/>
	<path id="PH-SCO" class="st0" d="M828.4,1664.3l-8.6-3l-4-9.5l28.8-0.8l5.7,2l5.4-9.1l-0.5-4.9l-2.2-1.3l0.1-3.4l-1.3,0.1l-0.8-2.8
		l4.3-11.7l1.5-0.7l1.9,3.1l8.4-7.8l9.1,15.1l39.6-0.5l0,0l0.2,2.8l-3,4.5l0,0l-1.7,0.6l-1.7,4.5h-3l-4.3,8.8l21.4,7.7l0.2,3.6
		l-4.1,7.3l0.6,8.2l0,0l-8.3-0.8l-2.4,9.2l-4.4,7.1l0,0l-5.4-0.5v-10.7l-3.9,6l-24.4-0.8l-14.3-7.7l-8.6-2.8l-4.1-4.5L828.4,1664.3z
		"/>
	<path id="PH-SLE" class="st0" d="M910.7,1179.9l4.6,5l-3,4.7l3,6.6l-1.3,5l3.9,4.9l2.7-1.1l2,2.6l1.1,8l-1.5,4.4l-3.7,1.3l-9.6-3.2
		l0.8,11.5l-1.2,1.2l3.8,3.2l5.3,0.6l3.4,9.6l3.9,5.2l-0.9,2.6l2.8,3.9l-0.7,2.1l-3.9,0.1l-0.8-3.8l-2.7-1.5l-4.1-8.3l-5.6-2.7
		l-2-5.6l0.6-7.1l-4.3-4.4L897,1208l-1.8-1.3l-4.3,0.8l2,13.1l-1.1,4.6l5.1,13.8l0.5,9.1l-10.1-8.4l-3.4-0.9l-1.7-3.6l-12.3-1.3
		l-2.2-2.7l0.2-3.7l0,0l1.8,0.7l7.9-7.6l5.8-1.2l-0.7-15.4l5.1-13.3h12.4L910.7,1179.9L910.7,1179.9z"/>
	<path id="PH-SUK" class="st0" d="M795.9,1605.6l18.1-0.4l1.9,3.2l25,0.1l7.6-7.9l-2.6-7.2l11.1-2.4l-0.2,1.4l4.4,0.2l-3.2,9.2
		l8.8,0.2l3.6,12l2.2,2.6l9.5-0.7l12.9-7l0,0l12.8-3.9l0,0l3.4,2.6l-2.1,0.9l0.1,4.6l5.2,6.4l1.7,9.3l0,0l-39.6,0.5l-9.1-15.1
		l-8.4,7.8l-1.9-3.1l-1.5,0.7l-4.3,11.7l0.8,2.8l1.3-0.1l-0.1,3.4l2.2,1.3l0.5,4.9l-5.4,9.1l-5.7-2l-28.8,0.8l4,9.5l8.6,3l0,0l0,0
		l0,0l-4.9,10.3l0,0l-3,0.5l-15.3-10.5l-1.9-6.7l-6.6-5.2l-3.1-7.3l-1.3-1.1l-1.3,2l-2.2-5.1l0.7-2.1v-0.9l-1.9-6l0.9-1.1l-1.4-0.6
		l0.5-1.5l1.9,0.9l2.2-1.5l-3.1-1.1l1.9-8l-4-9.9l2.8-3.6l0,0L795.9,1605.6z"/>
	<path id="PH-SLU" class="st0" d="M437.3,1740.4l1.9,3.8l-3,2.6l-0.7-2.6L437.3,1740.4z M435.2,1744.8l-2.8-0.8l3.6-4L435.2,1744.8
		L435.2,1744.8z M434.5,1734.7l1.8,1.4l-1.2,3.7l-4.4,2.6l-1.4-3.4l2-3.7L434.5,1734.7L434.5,1734.7z M440.6,1732.7l6,5.1l-2.5,4.4
		l-2.7,1.2l-4.5-4l-0.4-2.1l0.9-3.2L440.6,1732.7L440.6,1732.7z M464.9,1722.2l-3.6,2.7l-3.1-2.6l6.2-1.4L464.9,1722.2L464.9,1722.2
		z M442.4,1720.1l2.4,1.1l-3.1,2.8h-6.9l1.3-3.9H442.4z M457.3,1716.4l1.4,0.7l-0.7,1.8l-1.7-0.9L457.3,1716.4z M448,1714.1l1.5,4.4
		l-4.7,2.4l-0.2-5.2L448,1714.1z M473.1,1704l4.7,1.8l1.7,3.7l-4.9,2.4l-2.5-0.8l-0.9-2.8L473.1,1704L473.1,1704z M340.8,1700
		l2.6,2.6l-4.6-0.9L340.8,1700z M344.4,1701.9l5.4-1.8l-1.3,1.9l-3.9,0.8L344.4,1701.9L344.4,1701.9z M347.3,1694.2l-0.1,2l-0.1,1.3
		l-2-1.1l0.7-2L347.3,1694.2L347.3,1694.2z M521,1690.2l1.2,2.6l-2.8,2.1l-1.3-2.7l1.2-1.3l0.5-0.6L521,1690.2L521,1690.2z
		 M361.1,1692.5l-1.4,0.2l-2.2-2.4l1.1-1.7l2,1.1L361.1,1692.5L361.1,1692.5z M517.8,1684.5l-0.1,1.5l-3.8,2l2.2-4.7h1.8
		L517.8,1684.5L517.8,1684.5z M502.7,1681.7l1.8,2.1l-0.8,2l-4.4-0.1l-0.7-2.1l2.5-2.2L502.7,1681.7z M530.8,1681.7l1.8,1.9l4.1,0.6
		l-6.6,4.7l-1.7-0.9l3.7-3.4l-1.9-1.3L530.8,1681.7z M506.7,1679.2l0.7,1.4l-1.7,1.4l-0.5-2.4L506.7,1679.2L506.7,1679.2z
		 M469,1677.7l4.7,1.5l5.7,8.9l8-2.6l4.1,1.9l5.1-0.4l0.7-0.1l2.6-0.5l2.7,1.7l0.7,3.9l-4.1,2l-0.4,4l-3.4-1.4l-7.5,6.7l-1.7-1.4
		l1.2-0.8l-4.9-1.8l0.9-3.1l-0.9-1.8l-4.5-1.9l-1.4,2.1l-1.2-0.9l-1.1,2l-2.6,0.2l0.1,1.3l-5.8,2l-1.1,1.5l-5.6-5.7l-9.2,4.4
		l-6.6-3.4l-0.7-3.8l5.1-7.8l8.5-3.1l2.2-3.6L469,1677.7L469,1677.7z M541,1677.4l5.3,5.8l5,2.2l9.5-3.6l-4.1,3.8l-6,2.2l-8.6-6
		l-2.2-2.7L541,1677.4L541,1677.4z M406.3,1671.7l2.1,2l-1.5,1.7l-1.5-1.5L406.3,1671.7L406.3,1671.7z M548.8,1671.4l1.2,3.1
		l-3.6,0.1l-0.4-1.5L548.8,1671.4z M397.6,1668.7l0.9,1.2l-1.5,3.3l-4.1-2.1L397.6,1668.7z M546.5,1668.3l1.5,3.1l-2.8,2.1l-1.2-2.5
		L546.5,1668.3z M453.2,1665l2.8,1.4l-0.6,1.8l-2.5,0.6L453.2,1665z M419.2,1652.6l1.4,1.7l-0.5,3l-3.3,3.1l-1.3-1.9l1.8-2.6
		L419.2,1652.6L419.2,1652.6z M441.9,1650.1l1.4,2.5l-3.7,1.2l0.5-3.1L441.9,1650.1L441.9,1650.1z M412.8,1644.4l-2,15.7l-5,1.3
		l-5.9-1.7l0.2-2l4.3,0.7l4-11.8L412.8,1644.4L412.8,1644.4z M425.3,1639.7v4.5l-4.5-0.8l-0.1-1.4L425.3,1639.7L425.3,1639.7z"/>
	<path id="PH-SUN" class="st0" d="M963.2,1278.6l3.9,0.6l-1.4,1.3l0.8,5.1l-1.7-0.6l-0.8-4.6l-2.1,0.7L963.2,1278.6L963.2,1278.6z
		 M1007.1,1278.1l4.5,0.5l-0.1,2.1l-3.9-0.4l-2.8,3.3l0.1-2.2l-3.9,1.5l-0.8-2.7l1.7-0.7l-0.1-1.8l2.8,3.2L1007.1,1278.1
		L1007.1,1278.1z M997.5,1275.3l-0.4,2.7h2.4l0.2-1.3l1.1,2l-1.3,0.7l0.2,3.8l2.6,0.5l0.6,2.4l-2.6,4.4l-0.5,6.2l-2.6,0.9l-0.1-1.7
		l-3.8-2.6l-1.8-1.5l2-1.3l0.5-0.4l-0.4-3.1l2.1-0.1l-1.2-4.5l1.1-0.8l-2-1.9l1.5-0.8l-0.7-3.1L997.5,1275.3L997.5,1275.3z
		 M964.6,1271.6l2.7,4.1l-3.8-1.7h-0.9L964.6,1271.6z M972.9,1271.5l2.5,1.2l-1.5,3.1l-2.8-1.3l-0.6-3.1l1.9-0.4L972.9,1271.5
		L972.9,1271.5z M948.7,1271.4l1.1,3.1l4.4-0.4l1.3,1.9l1.9-0.7l-1.1,1.9l2.6,2.4l-0.5,1.9l2.2,2.8l-1.1,1.7l0.9,2.4l0.4,1.1l5,3.4
		l3.7-0.4l2.7,2l3-0.7l0.1,2.8l11.5,2.7l3.2,2.4v2.2l4.6,0.5l0,0l-18.6,18.8l0,0l-0.8-7.3l-5.9-5l-13.6-2.5l-7.9,0.2l-4,1.8l0,0
		l-6.7-23.9l1.1-12.3l4.3-2.8l-0.4-3.4l2.4,1.4l-0.9,2.1l2.2-0.4L948.7,1271.4L948.7,1271.4z M964.7,1257.9l0.1,5.9l1.7,1.4l3.3-0.2
		l-10.7,5.1l0.6-3l-1.8,1.3l-0.2-2.1l4.6-7.7L964.7,1257.9L964.7,1257.9z M950.7,1258.5l4.1,5.4l-4.7-2.7L950.7,1258.5L950.7,1258.5
		z M1000.6,1252.9l1.3,2l-1.1,3l-2.6,3l-2,0.8l-0.9,1.2l-1.3-0.6l-0.2-1.3l0.8,0.7l5-5l-0.8-0.7l2.4-0.5L1000.6,1252.9
		L1000.6,1252.9z M1010.5,1241.5l6.5,20.6l-0.9,1.4l-1.4,0.7l0.2,0.4l2.5,1.9l2-0.9l0.7,4.3l2.2-0.1l-0.6,2.4l-5.4,4.3l-6.9-0.7
		l-2.8-1.9l-5.9-4.5l-2.5-2.6l1.2-2.1l3.8-0.1l-3.7-2.6l1.8-2.6l0.8-2.5l4.1-5.6l1.5-3.2l-0.7-2.6L1010.5,1241.5L1010.5,1241.5z"/>
	<path id="PH-BAS" class="st0" d="M565.2,1653.9l0.1,2.5l-1.1,0.2l-2.5-1.1l0.6-2.2L565.2,1653.9z M518.6,1610.6l-0.7,1.3l3.3,1.8
		l1.3,5.7l2.5,2.6l0.4-3.9l0.8-1.8l-4.7-3.4L518.6,1610.6z M568.1,1651.5l2.6,0.2l-1.3-2.5L568.1,1651.5z M564.7,1650.6l-1.1-2.5
		l-2.8,1.2l0.9,1.7L564.7,1650.6L564.7,1650.6z M599.8,1617.1l-4.5,0.4l-3.4-2.6l-9.9-0.5l-0.8-5.1l-4.3,0.4l-3.8-4.1l-3,0.9
		l-1.8-0.4l-3.1,1.1l-7.3,7.1l-4.3,1.7l-5.7-2.6l-3.2,3.2l-1.1,4.9l3.3,2.6l3-0.6l3.1,3.2l-1.5,1.8l0.6,4.3l3.6,2.4l1.8,4l4.3,1.8
		l-0.2,2.6l9-0.5l15.6-4.5l1.5-1.5l-0.5-5.9l2.4-6.5l2.8-1.5l7.2,0.5l2.6-3.7L599.8,1617.1L599.8,1617.1z M565.4,1606.1l-1.3-0.9
		l-3.2,1.3l-1.1,3.6l2.5-0.5L565.4,1606.1L565.4,1606.1z"/>
	<path id="PH-ZAS" class="st0" d="M666.5,1477.6l5.1,0.5l12.7-9.2l9.7,0.2v-6l2.8-6l0.8-14.7l16.1,0.8l3.7,1.9l18.3-0.1l0,0
		l1.5,18.7l4.3,2.2l3.7-0.7l0.1,2l0,0l0.5,1.1l0.4,1.3l0.1,1.8l2.7,2.5l0,0l-5.3,13.7l0,0l-6.2-2.5l-11.4,4.4l-4.1-0.5l0.8,3.7
		l-1.1,1.4l2.7,0.6l-0.2,1.9l4.3,2l-0.5,6.5l-1.7,4.3l-8.6,2.5l0.5,5.6l-3.6-2.6l-2.1,2.8l4.9,2l-0.1,4.7l1.7,3.6l1.8-0.9l4.3,3.6
		l-1.4,2.6l1.8,4l-3.3,0.1l-0.7,1.5l-3.8-1.9l-0.7-2.6l-4.9-1.9l-1.1-2.8l-4-2.8l1.8-6.9l-8.4-0.9l-4.6,3.8l1.8,2.1l-2.4,2.1
		l-1.7-1.8l0.9-1.4l-5.9-2.1l-1.4-5l2.8-0.7l0.2-1.5l-3.7-2.5l2.7-0.2l1.7,3.1l4.3,0.2l2.2-1.8l-2.1-5.4l-4.1-0.4l0.4-1.3l-1.8-0.8
		l1.9-2.8l-0.7-2.6l-2.5-2.4l-2,3.2l0,0l-1.3-11.6l-18.6-2.4L666.5,1477.6L666.5,1477.6z"/>
</g>
</svg>
