<?xml version="1.0" encoding="utf-8"?>
<!-- Generator: Adobe Illustrator 21.1.0, SVG Export Plug-In . SVG Version: 6.00 Build 0)  -->
<svg version="1.1" id="Layer_1" xmlns="http://www.w3.org/2000/svg" xmlns:xlink="http://www.w3.org/1999/xlink" x="0px" y="0px"
	 viewBox="0 0 612 792" style="enable-background:new 0 0 612 792;" xml:space="preserve">
<style type="text/css">
	.st0{fill:#2B3990;stroke:#39B54A;stroke-miterlimit:10;}
</style>
<g>
	<g>
		<path id="path1_1_" class="st0" d="M307.2,87c93.9,0.2,170.3,87.2,170.3,194c0,99.6-43.5,194.7-69.4,242.5
			c-16.4,30.3-35,58.9-52.3,80.6c-29.9,37.6-41.9,37.6-48.3,37.6c-6.4,0-18.3,0-48.4-37.6c-17.4-21.8-36-50.4-52.5-80.6
			C180.7,475.7,137,380.6,137,281C137,174.2,213.3,87.2,307.2,87z M308.6,191.6c-36.1,0-65.5,33.2-65.5,74.1s29.4,74,65.5,74
			s65.5-33.2,65.5-74S344.7,191.6,308.6,191.6z"/>
	</g>
</g>
</svg>
