<?xml version="1.0" encoding="utf-8"?>
<!-- Generator: Adobe Illustrator 21.1.0, SVG Export Plug-In . SVG Version: 6.00 Build 0)  -->
<svg version="1.1" id="Layer_1" xmlns="http://www.w3.org/2000/svg" xmlns:xlink="http://www.w3.org/1999/xlink" x="0px" y="0px"
	 viewBox="0 0 612 792" style="enable-background:new 0 0 612 792;" xml:space="preserve">
<style type="text/css">
	.st0{fill:#2BB673;stroke:#006838;stroke-width:3;stroke-miterlimit:10;}
	.st1{fill:#FFFFFF;}
	.st2{fill:#F1F2F2;}
	.st3{fill:#006838;}
	.st4{fill:#594A42;stroke:#594A42;stroke-miterlimit:10;}
	.st5{fill:#8DC63F;stroke:#006838;stroke-miterlimit:10;}
</style>
<g>
	<g>
		<path id="path1_1_" class="st0" d="M306,52.8c120.2,0.2,218,111.6,218,248.3c0,127.5-55.7,249.2-88.8,310.4
			c-21,38.7-44.8,75.4-66.9,103.1c-38.3,48.2-53.6,48.2-61.8,48.2c-8.2,0-23.5,0-61.9-48.1c-22.3-28-46.1-64.6-67.1-103.1
			C144,550.3,88.1,428.6,88.1,301.1C88.1,164.4,185.8,53,306,52.8z"/>
	</g>
</g>
<ellipse class="st1" cx="306" cy="318.6" rx="189" ry="221.6"/>
<path class="st2" d="M209.7,472.9c-6.2-30.5,6.3-64,31-83c8.2-6.3,17.6-11.1,24.9-18.5c10.4-10.6,15.4-25.6,16.5-40.5
	s-1.2-29.7-3.5-44.4c-16,4.4-32.1,8.8-48.1,13.2c-12.4,3.4-26.9,6.5-37.3-1.1c-7.2-5.2-10.3-14.2-13.1-22.6c-3-9-6-18-9-26.9
	c-2.7-8.2-5.5-16.8-3.9-25.3c2.2-12,12.3-20.7,21.9-28c27.9-21.4,57.6-40.5,88.7-57c11.2-6,22.9-11.7,35.5-12.7s26.5,3.7,33,14.6
	c4.1,6.9,5.1,15.7,10.7,21.4c8.4,8.6,22.8,6.3,33.8,11.3c14.2,6.4,20,23.3,21.9,38.8c1.5,12.2,1.4,24.9-3.1,36.3
	c-4.5,11.4-13.9,21.4-25.8,24.1c-16.6,3.7-35.6-6.6-50.4,2c-12.9,7.6-14.8,25.2-15.2,40.2c-0.4,15.2-0.1,32.2,10.4,43.1
	c8.9,9.2,22.5,11.6,34,17.3c19.2,9.5,32.2,28.9,38.8,49.3c6.6,20.4,7.6,42.2,8.6,63.6c-23.4-2.5-43.1-24.4-43.1-47.9
	c0-5.4,0.9-10.8,0.5-16.2c-0.3-3.2-1.1-6.5-2.8-9.3c-1.6-2.7-4.3-4.3-6.4-6.5c-1.6-1.6-1.2-4.1-2.7-6c-2.9-3.8-8.9-5.5-13.2-3.1
	c-6.3,3.5-8.1,12.3-5.7,19.1s7.9,12,13.5,16.7c5.6,4.6,11.5,9.1,15.3,15.3c5.2,8.4,5.4,19.9-0.3,28.1c-5.7,8.1-17.3,11.8-26.3,7.7
	c-9-4.2-13.6-16.3-8.9-25c2.6-4.7,0.3-11.2-4.4-13.8c-2.2-1.2-5.1-1.6-7,0c-1.2,1.1-1.7,2.9-1.7,4.5c0.1,1.7,0.6,3.3,1.1,4.9
	c1.5,5,2.3,10.2,2.4,15.5c0.1,2.2,0,4.5-1.4,6.3c-1.6,2.1-4.5,2.6-7.1,3c-2.7,0.4-5.6,0.8-8.2-0.1c-2.6-0.9-4.6-3.1-6.2-5.3
	c-3.3-4.6-5.5-10.1-6.2-15.7c-1.3-9.9,3.9-20.2,9.9-28.2c2.1-2.8,4.5-5.5,6.2-8.6c1.7-3.1,2.6-6.9,1.4-10.2
	c-1.5-4.2-6.2-6.8-10.7-6.5c-4.5,0.3-8.5,3.2-11,6.9s-3.5,8.3-3.8,12.7c-0.3,4.5,0.1,9,0.4,13.4c0.3,5.2,0.5,10.3,0.4,15.5
	c-0.1,5.1-0.4,10.4-3,14.8c-2.6,4.4-8,7.5-12.8,5.8c-5.1-1.8-7.1-7.8-8-13.2c-2.7-17.2,0.3-35.3,8.6-50.7c1-1.8,2-4,0.8-5.7
	c-1.1-1.6-3.5-1.6-5.3-1.1c-8,1.9-14.6,7.8-18.8,14.8c-4.2,7-6.2,15.2-7.3,23.3c-1.1,8.1-1.3,16.4-2.3,24.5
	c-0.5,4.1-1.4,8.5-4.4,11.2c-2.2,2-5.3,2.7-8.3,2.7c-3,0-5.9-0.8-8.8-1.6c-2.6-0.7-3.7-3.9-5.1-6.1
	C209.2,473.8,209.8,473,209.7,472.9z"/>
<path class="st3" d="M238.1,288.9c7,3.1,15.4,1.6,21.8-2.5c6.4-4.2,10.8-10.8,13.8-17.8c2.9-7,4.5-14.5,6.1-22
	c0.8-3.9,2.3-8.5,6.2-9.5c1.6-0.4,3.4,0,5,0.2c12.7,2.1,26.3-1.8,35.9-10.4c-2.5,10.4-0.3,21.8,5.9,30.5c9.8,3.3,20.1,6.2,30.4,6.3
	c5.7,0,11.7-0.6,16.5-3.7c4-2.6,6.7-6.7,9-10.8c8-14.3,12.1-30.7,12-47c0-2.8-0.2-5.6-1.1-8.1c-1.9-5.4-6.8-9-11.8-11.8
	c-13.4-7.3-29.3-9.6-44.2-6.6c-18.6,3.8-38.5,5.9-56.8,0.7c-8.2-2.3-16.2-5.8-24.6-7.1c-8.4-1.4-17.8-0.3-24.3,5.3
	c-4.3,3.8-6.8,9.3-8.8,14.8c-10,26.9-11.6,56.9-4.5,84.7c0.9,3.6,2,7.2,4,10.2C230.6,287.3,234.7,287.4,238.1,288.9z"/>
<path class="st4" d="M253.7,280.9c11.6-0.5,23.1-2.9,34.1-6.9c5.1,10,0.6,17.7,0.6,27.6c0,11.8,1.8,23.6,1.8,35.4
	c0,7.7,0.5,16.1-0.8,23.7c-1,5.8-6.7,9.2-11.6,12.5c-13.8,9.3-30.5,15-41.2,27.7c-8.1,9.6-11.8,22.2-15.2,34.3
	c-2.5,9-5,17.9-7.6,26.9c-1.3,4.6-2.4,10.2,0.7,13.8c3.1,3.6,9.3,3.1,12.9-0.1c3.6-3.2,4.8-8.3,4.9-13.1c0.1-4.8-1-9.5-1.2-14.3
	c-1.1-21.5,14.1-41.5,33.5-51.1c4.2-2.1,9.9-3.5,13,0.1c3.3,3.9,0.4,9.7-2.2,14.1c-10.6,18.3-13.1,41.1-6.7,61.3
	c4.7,0.5,9.1-3,11-7.3s1.9-9.2,1.6-13.9c-0.6-9.1-2.3-18.3-1.4-27.3c1-9.1,5.2-18.5,13.4-22.7c8.1-4.2,20.2-0.5,22.3,8.3
	c2.1,8.5-4.9,16.2-9.8,23.6c-6.3,9.6-9.5,21.2-8.9,32.6c0.2,3.2,0.6,6.5,2.3,9.3c1.7,2.7,4.8,4.8,8,4.4c4.3-0.6,7-5.4,6.9-9.7
	c0-4.3-2-8.4-3.5-12.5c-1.5-4.1-2.6-8.7-0.9-12.7c2.8-6.6,12.4-8.2,18.4-4.3c6.1,3.9,8.9,11.3,9.6,18.5c0.4,3.9,0.2,7.8,1.3,11.5
	s3.9,7.3,7.8,7.8c3.4,0.5,6.9-1.7,8.6-4.8c1.7-3,1.9-6.7,1.3-10.1c-3.3-18.2-25.8-27.8-30.1-45.8c-1.7-7-0.2-14.7,4.2-20.3
	c4.4-5.7,11.5-9.1,18.7-8.8c10.8,0.6,19.7,9.4,23.8,19.4c4.2,10,4.6,21,5.6,31.8s2.5,21.9,8.5,30.9c1.7,2.5,3.7,4.9,6.5,6.1
	c2.8,1.2,6.3,1,8.4-1.2c2.8-3,1.8-7.8,0.6-11.7c-3.3-10.9-6.7-21.9-10-32.8c-3.7-12-7.5-24.3-15.7-33.8c-6.9-8-16.6-13.5-27-15.2
	c-9.5-1.6-20.4-0.5-27.6-6.8c-6.8-6.1-7.5-16.3-7.6-25.5c-0.3-23.8-0.6-47.6-0.8-71.4c2.6-0.8,3.8-4.4,4.7-7
	c0.9-2.6,1.3-5.3,2.4-7.7c1.6-3.4,4.7-5.9,8.1-7.5c3.4-1.6,7.1-2.5,10.8-3.3c-0.8-2.2-1.7-4.5-2.5-6.7c-0.6,0.8-1.8,1.1-2.7,0.8
	c-1-0.3-1.7-1.3-1.7-2.3c0-1.5,1.3-2.7,1.9-4.1c1.6-4-3.2-8.3-1.9-12.4c-12.6,11-22.1,25.5-27,41.4c-2-8.3-2.6-16.9-0.7-25.2
	c2.1-9.2,6.6-17.7,11.1-26c1.4-2.6,0.2-6.6,0.2-9.5c-2.4-0.1-5.2-0.8-7.6-0.9c-0.6,6.3-3.4,12.3-7.9,16.7c-3.1-5.7-3-13,0.3-18.5
	c-1.7-1.8-4.8-2.1-6.8-0.6c-1.4,1-2.3,2.7-2.6,4.5c-0.7,3.5,0.3,7.2,1.7,10.5c1.4,3.3,3.1,6.5,4,10c1.6,6.3,0.2,12.8-1,19.2
	c-1.1,6.4-2,13.2,0.7,19.1c-9.8-4.2-17.8-11.6-21.8-21.5c4.7-4.1,7.6-9.9,9.4-15.9c1.7-6,2.4-12.2,3-18.4c0.3-3.4,0.6-6.9-0.7-10
	c-1.3-3.1-4.8-5.6-8-4.5c-0.4,10.9-1.4,21.8-2.9,32.6c-0.3,1.8-0.5,3.7-1.4,5.3c-0.8,1.6-2.4,3-4.2,3.2c-3.2,0.3-5.5-2.8-7.1-5.5
	c-2.5,1.1-5.3,2.6-5.5,5.3c-0.1,1.6,0.7,3,1.5,4.4c5.2,8.3,11.6,15.9,18.9,22.4c-9.8,1.6-19.5,3.2-29.3,4.9c0.9,3.3,0.6,7-0.8,10.1
	C250.1,280.9,252.4,280.9,253.7,280.9z"/>
<path class="st5" d="M366.9,265.5c4.6-0.2,9.3-0.8,13.6-2.8c6.9-3.2,11.9-9.8,13.8-17.2c1.1-4.3,1.2-8.9,3.1-13
	c0.7-1.6,1.7-3,2.6-4.5c4.7-8.1,5.6-18.3,2.5-27.1c-3.2-8.8-10.4-16.1-19.2-19.3c-7.3-2.7-15.3-2.6-23.1-1.7
	c-7.2,0.9-14.6,2.6-20.6,6.7c-6,4.1-10.5,11-10.2,18.3c0.2,4.4,2.1,8.6,2.8,13c1.7,10.7-3.7,21-3.3,31.6c0.1,3.8,0.8,6.2,4.3,8.1
	c4.7,2.6,10,4.4,15.2,5.7C354.3,265.1,360.6,265.7,366.9,265.5z"/>
<path class="st5" d="M341.6,199.2c5.5-6.3,7.3-16,2.8-23c-1.1-1.8-2.7-3.4-3-5.4c-0.4-2.2,0.7-4.4,1.4-6.5
	c1.9-6.3-0.4-13.4-4.9-18.3c-4.5-4.8-10.9-7.6-17.4-8.8c-6.5-1.1-13.2-0.8-19.7-0.2c-8.3,0.7-16.9,1.9-23.9,6.3
	c-10.5,6.6-16,19.8-14.3,32.1s10,23.1,20.8,29.1c7.4,4.1,15.9,6,24.3,6.1c7.7,0.1,16.2-0.8,23.3-4C335,205,338.7,202.5,341.6,199.2z
	"/>
<path class="st5" d="M258.4,261.8c-0.6-3.8-2.2-7.4-2.1-11.3c0.3-7.8,7.3-13.3,11.4-19.9c6.7-10.5,5.4-25.4-2.8-34.8
	c-2-2.2-4.2-4.1-6.6-5.8c-5.7-4.1-12.1-7.1-18.7-9.4c-6-2.1-12.5-3.5-18.8-2.5c-6.3,0.9-12.5,4.6-15.1,10.4
	c-1.1,2.4-1.6,5.1-3.3,7.1c-2,2.3-5.1,3.2-7.9,4.4c-9.4,4-16.3,13.3-17.4,23.5c-1.1,10.1,3.6,20.7,11.9,26.6
	c2.6,1.9,5.8,3.6,6.9,6.6c1.2,3.5-0.8,7.2-1.6,10.8c-1.6,7.3,2.4,15.1,8.5,19.4c6.1,4.3,14,5.5,21.4,4.8
	c13.2-1.2,28.9-5.6,33.4-19.6C258.7,268.9,259,265.3,258.4,261.8z"/>
</svg>
