<?xml version="1.0" encoding="utf-8"?>
<!-- Generator: Adobe Illustrator 21.1.0, SVG Export Plug-In . SVG Version: 6.00 Build 0)  -->
<svg version="1.1" id="Layer_1" xmlns="http://www.w3.org/2000/svg" xmlns:xlink="http://www.w3.org/1999/xlink" x="0px" y="0px"
	 viewBox="0 0 612 792" style="enable-background:new 0 0 612 792;" xml:space="preserve">
<style type="text/css">
	.st0{fill:#1B75BC;stroke:#2E3192;stroke-width:3;stroke-miterlimit:10;}
	.st1{fill:#FFFFFF;}
	.st2{fill:#84D4F6;}
	.st3{fill:#1B75BC;stroke:#1B75BC;stroke-miterlimit:10;}
	.st4{fill:none;stroke:#27AAE1;stroke-width:5;stroke-miterlimit:10;}
	.st5{fill:#E6E7E8;}
	.st6{fill:#1B75BC;}
	.st7{fill:#F1F2F2;}
	.st8{fill:#F1F2F2;stroke:#F1F2F2;stroke-miterlimit:10;}
	.st9{fill:#84D4F6;stroke:#F1F2F2;stroke-width:5;stroke-miterlimit:10;}
	.st10{fill:none;stroke:#F1F2F2;stroke-width:2;stroke-miterlimit:10;}
	.st11{fill:#84D4F6;stroke:#F1F2F2;stroke-width:3;stroke-miterlimit:10;}
	.st12{fill:none;stroke:#F1F2F2;stroke-width:3;stroke-miterlimit:10;}
	.st13{fill:none;stroke:#2B3990;stroke-miterlimit:10;}
	.st14{fill:#1B75BC;stroke:#1B75BC;stroke-width:2;stroke-miterlimit:10;}
	.st15{fill:#F1F2F2;stroke:#F1F2F2;stroke-width:2;stroke-miterlimit:10;}
	.st16{fill:#27AAE1;stroke:#27AAE1;stroke-miterlimit:10;}
	.st17{fill:none;stroke:#27AAE1;stroke-miterlimit:10;}
</style>
<g>
	<g>
		<path id="path1_1_" class="st0" d="M302,28.2c120.2,0.2,218,111.6,218,248.3c0,127.5-55.7,249.2-88.8,310.4
			c-21,38.7-44.8,75.4-66.9,103.1c-38.3,48.2-53.6,48.2-61.8,48.2c-8.2,0-23.5,0-61.9-48.1c-22.3-28-46.1-64.6-67.1-103.1
			C140,525.8,84.1,404.1,84.1,276.5C84.1,139.8,181.8,28.4,302,28.2z"/>
	</g>
</g>
<ellipse class="st1" cx="302" cy="294" rx="189" ry="221.6"/>
<g>
	<path class="st2" d="M140.2,370.3c-3.8-2.4-8.4,3-8.5,8.8c-0.1,5.9,3.2,11,7,13.3s8.1,2.5,12.2,2.6c99.4,2.6,198.8,5.2,298.2,7.8
		c6.6,0.2,15-1.3,17-10.3c2.1-9.4-4.9-17.4-11-22.2c-31.7,0.8-63,1.7-94.7,1.7L140.2,370.3z"/>
	<polygon class="st3" points="237.4,264.1 386.6,261.2 386.6,181.5 240.7,181.4 	"/>
	<path class="st4" d="M277.8,240.3c7.6-4.9,17.1-6.6,25.9-4.7c0.3,0.1,0.2,0,0.4,0.2"/>
	<path class="st4" d="M316.4,243.7c10-7.7,23.4-10.9,35.8-8.7c0.1,0,0.3-0.1,0.4,0c0.1,0.1,0.5,0,0.6,0"/>
	<path class="st5" d="M240.4,377.2c0.1-0.5,0.1-1.2,0.1-1.9c0.1-6.8,0.1-13.5,0.1-20.3c0.1-22.6,0.2-45.2,0.3-67.8
		c0.1-24.1,0.2-48.1,0.3-72.2c0-11.2,0.1-22.4,0.1-33.6l122.2,0.6l0.4,56.5l-17.7,103.3l7.4-0.8l17.7-100.9l-0.3-73.7l-137.8-0.3
		l0.3,74.3c-1.7,9.6-3.4,19.2-5.1,28.8c-4.1,22.9-8.1,45.9-12.2,68.8c-1.7,9.5-3.4,19-5,28.5c-0.5,3-1.1,6-1.6,9
		c-0.1,0.8-0.5,2-0.5,2.8c0,0.7-0.3,1,0,1.8c0.4,0.9,3.4,0.1,4,0.1c7.2,0.1,14.3-0.1,21.5,0.1C237.2,380.4,239.9,382.1,240.4,377.2z
		"/>
	<polygon class="st6" points="266,166.8 231.6,166.8 161.7,337.8 161.7,374.8 204.5,374.3 266.7,238.8 	"/>
	<rect x="303.7" y="166.1" class="st7" width="14.3" height="125.4"/>
	<polyline class="st6" points="230.1,166.2 237.4,166.2 237.4,277.9 230.1,277.9 	"/>
	<rect x="265.9" y="180.3" class="st5" width="14.3" height="125.4"/>
	<path class="st8" d="M348.4,342.1c2.1,0.2,4.2,0.3,6.3-0.1c2.1-0.4,4.1-1.4,5.4-3c1.1-1.4,1.6-3.1,2.1-4.7
		c1.8-5.9,3.6-11.8,5.4-17.7l9.9-30.8c0.1-0.3,0.2-0.6,0.3-0.9c0.3-0.8,0.6-1.7,0.9-2.5c0.4-1.3,0.9-2.7,1.3-4
		c0.6-1.8,1.2-3.5,1.8-5.3c0.7-2.1,1.4-4.2,2.1-6.3c0.8-2.4,1.6-4.8,2.4-7.2c0.9-2.7,1.8-5.3,2.7-8c1-2.8,1.9-5.7,2.9-8.5
		c1-2.9,2-5.9,3-8.8c1-3,2-6,3-9c1-3,2-6,3-9c1-2.9,2-5.9,3-8.8c0.9-2.8,1.9-5.6,2.8-8.4c0.9-2.6,1.8-5.2,2.6-7.8
		c0.8-2.4,1.6-4.7,2.4-7.1c0.7-2,1.4-4.1,2.1-6.1c0.6-1.7,1.1-3.3,1.7-5c0.4-1.2,0.8-2.4,1.2-3.7c0.2-0.5,0.5-1,0.7-1.6
		c0.2-0.6,0.3-1,0.7-1.5c-1.2,0-2.3,0-3.5,0c-1.5,0-3.1,0-4.6-0.1c-0.5,0-1,0-1.5,0c-0.5,0-1.3-0.3-1.6,0.3
		c-0.1,0.2-0.2,0.5-0.2,0.7c-0.3,0.8-0.5,1.5-0.8,2.3c-0.4,1.1-0.7,2.2-1.1,3.3c-0.5,1.4-0.9,2.8-1.4,4.2c-0.6,1.7-1.1,3.3-1.7,5
		c-0.6,1.9-1.3,3.8-1.9,5.8c-0.7,2.1-1.4,4.3-2.1,6.4c-0.8,2.3-1.6,4.7-2.3,7c-0.8,2.5-1.7,5-2.5,7.5c-0.9,2.7-1.8,5.3-2.7,8
		c-0.9,2.8-1.8,5.5-2.8,8.3c-1,2.9-1.9,5.7-2.9,8.6c-1,2.9-1.9,5.8-2.9,8.8c-1,3-2,5.9-3,8.9c-1,3-2,5.9-3,8.9c-1,2.9-2,5.9-2.9,8.8
		c-1,2.9-1.9,5.8-2.9,8.7c-0.9,2.8-1.9,5.7-2.8,8.5c-0.9,2.7-1.8,5.5-2.7,8.2c-0.9,2.6-1.7,5.2-2.6,7.8c-0.8,2.5-1.6,4.9-2.4,7.4
		c-0.8,2.3-1.5,4.5-2.3,6.8c-0.7,2.1-1.4,4.1-2.1,6.2c-0.6,1.8-1.2,3.7-1.8,5.5c-0.5,1.6-1,3.1-1.6,4.7c-0.4,1.3-0.9,2.6-1.3,3.8
		c-0.3,1-0.6,1.9-1,2.9c-0.2,0.6-0.4,1.3-0.6,1.9C348.6,341.5,348.5,341.8,348.4,342.1z"/>
	<path class="st9" d="M305.8,241.3c-2.6-0.7-7-1.7-12.5-1.4c-38.5,2.3-61.9,66.4-66,77.8c-7.8,21.5-9.4,40.2-9.8,46.7
		c-0.4,5.7-0.4,10.5-0.3,14l83.1,0.1L305.8,241.3z"/>
	<path class="st9" d="M352.3,240.9c-2.6-0.6-7.1-1.4-12.5-0.8c-38.4,3.7-59.2,66.4-62.9,77.5c-7,21-7.8,39.1-7.9,45.4
		c-0.1,5.5,0.1,10.2,0.3,13.5l83-3.1c0-41.8,0-83.5,0-125.3C352.3,245.6,352.3,243.3,352.3,240.9z"/>
	<path class="st10" d="M347.8,276c-8.1,10.2-14.1,22.1-17.5,34.7c-4.2,15.9-4.1,32.6-4,49"/>
	<g>
		<path class="st11" d="M317.2,305.4c-0.7,1.2-1.8,3-2.9,5.3c-4.9,10.1-5.6,19.5-6.4,31.3c-0.2,3.5-0.4,7.1-0.6,14.3
			c-0.2,4.8-0.2,8.7-0.3,11.4"/>
		<path class="st12" d="M299.2,298.5c-6.9,9.3-10.8,20.6-12.8,32c-2,11.4-2.2,23-2.5,34.6"/>
		<path class="st10" d="M346.1,250.6c-11,2.8-20.9,9.4-27.8,18.4c-9.7,12.7-13,29.1-15.9,44.8"/>
		<path class="st10" d="M340.7,266.1c-6.2,3.2-10.8,9.2-12.4,16"/>
	</g>
	<path class="st10" d="M345.9,329.9c-2.1-0.3-3.7,1.7-4.6,3.6c-3.4,6.7-5.4,14.1-5.8,21.6"/>
	<polygon class="st5" points="331.6,341.1 367.2,238 352.3,238.5 318.7,341.1 	"/>
	<polygon class="st3" points="331.6,341.7 367.2,240.2 367.2,166.8 406.3,166.8 347.9,341.7 	"/>
	<line class="st5" x1="322.3" y1="341.1" x2="320.2" y2="341.1"/>
	<polyline class="st13" points="309.6,342.2 309.6,335.9 310.5,335.9 314.6,335.9 314.6,342.2 317.4,342.2 317.4,335.9 321.8,335.9 
		321.8,342.2 325.4,342.2 325.4,336.5 330.2,336.5 330.2,342.2 333.6,342.2 333.6,335.9 338.4,335.9 338.4,342.2 341.8,342.2 
		341.8,335.9 346.2,335.9 346.2,342.5 349.7,342.5 349.7,335.9 353.5,335.9 353.5,342.5 357.8,341.5 357.8,335.9 362,335.9 
		308.2,335.9 288.7,335.9 	"/>
	<path class="st14" d="M313.3,342.2c-1.2,0-2.5,0-3.7,0c0,0,1.8,38,1.8,38c13.1,0,136.8-1.2,136.8-0.6c0,0,0-212.8,0-212.8l-29.8,0
		c-11.2,33.3-22.5,66.6-33.7,99.9c-6.9,20.3-13.7,40.6-20.6,60.9c-2.3,6.8-1.2,13.3-8.8,14.6c-5.5,0.9-11.8,0-17.4,0
		C329.7,342.2,321.5,342.2,313.3,342.2z"/>
	<g>
		<path class="st11" d="M264.4,306.9c-0.7,1.2-1.8,3-2.9,5.3c-4.9,10.1-5.6,19.5-6.4,31.3c-0.2,3.5-0.4,7.1-0.6,14.3
			c-0.2,4.8-0.2,8.7-0.3,11.4"/>
		<path class="st12" d="M246.4,300c-6.9,9.3-10.8,20.6-12.8,32c-2,11.4-2.2,23-2.5,34.6"/>
		<path class="st10" d="M293.3,252.2c-11,2.8-20.9,9.4-27.8,18.4c-9.7,12.7-13,29.1-15.9,44.8"/>
		<path class="st10" d="M287.9,267.6c-6.2,3.2-10.8,9.2-12.4,16"/>
	</g>
	<g>
		<g>
			<ellipse class="st15" cx="224.7" cy="367.3" rx="16.8" ry="14.8"/>
			<ellipse class="st15" cx="241.5" cy="371.2" rx="12.4" ry="12.1"/>
			<ellipse class="st15" cx="238.9" cy="358" rx="4.3" ry="3.8"/>
			<ellipse class="st15" cx="253.9" cy="364.4" rx="4.6" ry="4"/>
			<ellipse class="st15" cx="258.8" cy="375.7" rx="7.4" ry="8.2"/>
			<ellipse class="st15" cx="247.8" cy="358" rx="4.6" ry="4"/>
			<ellipse class="st15" cx="256.9" cy="358" rx="4.6" ry="4"/>
			<ellipse class="st15" cx="261.5" cy="364.4" rx="4.6" ry="4"/>
			<ellipse class="st15" cx="267.7" cy="359.1" rx="4.6" ry="4"/>
			<ellipse class="st15" cx="266" cy="369.7" rx="4.6" ry="4"/>
			<ellipse class="st15" cx="268.7" cy="378.9" rx="4.6" ry="4"/>
			<ellipse class="st15" cx="272.2" cy="373.7" rx="4.6" ry="4"/>
			<ellipse class="st15" cx="270.6" cy="367" rx="4.6" ry="4"/>
			<ellipse class="st15" cx="276.8" cy="359.1" rx="4.6" ry="4"/>
			<ellipse class="st15" cx="281.4" cy="368.2" rx="4.6" ry="4"/>
			<path class="st15" d="M282.3,365.7c-2.3-0.9-3.4-3.3-2.3-5.3c1-2,3.7-3,6-2.1s3.4,3.3,2.3,5.3
				C287.3,365.7,284.6,366.6,282.3,365.7z"/>
			<path class="st15" d="M286.2,359.6c-2-1.3-2.4-3.9-0.9-5.6c1.5-1.8,4.4-2.1,6.4-0.8c2,1.3,2.4,3.9,0.9,5.6
				C291,360.6,288.2,361,286.2,359.6z"/>
			<ellipse class="st15" cx="288.9" cy="366.9" rx="4.6" ry="4"/>
			<ellipse class="st15" cx="280.1" cy="374.9" rx="4.6" ry="4"/>
			<ellipse class="st15" cx="278.1" cy="379.3" rx="4.6" ry="4"/>
			<ellipse class="st15" cx="287.2" cy="378.9" rx="4.6" ry="4"/>
			<ellipse class="st15" cx="288.9" cy="372.2" rx="4.6" ry="4"/>
			<ellipse class="st15" cx="294.3" cy="362.1" rx="4.6" ry="4"/>
		</g>
	</g>
	<g>
		<polygon class="st16" points="311.4,341.7 311.4,380.7 284.5,380.7 284.5,341.7 309.6,341.7 		"/>
		<g>
			<polyline class="st17" points="290,342.3 290,339.4 290,335.9 294.7,335.9 294.7,342.3 297.9,342.3 298.5,335.9 301.9,335.9 
				301.4,342.3 305.8,342.3 305.8,335.9 			"/>
			<line class="st17" x1="288.7" y1="335.9" x2="307.3" y2="335.9"/>
		</g>
	</g>
	<path class="st5" d="M160.7,389.2v-41.5c5.8-4.9,13.7-4.5,21.2-3.2c7.5,1.2,15.8,2.6,22.1-1.6c10.2-6.7,3.4-17.4-6.3-18.6
		c-11-1.3-25.1-1-34.8,4.9c-9.2,5.7-14.4,16.2-16.2,26.8c-1.8,10.6-0.5,21.5,0.8,32.2"/>
	<path class="st5" d="M171.7,386.1v-23.6c3.1-2.8,7.4-2.5,11.5-1.8c4,0.7,8.5,1.5,12-0.9c5.5-3.8,1.8-9.9-3.4-10.6
		c-6-0.7-13.6-0.6-18.9,2.8c-5,3.2-7.8,9.2-8.8,15.2c-1,6-0.3,12.2,0.4,18.3"/>
</g>
</svg>
