<?xml version="1.0" encoding="utf-8"?>
<!-- Generator: Adobe Illustrator 21.1.0, SVG Export Plug-In . SVG Version: 6.00 Build 0)  -->
<svg version="1.1" id="Layer_1" xmlns="http://www.w3.org/2000/svg" xmlns:xlink="http://www.w3.org/1999/xlink" x="0px" y="0px"
	 viewBox="0 0 612 792" style="enable-background:new 0 0 612 792;" xml:space="preserve">
<style type="text/css">
	.st0{fill:#006838;stroke:#2BB673;stroke-width:3;stroke-miterlimit:10;}
	.st1{fill:#F1F2F2;}
	.st2{fill:#E6E7E8;}
	.st3{fill:#006838;}
	.st4{fill:#6D6E71;}
	.st5{fill:#594A42;}
</style>
<g>
	<g>
		<path id="path1_1_" class="st0" d="M289.5,39.2c120.2,0.2,218,111.6,218,248.3c0,127.5-55.7,249.2-88.8,310.4
			c-21,38.7-44.8,75.4-66.9,103.1c-38.3,48.2-53.6,48.2-61.8,48.2c-8.2,0-23.5,0-61.9-48.1c-22.3-28-46.1-64.6-67.1-103.1
			c-33.3-61.2-89.3-182.9-89.3-310.4C71.7,150.8,169.4,39.4,289.5,39.2z"/>
	</g>
</g>
<ellipse class="st1" cx="286" cy="321.2" rx="181.5" ry="237.8"/>
<g>
	<path class="st2" d="M303.7,360.4c-0.3,8.1-0.2,17.1,5.3,23c5.2,5.4,13.5,6.4,19.5,10.8c10.1,7.4,11,21.9,10.9,34.4
		c-0.1,21.3-0.5,43.2-8.8,62.8c-8.3,19.6-26.7,36.5-48,36.6c-21,0.1-39.3-16.3-48-35.4s-9.7-40.7-10.6-61.7
		c-0.5-11.2,0.5-25,10.7-29.7c5.3-2.5,11.7-1.5,17-3.9c10.1-4.5,11.7-18,11.9-29.1c0.2-18.6,0.5-37.2,0.7-55.8
		c0.1-12-0.3-25.5-9-33.8c-7.5-7.1-18.7-8-28.6-10.9c-19.4-5.6-35.9-20.2-43.8-38.7c-7.9-18.5-7.1-40.6,2.3-58.4
		c2.4-4.7,5.4-9.1,8.4-13.4c1.3-2,2.7-3.9,4-5.9c3.9-5.7,7.9-11.5,13.5-15.6c12.7-9.1,30.9-6.5,44,1.9c13.1,8.4,22.3,21.6,31.1,34.4
		c0.3-6.3,5.9-11.9,12.2-12.3c6.3-0.4,12.5,4.5,13.6,10.8c11.6-6.2,24-12.5,37.1-11.4s26.1,13.2,23,26c7.9-4.5,18.4,3.2,19.8,12.2
		c1.4,9-3.4,17.8-8.7,25.2c-9.1,12.6-20.3,23.6-33,32.5c-10.8,7.5-23.2,11.2-34.1,18c-11,6.9-9.8,18.2-10.3,30.1
		C305.1,322,304.4,341.2,303.7,360.4z"/>
	<path class="st3" d="M281.6,257.4c1.6-10.1-0.8-20.9-6.7-29.3c10.7-2.7,19.9-10.7,24-20.9c5.2-13,2.2-27.7,3.2-41.7
		c-2.3,6-7.8,10.1-13.4,13.3c-5.5,3.2-11.5,6-15.8,10.8c-5.4,6-7.4,15-5.1,22.7c-6.4-9.1-15.7-15.9-25.7-20.9
		c-10-5-20.7-8.4-31.3-11.7c-7.3-2.3-14.6-4.6-22-6.9c2.9,11.3,5.8,22.6,8.7,33.9c2.8,11.1,5.7,22.4,11.6,32.2
		c6.2,10.5,15.7,19.1,26.7,24.3c11.1,5.2,23.7,6.9,35.8,4.8c0.1-0.5,0.2-1,0.3-1.6"/>
	<path class="st4" d="M237.6,449c0,0-1,68.3,45.4,67.4s45.4-67.4,45.4-67.4l0-43.2h-90.9L237.6,449z"/>
	<path class="st5" d="M266.4,405.9c0,0,14.5-40,9.3-65.9s-4.1-84.1-4.1-84.1h25.9v79.9c0,0-10.4,64.3,0,70.1"/>
	<path class="st3" d="M289.7,255.8c-2.4-19,7.3-39,23.7-48.9c9.6-5.8,20.7-8.1,31.6-10.4c10-2.1,20-4.2,30-6.3
		c-1.1,16-7.4,31.6-17.8,43.8c-10.4,12.2-24.7,21-40.3,24.7c-2.2,0.5-4.5,1-6.8,0.6c-2.3-0.3-4.5-1.5-5.6-3.5
		c-1.8-3.2-0.2-7.2,1.7-10.4c6.9-11.9,16.8-22.1,28.5-29.3c-10,0.9-19.7,5.5-26.7,12.7c-7.1,7.2-11.5,16.9-12.2,26.9"/>
	<path class="st3" d="M329.2,173.2c10.3-4,21.8-3.5,32.8-3c-5.2,8.8-14.1,15-23.6,18.9c-4.2,1.7-28.2,11.1-29.7,3.3
		c-0.6-3.4,5.9-9.4,8.1-11.5C320.5,177.7,324.6,175,329.2,173.2z"/>
	<path class="st3" d="M229.8,178.4c-4.9-3-10-6.2-13.1-11c-5-7.8-3.8-17.9-2.4-27.1c11.8-2.9,24.8-3,35.9,2.2
		c11.1,5.1,19.9,16,20.3,28.2c0.2,6.2-2.5,25.7-11.3,25.1c-4.5-0.3-10.6-5.9-14.4-8.3C239.7,184.5,234.8,181.4,229.8,178.4z"/>
</g>
<path class="st4" d="M350.3,177.9"/>
</svg>
