<?xml version="1.0" encoding="utf-8"?>
<!-- Generator: Adobe Illustrator 21.1.0, SVG Export Plug-In . SVG Version: 6.00 Build 0)  -->
<svg version="1.1" id="Layer_1" xmlns="http://www.w3.org/2000/svg" xmlns:xlink="http://www.w3.org/1999/xlink" x="0px" y="0px"
	 viewBox="0 0 612 792" style="enable-background:new 0 0 612 792;" xml:space="preserve">
<style type="text/css">
	.st0{fill:#F7941D;stroke:#F15A29;stroke-width:3;stroke-miterlimit:10;}
	.st1{fill:#FFFFFF;}
	.st2{fill:#F1F2F2;}
	.st3{fill:#C2B59B;}
	.st4{fill:#9B8579;}
	.st5{fill:#C49A6C;stroke:#594A42;stroke-miterlimit:10;}
	.st6{fill:none;stroke:#BE1E2D;stroke-width:5;stroke-miterlimit:10;}
	.st7{fill:#B1E3FA;stroke:#BE1E2D;stroke-width:2;stroke-miterlimit:10;}
	.st8{fill:#BE1E2D;}
</style>
<g>
	<g>
		<path id="path1_1_" class="st0" d="M305.5,41.1c120.2,0.2,218,111.6,218,248.3c0,127.5-55.7,249.2-88.8,310.4
			c-21,38.7-44.8,75.4-66.9,103.1c-38.3,48.2-53.6,48.2-61.8,48.2c-8.2,0-23.5,0-61.9-48.1c-22.3-28-46.1-64.6-67.1-103.1
			c-33.3-61.2-89.3-182.9-89.3-310.4C87.7,152.7,185.4,41.3,305.5,41.1z"/>
	</g>
</g>
<ellipse class="st1" cx="305.6" cy="307.7" rx="189" ry="221.6"/>
<path class="st2" d="M226.7,485.6c6.8,6.4,17.1,6.9,26.4,7c35,0.3,70,0.7,105.1,1c7.8,0.1,16.5-0.2,22.1-5.6
	c6.9-6.6,6.1-17.7,4.6-27.2c-5.9-37.3-14-74.2-24.2-110.5c5.4,12.7,11,25.7,20.4,35.9c9.4,10.2,23.3,17.2,36.9,14.7
	c13.9-2.7,24.1-14.3,32.9-25.4c5.9-7.4,12.2-16.1,10.8-25.6c-1.1-7.8-7.2-13.8-12.9-19.2c-15.1-14.3-30.2-28.5-45.3-42.8
	c-8.4-7.9-17.7-16.3-29.2-17.4c-11.5-1.1-24.4,9.7-20.6,20.6c-7-6.5-9.8-17.1-7-26.1c2.9-9.4,11-16.2,18.6-22.5
	c11.9-9.7,23.7-19.4,35.6-29c13-10.6,26.9-22.9,29.1-39.5c1.8-13.6-5.5-27.6-16.8-35.4c-11.3-7.8-26-9.8-39.5-7
	c-23,4.8-41.2,21.9-58.1,38.4c-7.2,7-14.6,14.3-18.6,23.5c-4,9.2-4,21,2.8,28.4c4.7,5.1,12.5,8.6,12.9,15.5c0.4,7-8.2,11.6-15,10.1
	c-6.8-1.5-12-6.9-16.6-12.1c-12.6-13.9-25.2-27.7-37.8-41.6c-12-13.2-25.1-27-42.5-31.1c-14.1-3.3-29.8,1-40,11.3
	c-10.2,10.3-14.3,26.4-9.8,40.1c3.8,11.7,12.9,20.7,21.6,29.3c9.9,9.7,19.7,19.3,29.6,29c5.6,5.5,11.6,11.2,19.1,13.2
	c16,4.3,30.9-8.9,42.2-21c-8.9,30.8-25.8,59.3-48.7,81.7c-12.5,12.3-27.9,25-28.7,42.6c-0.5,11.7,6.1,22.9,14.9,30.7
	c7.2,6.4,31.8,13.7,27.6,25.9c-2.6,7.4-7.7,12.6-8.4,21C219.8,473.4,221.6,480.7,226.7,485.6z"/>
<g>
	<polyline class="st3" points="308.7,257.8 273.4,275.7 233,481.3 308.7,481.3 	"/>
	<polyline class="st4" points="308.7,257.8 339.1,275.7 373.8,481.3 308.7,481.3 	"/>
</g>
<g>
	<path class="st5" d="M307.2,447.4c-5.8,0-10.7,14.7-12.7,35.3h25.4C317.9,462.1,313,447.4,307.2,447.4z"/>
</g>
<g>
	<line class="st6" x1="414.7" y1="389.4" x2="192.2" y2="166.9"/>
	<line class="st6" x1="192.2" y1="389.4" x2="414.7" y2="166.9"/>
	
		<rect x="187" y="170.2" transform="matrix(0.7071 -0.7071 0.7071 0.7071 -95.7059 215.1794)" class="st7" width="49.7" height="105.9"/>
	
		<rect x="223.6" y="316.6" transform="matrix(0.7071 0.7071 -0.7071 0.7071 334.0759 -67.4274)" class="st7" width="49.7" height="105.9"/>
	
		<rect x="333.6" y="133.6" transform="matrix(0.7071 0.7071 -0.7071 0.7071 236.9256 -198.8514)" class="st7" width="49.7" height="105.9"/>
	
		<rect x="370" y="281.8" transform="matrix(0.7071 -0.7071 0.7071 0.7071 -121.0502 377.2617)" class="st7" width="49.7" height="105.9"/>
	<circle class="st8" cx="303.4" cy="278.2" r="10.4"/>
</g>
</svg>
