<?xml version="1.0" encoding="utf-8"?>
<!-- Generator: Adobe Illustrator 21.1.0, SVG Export Plug-In . SVG Version: 6.00 Build 0)  -->
<svg version="1.1" id="Layer_1" xmlns="http://www.w3.org/2000/svg" xmlns:xlink="http://www.w3.org/1999/xlink" x="0px" y="0px"
	 viewBox="0 0 612 792" style="enable-background:new 0 0 612 792;" xml:space="preserve">
<style type="text/css">
	.st0{fill:#594A42;stroke:#006838;stroke-width:3;stroke-miterlimit:10;}
	.st1{fill:#FFFFFF;}
	.st2{fill:#F1F2F2;}
	.st3{fill:#00A651;}
	.st4{fill:#594A42;}
</style>
<g>
	<g>
		<path id="path1_1_" class="st0" d="M306,41c120.2,0.2,218,111.6,218,248.3c0,127.5-55.7,249.2-88.8,310.4
			c-21,38.7-44.8,75.4-66.9,103.1C329.9,751,314.6,751,306.4,751c-8.2,0-23.5,0-61.9-48.1c-22.3-28-46.1-64.6-67.1-103.1
			C144,538.6,88.1,416.8,88.1,289.3C88.1,152.6,185.8,41.2,306,41z"/>
	</g>
</g>
<ellipse class="st1" cx="306" cy="307.6" rx="189" ry="221.6"/>
<g>
	<path class="st2" d="M464.8,238c3.5-8.8,6.4-18,6.2-27.4c-0.2-9.4-3.9-19.1-11.5-24.8c-8.9-6.7-21-6.6-32.1-5.4
		c-67.8,6.9-132.1,42.7-173.8,96.5c-19.1-27.1-57.8-38.3-88.4-25.5c-30.5,12.8-49.6,48.6-42.8,81.1c5.9-10.9,22.8-9.3,32.6-1.8
		s16.1,19,26.2,26.2c14.6,10.6,36.4,9.9,50.3-1.6c-12.6,13.5-25.3,27.3-32.9,44.2c-7.5,16.8-9,37.5,0.9,53.1
		c11,17.3,32.9,24.3,53.3,26.3c50.4,5,102.7-12.9,139.3-47.9c9.8-9.4,18.8-20.4,22.4-33.5c3.6-13.1,0.7-28.7-9.9-37.2
		c-10.8-8.6-26-8.1-39.8-7.1c-6.4,0.5-37.4,6.8-41.6,2.9c-7.2-6.5,9.1-7.6,13.7-8.7c19-4.6,37.1-12.4,53.7-22.6
		C423.5,304.5,450.4,274,464.8,238z"/>
	<g>
		<path class="st3" d="M241.1,334.6c33.7,15.7,58.3,49.3,63.3,86.2c2.9-3.8,9.8-9.2,14.6-8.8c-4.9-17.7-15.3-33.5-27.7-47.1
			c-6.3-6.9-9.3-8.4-9-17.9c0.2-9.7,0.5-19.4,0.7-29.2c-4.2,0-8.8-0.8-13-0.8c-0.5,7-1,14-1.5,21c-2.7-6.4-8.1-11.6-14.6-13.9
			C251.2,326.9,243.7,331.7,241.1,334.6z"/>
		<path class="st3" d="M269.2,326.6c-4.9-38.4,14.7-78.8,47.9-98.8c19.3-11.6,41.8-16.4,63.9-21c20.2-4.2,40.5-8.5,60.7-12.7
			c-2.2,32.3-15,63.8-36,88.5c-20.9,24.7-49.9,42.5-81.4,49.9c-4.5,1.1-9.1,1.9-13.7,1.3c-4.6-0.6-9.1-3-11.4-7
			c-3.7-6.5-0.3-14.6,3.4-21.1c14-24,34-44.6,57.7-59.2c-20.3,1.9-39.7,11.2-54,25.7c-14.3,14.5-23.2,34.2-24.7,54.4"/>
		<path class="st3" d="M250.5,336.8c-8.7-2.4-18.5-1.1-26.2,3.6c-3.7,2.3-7.3,5.4-11.6,5.6c-5.2,0.3-9.7-3.5-13.1-7.5
			c-8.2-9.5-14-21.2-24-28.8c-9.4-7.1-22-9.8-33.5-7.2c4.4-18.4,17.3-34.6,34.2-43c8.9-4.4,19.3-6.7,28.9-4.1
			c6.5,1.8,12.3,5.7,17.5,10c18.8,15.9,31.3,39.2,34.2,63.7"/>
	</g>
	<path class="st4" d="M370.7,435.7c11.1-5.6,22.1-12.9,28-23.9c5.9-11,5.1-26.4-4.7-34.1c-12.6-9.9-32.5-1.7-41.1,11.9
		c-15-11.4-34.2-17.2-53-15.9c-25.2,1.7-126.2,35.5-83.7,75.9c15.9,15.1,53.8,8.7,73.7,7.1C318,454.4,345.6,448.3,370.7,435.7z"/>
</g>
</svg>
