<?xml version="1.0" encoding="utf-8"?>
<!-- Generator: Adobe Illustrator 21.1.0, SVG Export Plug-In . SVG Version: 6.00 Build 0)  -->
<svg version="1.1" id="Layer_1" xmlns="http://www.w3.org/2000/svg" xmlns:xlink="http://www.w3.org/1999/xlink" x="0px" y="0px"
	 viewBox="0 0 612 792" style="enable-background:new 0 0 612 792;" xml:space="preserve">
<style type="text/css">
	.st0{fill:#BE1E2D;stroke:#BE1E2D;stroke-width:3;stroke-miterlimit:10;}
	.st1{fill:#FFFFFF;}
	.st2{fill:#FFFFFD;}
	.st3{fill:#292562;stroke:#FFFFFF;stroke-width:0.25;stroke-miterlimit:10;}
	.st4{fill:#F2F2F2;}
	.st5{fill:#8B181B;stroke:#FFFFFF;stroke-width:0.5;stroke-miterlimit:10;}
	.st6{fill:#8B181B;stroke:#EFF8F8;stroke-width:0.5;stroke-miterlimit:10;}
	.st7{fill:#FBFCF1;}
	.st8{fill:#859F3C;}
	.st9{fill:#93AC3C;}
	.st10{fill:#A7B238;}
	.st11{fill:#301D21;}
	.st12{fill:#FAFBEE;}
	.st13{fill:#C9C832;}
	.st14{fill:#A5B038;}
</style>
<g>
	<g>
		<path id="path1_1_" class="st0" d="M306,48c120.2,0.2,218,111.6,218,248.3c0,127.5-55.7,249.2-88.8,310.4
			c-21,38.7-44.8,75.4-66.9,103.1C329.9,758,314.6,758,306.4,758c-8.2,0-23.5,0-61.9-48.1c-22.3-28-46.1-64.6-67.1-103.1
			C144,545.6,88.1,423.8,88.1,296.3C88.1,159.6,185.8,48.2,306,48z"/>
	</g>
</g>
<ellipse class="st1" cx="306" cy="314.6" rx="189" ry="221.6"/>
<g>
	<g id="Layer_2_7_">
	</g>
	<g id="Layer_1_24_">
		<path class="st2" d="M204.6,125.8c0.2,16,0.7,32.2,0.9,48.2c0.4,25.7,0.4,53.5-12.4,74.7c-7.8,12.7-18,23.2-29.3,32.2
			c-11.3,9-22.8,20.2-24.5,35.7c-1.1,10,2,20.2,6.9,28.5c5,8.2,11.5,15.2,18,22c11.5,11.7,24.7,24.5,40.1,23.2
			c2.2,23.5,3.7,48.5,0.7,72c-1.1,8.2-2.2,17.7,3,23.7c4.1,4.7,10.8,5.2,16.5,4.5c5.9-0.7,11.9-2.5,17.6-0.2
			c52.9,19.5,109.7-4.5,165.3-5.2c4.8,0,9.8-0.2,13.9-3.2c6.5-5,3.5-11.5,3.3-18.2c-0.2-10.2-0.2-19-1.7-29.2
			c-4.1-27.2,2.8-56.5,18.7-77.5c12.8,0.2,26-13.5,32.5-26c6.7-12.5,7.2-29.2,1.1-42.2c-4.8-10.2-12.8-17.7-20.6-25
			c-10-9.2-20-18.5-30.1-28c-1.5-7.7-4.6-17-6.1-24.7c-16,0.2-32.1,0.2-48.1,0.5c-3.5-3.5-5.2-11.7-5-17.2
			c0.4-5.5,1.7-10.7,1.5-16.2c-0.2-5.5-2.2-11.5-6.3-13.7c-2.4-1.2-5.2-1.2-7.8-1.2c-17.1,0.2-34.5,0.7-51.6,1
			c-2.4-6.7-0.4-14.5,0.4-21.7c0.9-7.2,0.4-16-4.8-20.5c-3.7-3-8.2-3-12.8-2.7C258.2,119.8,229.8,124.8,204.6,125.8z"/>
		<g>
			<rect x="262.3" y="170.6" class="st3" width="100" height="308.6"/>
			<rect x="270.3" y="181.6" class="st4" width="21" height="24.2"/>
			<rect x="302.6" y="181.6" class="st4" width="21" height="24.2"/>
			<rect x="333.2" y="181.6" class="st4" width="21" height="24.2"/>
			<rect x="270.3" y="215" class="st4" width="21" height="24.2"/>
			<rect x="302.6" y="215" class="st4" width="21" height="24.2"/>
			<rect x="333.2" y="215" class="st4" width="21" height="24.2"/>
			<rect x="270.3" y="248.5" class="st4" width="21" height="24.2"/>
			<rect x="302.6" y="248.5" class="st4" width="21" height="24.2"/>
			<rect x="333.2" y="248.5" class="st4" width="21" height="24.2"/>
			<rect x="270.3" y="282" class="st4" width="21" height="24.2"/>
			<rect x="302.6" y="282" class="st4" width="21" height="24.2"/>
			<rect x="333.2" y="282" class="st4" width="21" height="24.2"/>
			<rect x="270.3" y="312.7" class="st4" width="21" height="24.2"/>
			<rect x="302.6" y="312.7" class="st4" width="21" height="24.2"/>
			<rect x="333.2" y="312.7" class="st4" width="21" height="24.2"/>
			<rect x="271" y="343.5" class="st4" width="21" height="24.2"/>
			<rect x="303.3" y="343.5" class="st4" width="21" height="24.2"/>
			<rect x="334.1" y="343.5" class="st4" width="21" height="24.2"/>
			<rect x="271" y="374.2" class="st4" width="21" height="24.2"/>
			<rect x="303.3" y="374.2" class="st4" width="21" height="24.2"/>
			<rect x="334.1" y="374.2" class="st4" width="21" height="24.2"/>
			<rect x="271" y="404.9" class="st4" width="21" height="24.2"/>
			<rect x="303.3" y="404.9" class="st4" width="21" height="24.2"/>
			<rect x="334.1" y="404.9" class="st4" width="21" height="24.2"/>
		</g>
		<g>
			<rect x="333.2" y="215" class="st5" width="85.2" height="263.8"/>
			<rect x="340.2" y="224.3" class="st4" width="18" height="20.7"/>
			<rect x="367.7" y="224.3" class="st4" width="18" height="20.7"/>
			<rect x="393.9" y="224.3" class="st4" width="18" height="20.7"/>
			<rect x="340.2" y="253" class="st4" width="18" height="20.7"/>
			<rect x="367.7" y="253" class="st4" width="18" height="20.7"/>
			<rect x="393.9" y="253" class="st4" width="18" height="20.7"/>
			<rect x="340.2" y="281.8" class="st4" width="18" height="20.7"/>
			<rect x="367.7" y="281.8" class="st4" width="18" height="20.7"/>
			<rect x="393.9" y="281.8" class="st4" width="18" height="20.7"/>
			<rect x="340.2" y="310.2" class="st4" width="18" height="20.7"/>
			<rect x="367.7" y="310.2" class="st4" width="18" height="20.7"/>
			<rect x="393.9" y="310.2" class="st4" width="18" height="20.7"/>
			<rect x="340.2" y="336.7" class="st4" width="18" height="20.7"/>
			<rect x="367.7" y="336.7" class="st4" width="18" height="20.7"/>
			<rect x="393.9" y="336.7" class="st4" width="18" height="20.7"/>
			<rect x="340.8" y="363" class="st4" width="18" height="20.7"/>
			<rect x="368.3" y="363" class="st4" width="18" height="20.7"/>
			<rect x="394.6" y="363" class="st4" width="18" height="20.7"/>
			<rect x="340.8" y="389.2" class="st4" width="18" height="20.7"/>
			<rect x="368.3" y="389.2" class="st4" width="18" height="20.7"/>
			<rect x="394.6" y="389.2" class="st4" width="18" height="20.7"/>
			<rect x="340.8" y="415.4" class="st4" width="18" height="20.7"/>
			<rect x="368.3" y="415.4" class="st4" width="18" height="20.7"/>
			<rect x="394.6" y="415.4" class="st4" width="18" height="20.7"/>
		</g>
		<g>
			<rect x="212.2" y="128.3" class="st6" width="85.2" height="350.5"/>
			<rect x="219.1" y="140.6" class="st4" width="18" height="27.5"/>
			<rect x="246.7" y="140.6" class="st4" width="18" height="27.5"/>
			<rect x="272.9" y="140.6" class="st4" width="18" height="27.5"/>
			<rect x="219.1" y="178.8" class="st4" width="18" height="27.5"/>
			<rect x="246.7" y="178.8" class="st4" width="18" height="27.5"/>
			<rect x="272.9" y="178.8" class="st4" width="18" height="27.5"/>
			<rect x="219.1" y="216.8" class="st4" width="18" height="27.5"/>
			<rect x="246.7" y="216.8" class="st4" width="18" height="27.5"/>
			<rect x="272.9" y="216.8" class="st4" width="18" height="27.5"/>
			<rect x="219.1" y="255" class="st4" width="18" height="27.5"/>
			<rect x="246.7" y="255" class="st4" width="18" height="27.5"/>
			<rect x="272.9" y="255" class="st4" width="18" height="27.5"/>
			<rect x="219.1" y="290" class="st4" width="18" height="27.5"/>
			<rect x="246.7" y="290" class="st4" width="18" height="27.5"/>
			<rect x="272.9" y="290" class="st4" width="18" height="27.5"/>
			<rect x="219.8" y="324.7" class="st4" width="18" height="27.5"/>
			<rect x="247.3" y="324.7" class="st4" width="18" height="27.5"/>
			<rect x="273.6" y="324.7" class="st4" width="18" height="27.5"/>
			<rect x="219.8" y="359.7" class="st4" width="18" height="27.5"/>
			<rect x="247.3" y="359.7" class="st4" width="18" height="27.5"/>
			<rect x="273.6" y="359.7" class="st4" width="18" height="27.5"/>
			<rect x="219.8" y="394.7" class="st4" width="18" height="27.5"/>
			<rect x="247.3" y="394.7" class="st4" width="18" height="27.5"/>
			<rect x="273.6" y="394.7" class="st4" width="18" height="27.5"/>
		</g>
		<g>
			<path class="st7" d="M401.5,413.7c0-3.7-1.7-7-1.5-10.7c0.4-4.2,2-8.2,4.8-11c2.4-2.2,5.4-3.7,7.2-6.5c1.7-2.5,2.2-5.5,3.5-8.2
				c2-4,5.6-6.5,9.3-8.2c3-1.5,8.5-2.2,10.2-5.5c0.9-1.5,0.9-4,1.7-5.5c1.1-2,2.4-3.7,3.9-5.2c2.8-2.7,6.1-5,9.3-7.2
				c5.9-3.7,13-7.2,17.6-13c3.5-4.5,5.6-9.7,6.9-15.5c2.4-11.5,1.1-23.7-3.7-34.2c-2.4-5-5.9-9.7-9.3-13.7
				c-12.8-14.7-29.5-24.5-47.1-28.5c-8.9-2-17.6-0.7-26.5-2.2c-14.3-2.2-31.7-5.2-41.2,10.5c-3.9,6.2-6.5,13.7-11.7,18.7
				c-2.4,2.2-5.4,4-8.2,5.5c-3.7,2-7.2,4-10.8,6c-3.5,2-7.4,2.2-10.6,5.2c-3.5,3.2-6.7,7.5-9.1,11.7c-4.8,8.2-7.8,18.5-6.7,28.5
				c2,18.5,15.4,32,28,43.7c8.7,8,18.7,16.5,29.9,15.5c7.6-0.7,11.9-4.2,15,5.7c2.6,8.5,1.7,18.2,0,26.7c-3,17-5.4,32.2-2.8,49.5
				c0.9,6,3,11.7,6.9,15.7s9.3,5.7,14.7,5.7c6.9,0.2,19.1-0.7,23.6-7.7c5-7.7-0.9-21.2-2.4-29.2c-2.2-12-2.2-23.7-1.3-35.7
				C401.5,414.2,401.5,413.9,401.5,413.7z"/>
			<g>
				<ellipse class="st8" cx="376.2" cy="276" rx="31.2" ry="36"/>
				<ellipse class="st9" cx="415.4" cy="283.5" rx="31.2" ry="36"/>
				<ellipse class="st10" cx="346.4" cy="335.2" rx="32.5" ry="39"/>
				<ellipse class="st8" cx="323.9" cy="319.5" rx="29.5" ry="34"/>
				<path class="st11" d="M373.1,382.9c1.1,0.5,0.4,19.7,0.4,21.7c0.2,7.2,0,14.7,0.7,22c0.7,6.5-1.1,12.7-2.4,19.2
					c-1.3,7.7-2.6,15.5-4.1,23.2c-0.4,2.2-0.7,4.7,0.4,6.5c1.3,2,3.9,2.2,6.1,2c9.5-0.5,18.9-1,28.4-1.2c-3.7-5.5-5.9-8.7-6.9-15.5
					c-1.1-6.5-0.9-13.2-1.3-19.7c-0.4-10.5-0.9-21.2-1.3-31.7c-0.2-5.2-0.4-10.5-0.7-15.7c0-1.7-0.7-4,0.4-5.2
					c1.1-1.5,3.3-1.7,4.8-1.5c2.2,0.2,4.3,1,6.3,0.2c2.8-1,4.6-4.2,5.9-7.2c2.4-5.2,4.8-10.5,7.2-15.7c2.2,1,5.4,0.5,7.6-0.7
					c2.2-1.2,3.9-3.2,5.4-5.2c3-4.2,5.2-9.5,6.1-14.7c-2.4-0.7-5-1.2-7.4-2c-0.7,2.7-1.3,5.7-2.4,8.5c-1.1,2.7-2.8,5-5.2,6.2
					c-2.4,1.2-5.2,1.2-8,1c-6.7-0.5-13.4-0.7-20.2-1.2c0-1,0-2.2-0.2-3.2c0,1.5-8.9,2-10,2c-3.9,0-8-1-11.7-2.5c0.7,0.5,1.5,7,1.7,8
					c0.4,2.5,0.4,5.2,0.4,7.7c0,0.7,0,1.5-0.4,2c-0.7,0.5-1.5,0.2-2.4-0.2c-4.8-3.2-9.5-6-13.4-11c-3.5-4.2-6.1-9.5-7.2-15.2
					c-2.4-0.2-5-0.5-7.4-0.7c0.2,1.2,0.4,2.5,0.4,3.7c-3-1-5.6-3.5-6.9-6.7c-1.5-3-5.4-4-8-6c-0.7,3,0.4,5.5,2,8
					c3.5,6,8.9,10.2,15,11.7C350.8,366.5,361.4,377.7,373.1,382.9z"/>
				<path class="st12" d="M410.2,363.2c-1.1,3-2.4,5.7-3.5,8.7c-0.9,2.5-2,5-3.7,6.7c-2.6,2.7-6.5,3.7-9.8,2
					c-0.4-2.7-0.9-5.5-0.7-8.2c0.2-2.7,1.1-5.5,3-7.2c1.7-1.5,4.1-2,6.3-1.7C404.1,363.5,408,363.7,410.2,363.2z"/>
				<ellipse class="st13" cx="346.4" cy="307.5" rx="31.2" ry="36"/>
				<ellipse class="st13" cx="438.6" cy="307.5" rx="31.2" ry="36"/>
				<ellipse class="st14" cx="381.8" cy="319.5" rx="31.2" ry="36"/>
			</g>
		</g>
		<g>
			<path class="st7" d="M255.8,417.2c0-3.7-1.7-7-1.5-10.7c0.4-4.2,2-8.2,4.8-11c2.4-2.2,5.4-3.7,7.2-6.5c1.7-2.5,2.2-5.5,3.5-8.2
				c2-4,5.6-6.5,9.3-8.2c3-1.5,8.5-2.2,10.2-5.5c0.9-1.5,0.9-4,1.7-5.5c1.1-2,2.4-3.7,3.9-5.2c2.8-2.7,6.1-5,9.3-7.2
				c5.9-3.7,13-7.2,17.6-13c3.5-4.5,5.6-9.7,6.9-15.5c2.4-11.5,1.1-23.7-3.7-34.2c-2.4-5-5.9-9.7-9.3-13.7
				c-12.8-14.7-29.5-24.5-47.1-28.5c-8.9-2-17.6-0.7-26.5-2.2c-14.3-2.2-31.7-5.2-41.2,10.5c-3.9,6.2-6.5,13.7-11.7,18.7
				c-2.4,2.2-5.4,4-8.2,5.5c-3.7,2-7.2,4-10.8,6c-3.5,2-7.4,2.2-10.6,5.2c-3.5,3.2-6.7,7.5-9.1,11.7c-4.8,8.2-7.8,18.5-6.7,28.5
				c2,18.5,15.4,32,28,43.7c8.7,8,18.7,16.5,29.9,15.5c7.6-0.7,11.9-4.2,15,5.7c2.6,8.5,1.7,18.2,0,26.7c-3,17-5.4,32.2-2.8,49.5
				c0.9,6,3,11.7,6.9,15.7c3.9,4,9.3,5.7,14.7,5.7c6.9,0.2,19.1-0.7,23.6-7.7c5-7.7-0.9-21.2-2.4-29.2c-2.2-12-2.2-23.7-1.3-35.7
				C255.8,417.7,255.8,417.4,255.8,417.2z"/>
			<g>
				<ellipse class="st8" cx="230.4" cy="279.5" rx="31.2" ry="36"/>
				<ellipse class="st9" cx="269.5" cy="287" rx="31.2" ry="36"/>
				<ellipse class="st10" cx="200.7" cy="338.7" rx="32.5" ry="39"/>
				<ellipse class="st8" cx="178.1" cy="323" rx="29.5" ry="34"/>
				<path class="st11" d="M227.4,386.4c1.1,0.5,0.4,19.7,0.4,21.7c0.2,7.2,0,14.7,0.7,22c0.7,6.5-1.1,12.7-2.4,19.2
					c-1.3,7.7-2.6,15.5-4.1,23.2c-0.4,2.2-0.7,4.7,0.4,6.5c1.3,2,3.9,2.2,6.1,2c9.5-0.5,18.9-1,28.4-1.2c-3.7-5.5-5.9-8.7-6.9-15.5
					c-1.1-6.5-0.9-13.2-1.3-19.7c-0.4-10.5-0.9-21.2-1.3-31.7c-0.2-5.2-0.4-10.5-0.7-15.7c0-1.7-0.7-4,0.4-5.2
					c1.1-1.5,3.3-1.7,4.8-1.5c2.2,0.2,4.3,1,6.3,0.2c2.8-1,4.6-4.2,5.9-7.2c2.4-5.2,4.8-10.5,7.2-15.7c2.2,1,5.4,0.5,7.6-0.7
					c2.2-1.2,3.9-3.2,5.4-5.2c3-4.2,5.2-9.5,6.1-14.7c-2.4-0.7-5-1.2-7.4-2c-0.7,2.7-1.3,5.7-2.4,8.5s-2.8,5-5.2,6.2
					c-2.4,1.2-5.2,1.2-8,1c-6.7-0.5-13.4-0.7-20.2-1.2c0-1,0-2.2-0.2-3.2c0,1.5-8.9,2-10,2c-3.9,0-8-1-11.7-2.5c0.7,0.5,1.5,7,1.7,8
					c0.4,2.5,0.4,5.2,0.4,7.7c0,0.7,0,1.5-0.4,2c-0.7,0.5-1.5,0.2-2.4-0.2c-4.8-3.2-9.5-6-13.4-11c-3.5-4.2-6.1-9.5-7.2-15.2
					c-2.4-0.2-5-0.5-7.4-0.7c0.2,1.2,0.4,2.5,0.4,3.7c-3-1-5.6-3.5-6.9-6.7c-1.5-3-5.4-4-8-6c-0.7,3,0.4,5.5,2,8
					c3.5,6,8.9,10.2,15,11.7C204.8,370,215.7,381.2,227.4,386.4z"/>
				<path class="st12" d="M264.5,366.7c-1.1,3-2.4,5.7-3.5,8.7c-0.9,2.5-2,5-3.7,6.7c-2.6,2.7-6.5,3.7-9.8,2
					c-0.4-2.7-0.9-5.5-0.7-8.2s1.1-5.5,3-7.2c1.7-1.5,4.1-2,6.3-1.7C258.4,367,262.3,367.2,264.5,366.7z"/>
				<ellipse class="st13" cx="200.7" cy="311" rx="31.2" ry="36"/>
				<ellipse class="st13" cx="292.9" cy="311" rx="31.2" ry="36"/>
				<ellipse class="st14" cx="236.1" cy="323" rx="31.2" ry="36"/>
			</g>
		</g>
		<g>
			<path class="st7" d="M321.5,414.2c0-3.7-1.7-7-1.5-10.7c0.4-4.2,2-8.2,4.8-11c2.4-2.2,5.4-3.7,7.2-6.5c1.7-2.5,2.2-5.5,3.5-8.2
				c2-4,5.6-6.5,9.3-8.2c3-1.5,8.5-2.2,10.2-5.5c0.9-1.5,0.9-4,1.7-5.5c1.1-2,2.4-3.7,3.9-5.2c2.8-2.7,6.1-5,9.3-7.2
				c5.9-3.7,13-7.2,17.6-13c3.5-4.5,5.6-9.7,6.9-15.5c2.4-11.5,1.1-23.7-3.7-34.2c-2.4-5-5.9-9.7-9.3-13.7
				c-12.8-14.7-29.5-24.5-47.1-28.5c-8.9-2-17.6-0.7-26.5-2.2c-14.3-2.2-31.7-5.2-41.2,10.5c-3.9,6.2-6.5,13.7-11.7,18.7
				c-2.4,2.2-5.4,4-8.2,5.5c-3.7,2-7.2,4-10.8,6c-3.5,2-7.4,2.2-10.6,5.2c-3.5,3.2-6.7,7.5-9.1,11.7c-4.8,8.2-7.8,18.5-6.7,28.5
				c2,18.5,15.4,32,28,43.7c8.7,8,18.7,16.5,29.9,15.5c7.6-0.7,11.9-4.2,15,5.7c2.6,8.5,1.7,18.2,0,26.7c-3,17-5.4,32.2-2.8,49.5
				c0.9,6,3,11.7,6.9,15.7c3.9,4,9.3,5.7,14.7,5.7c6.9,0.2,19.1-0.7,23.6-7.7c5-7.7-0.9-21.2-2.4-29.2c-2.2-12-2.2-23.7-1.3-35.7
				C321.5,414.7,321.5,414.4,321.5,414.2z"/>
			<g>
				<ellipse class="st8" cx="296.1" cy="276.3" rx="31.2" ry="36"/>
				<ellipse class="st9" cx="335.4" cy="283.8" rx="31.2" ry="36"/>
				<ellipse class="st10" cx="266.4" cy="335.5" rx="32.5" ry="39"/>
				<ellipse class="st8" cx="243.9" cy="319.7" rx="29.5" ry="34"/>
				<path class="st11" d="M293.1,383.2c1.1,0.5,0.4,19.7,0.4,21.7c0.2,7.2,0,14.7,0.7,22c0.7,6.5-1.1,12.7-2.4,19.2
					c-1.3,7.7-2.6,15.5-4.1,23.2c-0.4,2.2-0.7,4.7,0.4,6.5c1.3,2,3.9,2.2,6.1,2c9.5-0.5,18.9-1,28.4-1.2c-3.7-5.5-5.9-8.7-6.9-15.5
					c-1.1-6.5-0.9-13.2-1.3-19.7c-0.4-10.5-0.9-21.2-1.3-31.7c-0.2-5.2-0.4-10.5-0.7-15.7c0-1.7-0.7-4,0.4-5.2
					c1.1-1.5,3.3-1.7,4.8-1.5c2.2,0.2,4.3,1,6.3,0.2c2.8-1,4.6-4.2,5.9-7.2c2.4-5.2,4.8-10.5,7.2-15.7c2.2,1,5.4,0.5,7.6-0.7
					c2.2-1.2,3.9-3.2,5.4-5.2c3-4.2,5.2-9.5,6.1-14.7c-2.4-0.7-5-1.2-7.4-2c-0.7,2.7-1.3,5.7-2.4,8.5c-1.1,2.7-2.8,5-5.2,6.2
					c-2.4,1.2-5.2,1.2-8,1c-6.7-0.5-13.4-0.7-20.2-1.2c0-1,0-2.2-0.2-3.2c0,1.5-8.9,2-10,2c-3.9,0-8-1-11.7-2.5c0.7,0.5,1.5,7,1.7,8
					c0.4,2.5,0.4,5.2,0.4,7.7c0,0.7,0,1.5-0.4,2c-0.7,0.5-1.5,0.2-2.4-0.2c-4.8-3.2-9.5-6-13.4-11c-3.5-4.2-6.1-9.5-7.2-15.2
					c-2.4-0.2-5-0.5-7.4-0.7c0.2,1.2,0.4,2.5,0.4,3.7c-3-1-5.6-3.5-6.9-6.7c-1.5-3-5.4-4-8-6c-0.7,3,0.4,5.5,2,8
					c3.5,6,8.9,10.2,15,11.7C270.8,366.7,281.4,378.2,293.1,383.2z"/>
				<path class="st12" d="M330.2,363.7c-1.1,3-2.4,5.7-3.5,8.7c-0.9,2.5-2,5-3.7,6.7c-2.6,2.7-6.5,3.7-9.8,2
					c-0.4-2.7-0.9-5.5-0.7-8.2c0.2-2.7,1.1-5.5,3-7.2c1.7-1.5,4.1-2,6.3-1.7C324.1,364,328,364.2,330.2,363.7z"/>
				<ellipse class="st13" cx="266.4" cy="308" rx="31.2" ry="36"/>
				<ellipse class="st13" cx="358.6" cy="308" rx="31.2" ry="36"/>
				<ellipse class="st14" cx="301.8" cy="319.7" rx="31.2" ry="36"/>
			</g>
		</g>
	</g>
</g>
</svg>
