<?xml version="1.0" encoding="utf-8"?>
<!-- Generator: Adobe Illustrator 21.1.0, SVG Export Plug-In . SVG Version: 6.00 Build 0)  -->
<svg version="1.1" id="Layer_1" xmlns="http://www.w3.org/2000/svg" xmlns:xlink="http://www.w3.org/1999/xlink" x="0px" y="0px"
	 viewBox="0 0 612 792" style="enable-background:new 0 0 612 792;" xml:space="preserve">
<style type="text/css">
	.st0{fill:#262262;stroke:#262262;stroke-width:3;stroke-miterlimit:10;}
	.st1{fill:#FFFFFF;}
	.st2{fill:#913B1F;stroke:#90391F;stroke-miterlimit:10;}
	.st3{fill:#4DB749;}
	.st4{fill:#5B3C18;}
</style>
<g>
	<g>
		<path id="path1_1_" class="st0" d="M331.5,39.1c120.2,0.2,218,111.6,218,248.3c0,127.5-55.7,249.2-88.8,310.4
			c-21,38.7-44.8,75.4-66.9,103.1c-38.3,48.2-53.6,48.2-61.8,48.2c-8.2,0-23.5,0-61.9-48.1c-22.3-28-46.1-64.6-67.1-103.1
			c-33.3-61.2-89.3-182.9-89.3-310.4C113.7,150.7,211.4,39.3,331.5,39.1z"/>
	</g>
</g>
<ellipse class="st1" cx="331.6" cy="305.7" rx="189" ry="221.6"/>
<g>
	<path class="st1" d="M264.7,482.9c15.4,12.3,34.7,18.5,53.8,20.6c17.1,1.8,34.5,0.6,51.8-0.6c13.5-0.9,22.9-14.7,31.7-25
		c4.1-5,13.8-50.6,16.3-50.6c3.9-14.1,8-28.5,6.9-43.2c-1.1-12.3-5.8-24.7-13.8-33.8c-2.8-3.2-5.8-6.2-7.7-10
		c-5.5-11.5,5.8-16.2,13.8-20c15.7-7.6,22.1-27.3,25.1-45.3c3-17.9,4.7-37.6,15.7-51.4c5.5-6.8,13.2-11.8,18.5-18.8s7.4-18.5,1.4-25
		c-4.7-5-12.1-5-18.8-4.7c-30.6,1.5-62,2.9-90.4,15.6c-28.4,12.6-53.5,38.5-57.6,71.1c-25.6-15.6-56.3-21.5-85.5-16.8
		c-6.3,0.9-12.7,2.6-17.9,6.5c-5.2,3.8-9.1,10.6-8.3,17.3c1.1,8.8,9.1,14.4,15.4,20.3c14.6,13.8,22.3,35.6,19.9,56.4
		c-2.8,22.3-21.8,42.6-8.8,64.1c4.4,7.3,10.5,14.1,13,22.6c2.2,6.8,1.9,14.1,3.3,20.9C245.1,465.5,255.3,475.2,264.7,482.9z"/>
	<path class="st2" d="M298.9,344.7c-0.8,5.3-1.4,10.3-2.2,15.6c-12.1,0.9-24,2.9-35.6,6.8c-2.5,0.9-5.2,2.4-5.2,5
		c0,2.6,2.5,4.1,4.7,5c3.3,1.5,6.9,2.9,10.5,3.5c24.8,5.6,50.5,7.3,75.8,4.7c14.1-1.5,28.1-3.2,41.6-7.3c1.4-0.3,2.8-0.9,4.1-1.8
		c1.1-0.9,1.9-2.4,1.9-4.1c-0.3-2.4-2.5-3.5-4.4-4.4c-11-5-22.9-7.3-35-7.1c0.6-5.3,0.8-10.3,1.7-15.6c10.5,0.9,21,2.6,31.2,5.6
		c8.3,2.4,16.8,5.9,21.5,13.2c4.4,6.8,4.7,15.3,5,23.2c0.3,4.4,0.3,9.1-1.4,13.2c-1.9,5-6.3,9.1-11.6,10c-0.6,13.8-2.8,28.2-8,40.9
		c-5.5,12.6-14.1,23.8-25.6,30.3c-6.6,3.8-14.1,5.9-21.5,7.1c-16.3,2.9-33.4,2.4-49.6-1.8c-8.5-2.1-18.2-5.6-24.5-12.3
		c-6.3-6.8-10.8-15-14.3-23.8c-5-12.3-8.3-25.3-9.7-38.5c0-0.9-0.3-2.1-0.3-2.6c-3.9-2.4-8.3-5-9.9-9.4c-1.1-2.9-1.1-6.2-0.8-9.1
		c0.3-5.9,0.3-11.5,0.6-17.3c0-2.6,0.3-5.6,1.4-8.2c1.7-3.5,5.2-5.6,8.5-7.3C263,350.6,281.8,346.2,298.9,344.7z"/>
	<path class="st3" d="M328.7,267.7c-0.3-15,3.9-30.6,14.1-41.2c8.3-8.5,19.6-12.9,30.6-17c32.3-12.1,65.6-24.4,99.8-23.5
		c-19.3,14.1-33.1,36.7-37.5,61.4c-1.9,10.6-1.9,21.8-5,32.3c-5,18.2-18.2,33.2-34.7,40c-15.4,5.9-37.2,5-51.3-5.3
		C332.5,305.3,328.9,281.8,328.7,267.7z"/>
	<path class="st3" d="M312.4,278c-5-10.3-14.3-17.6-24.5-21.5c-10.2-3.8-21.2-4.7-32-3.5c-16,1.5-31.4,7.1-45.2,15.6
		c8.8-2.1,17.6,4.1,22.6,12.3c5,7.9,7.2,17.6,10.2,26.5c3,8.8,7.7,18.2,15.7,22.6c5.5,2.9,11.9,3.5,17.9,3.2
		C303.8,331.2,326.7,306.5,312.4,278z"/>
	<path class="st4" d="M314.9,371.2c2.2,3.2,6.3,4.7,10.2,4.4c3.9-0.3,7.4-2.1,11-3.5c1.9-30.3,10.2-59.1,24.8-85.2
		c-13.8,10.3-27.6,24.1-37,38.8c-9.1-13.5-21-24.4-34.7-31.7c12.7,11.5,23.4,25.6,31.7,40.9C318.2,347.1,317.6,358.8,314.9,371.2z"
		/>
</g>
</svg>
